<?xml version="1.0" encoding="UTF-8"?>
<svg xmlns="http://www.w3.org/2000/svg" xmlns:xlink="http://www.w3.org/1999/xlink" viewBox="0 0 24 24">
  <defs>
    <style>
      .cls-1, .cls-2, .cls-3, .cls-4 {
        fill: none;
      }

      .cls-5 {
        fill: #f29600;
      }

      .cls-6 {
        fill: #827f85;
      }

      .cls-7 {
        clip-path: url(#clippath-1);
      }

      .cls-2 {
        stroke-miterlimit: 10;
        stroke-width: .05px;
      }

      .cls-2, .cls-3 {
        stroke: #827f85;
      }

      .cls-3, .cls-4 {
        stroke-width: .02px;
      }

      .cls-8 {
        opacity: .5;
      }

      .cls-4 {
        stroke: #f29600;
      }

      .cls-9 {
        clip-path: url(#clippath);
      }
    </style>
    <clipPath id="clippath">
      <rect class="cls-1" x="0" y="0" width="24" height="24" rx="5.34" ry="5.34"/>
    </clipPath>
    <clipPath id="clippath-1">
      <rect class="cls-1" y="0" width="24" height="24" rx="5.34" ry="5.34"/>
    </clipPath>
  </defs>
  <g id="_レイヤー_33" data-name="レイヤー 33">
    <g class="cls-8">
      <g class="cls-9">
        <g>
          <path class="cls-2" d="M0,16.48h24"/>
          <path class="cls-2" d="M0,12h24"/>
          <path class="cls-2" d="M0,7.52h24"/>
          <path class="cls-2" d="M16.48,24V0"/>
          <path class="cls-2" d="M12,24V0"/>
          <path class="cls-2" d="M7.52,24V0"/>
          <path class="cls-2" d="M24,24L0,0"/>
          <path class="cls-2" d="M0,24L24,0"/>
          <rect class="cls-2" x="1.57" y="1.57" width="20.86" height="20.86"/>
          <circle class="cls-2" cx="12" cy="12" r="4.48"/>
          <circle class="cls-2" cx="12" cy="12" r="6.3"/>
          <circle class="cls-2" cx="12" cy="12" r="10.43"/>
        </g>
      </g>
      <path class="cls-5" d="M18.66.26c2.8,0,5.08,2.28,5.08,5.08v13.31c0,2.8-2.28,5.08-5.08,5.08H5.34c-2.8,0-5.08-2.28-5.08-5.08V5.34C.26,2.54,2.54.26,5.34.26h13.31M18.66.01H5.34C2.4.01.01,2.4.01,5.34v13.31c0,2.94,2.39,5.33,5.33,5.33h13.31c2.94,0,5.33-2.39,5.33-5.33V5.34C23.99,2.4,21.6.01,18.66.01h0Z"/>
    </g>
    <g class="cls-8">
      <g class="cls-7">
        <g>
          <path class="cls-3" d="M0,16.48h24"/>
          <path class="cls-3" d="M0,12h24"/>
          <path class="cls-3" d="M0,7.52h24"/>
          <path class="cls-3" d="M16.48,24V0"/>
          <path class="cls-3" d="M12,24V0"/>
          <path class="cls-3" d="M7.52,24V0"/>
          <path class="cls-3" d="M24,24L0,0"/>
          <path class="cls-3" d="M0,24L24,0"/>
          <rect class="cls-3" x="1.57" y="1.57" width="20.86" height="20.86"/>
          <circle class="cls-3" cx="12" cy="12" r="4.48"/>
          <circle class="cls-3" cx="12" cy="12" r="6.3"/>
          <circle class="cls-3" cx="12" cy="12" r="10.43"/>
        </g>
      </g>
      <rect class="cls-4" x=".01" y=".01" width="23.98" height="23.98" rx="5.33" ry="5.33"/>
    </g>
  </g>
  <g id="profile2">
    <g>
      <path class="cls-6" d="M11.96,15.17c2.45,0,4.77.94,6.52,2.63-1.73,1.65-4.02,2.58-6.44,2.58s-4.78-.96-6.52-2.66c1.74-1.63,4.03-2.55,6.44-2.55M11.96,13.53c-3.45,0-6.52,1.58-8.55,4.05-.06.07-.06.17,0,.24,2.01,2.56,5.13,4.2,8.63,4.2s6.54-1.6,8.55-4.1c.06-.07.06-.17,0-.24-2.03-2.53-5.14-4.15-8.63-4.15h0Z"/>
      <path class="cls-6" d="M12,3.95c1.76,0,3.19,1.43,3.19,3.19s-1.43,3.19-3.19,3.19-3.19-1.43-3.19-3.19,1.43-3.19,3.19-3.19M12,2.3c-2.67,0-4.84,2.17-4.84,4.84s2.17,4.84,4.84,4.84,4.84-2.17,4.84-4.84-2.17-4.84-4.84-4.84h0Z"/>
    </g>
  </g>
</svg>