<?xml version="1.0" encoding="UTF-8"?>
<svg xmlns="http://www.w3.org/2000/svg" xmlns:xlink="http://www.w3.org/1999/xlink" viewBox="0 0 24 24">
  <defs>
    <style>
      .cls-1, .cls-2, .cls-3 {
        fill: none;
      }

      .cls-4 {
        fill: #f29600;
      }

      .cls-5 {
        fill: #827f85;
      }

      .cls-2 {
        stroke-linecap: round;
        stroke-width: 1.64px;
      }

      .cls-2, .cls-3 {
        stroke: #827f85;
        stroke-miterlimit: 10;
      }

      .cls-3 {
        stroke-width: .05px;
      }

      .cls-6 {
        opacity: .5;
      }

      .cls-7 {
        clip-path: url(#clippath);
      }
    </style>
    <clipPath id="clippath">
      <rect class="cls-1" x="0" y="0" width="24" height="24" rx="5.34" ry="5.34"/>
    </clipPath>
  </defs>
  <g id="_レイヤー_33" data-name="レイヤー 33">
    <g class="cls-6">
      <g class="cls-7">
        <g>
          <path class="cls-3" d="M0,16.48h24"/>
          <path class="cls-3" d="M0,12h24"/>
          <path class="cls-3" d="M0,7.52h24"/>
          <path class="cls-3" d="M16.48,24V0"/>
          <path class="cls-3" d="M12,24V0"/>
          <path class="cls-3" d="M7.52,24V0"/>
          <path class="cls-3" d="M24,24L0,0"/>
          <path class="cls-3" d="M0,24L24,0"/>
          <rect class="cls-3" x="1.57" y="1.57" width="20.86" height="20.86"/>
          <circle class="cls-3" cx="12" cy="12" r="4.48"/>
          <circle class="cls-3" cx="12" cy="12" r="6.3"/>
          <circle class="cls-3" cx="12" cy="12" r="10.43"/>
        </g>
      </g>
      <path class="cls-4" d="M18.66.26c2.8,0,5.08,2.28,5.08,5.08v13.31c0,2.8-2.28,5.08-5.08,5.08H5.34c-2.8,0-5.08-2.28-5.08-5.08V5.34C.26,2.54,2.54.26,5.34.26h13.31M18.66.01H5.34C2.4.01.01,2.4.01,5.34v13.31c0,2.94,2.39,5.33,5.33,5.33h13.31c2.94,0,5.33-2.39,5.33-5.33V5.34C23.99,2.4,21.6.01,18.66.01h0Z"/>
    </g>
  </g>
  <g id="_レイヤー_26" data-name="レイヤー 26">
    <g>
      <g>
        <path class="cls-5" d="M17.48,20.57l-.64-.64-1.47,1.47c-.06.06-.13.11-.2.16.82-.24,1.59-.58,2.32-.99Z"/>
        <path class="cls-5" d="M19.88,16.89l-.71.71.91.91c.18-.19.36-.38.52-.58.06-.07.06-.17,0-.24-.22-.28-.47-.54-.72-.8Z"/>
        <path class="cls-5" d="M13.04,21.4c-.29-.29-.44-.66-.47-1.03-.18.01-.35.03-.53.03-2.46,0-4.78-.96-6.52-2.66,1.74-1.63,4.03-2.55,6.44-2.55.21,0,.42.02.62.03-.07-.5.08-1.02.46-1.4.07-.07.15-.14.24-.19-.43-.05-.87-.08-1.32-.08-3.45,0-6.52,1.58-8.56,4.05-.06.07-.06.17,0,.24,2.01,2.56,5.13,4.21,8.64,4.21.65,0,1.27-.07,1.89-.18-.32-.06-.64-.2-.89-.46Z"/>
        <path class="cls-5" d="M16.84,15.28l.39-.39c-.46-.25-.94-.48-1.45-.67l1.06,1.06Z"/>
        <path class="cls-5" d="M12,3.95c1.76,0,3.19,1.43,3.19,3.19s-1.43,3.19-3.19,3.19-3.19-1.43-3.19-3.19,1.43-3.19,3.19-3.19M12,2.3c-2.67,0-4.84,2.17-4.84,4.84s2.17,4.84,4.84,4.84,4.84-2.17,4.84-4.84-2.17-4.84-4.84-4.84h0Z"/>
      </g>
      <g>
        <line class="cls-2" x1="14.21" y1="14.97" x2="19.47" y2="20.23"/>
        <line class="cls-2" x1="19.47" y1="14.97" x2="14.21" y2="20.23"/>
      </g>
    </g>
  </g>
</svg>