<?xml version="1.0" encoding="UTF-8"?>
<svg xmlns="http://www.w3.org/2000/svg" xmlns:xlink="http://www.w3.org/1999/xlink" viewBox="0 0 24 24">
  <defs>
    <style>
      .cls-1, .cls-2, .cls-3, .cls-4, .cls-5 {
        fill: none;
      }

      .cls-6 {
        fill: #f29600;
      }

      .cls-2, .cls-3, .cls-4 {
        stroke-miterlimit: 10;
      }

      .cls-2, .cls-3, .cls-4, .cls-5 {
        stroke: #827f85;
      }

      .cls-2, .cls-3, .cls-5 {
        stroke-width: 1.54px;
      }

      .cls-3, .cls-5 {
        stroke-linecap: round;
      }

      .cls-4 {
        stroke-width: .05px;
      }

      .cls-7 {
        opacity: .5;
      }

      .cls-5 {
        stroke-linejoin: round;
      }

      .cls-8 {
        clip-path: url(#clippath);
      }
    </style>
    <clipPath id="clippath">
      <rect class="cls-1" x="0" y="0" width="24" height="24" rx="5.34" ry="5.34"/>
    </clipPath>
  </defs>
  <g id="_レイヤー_33" data-name="レイヤー 33">
    <g class="cls-7">
      <g class="cls-8">
        <g>
          <path class="cls-4" d="M0,16.48h24"/>
          <path class="cls-4" d="M0,12h24"/>
          <path class="cls-4" d="M0,7.52h24"/>
          <path class="cls-4" d="M16.48,24V0"/>
          <path class="cls-4" d="M12,24V0"/>
          <path class="cls-4" d="M7.52,24V0"/>
          <path class="cls-4" d="M24,24L0,0"/>
          <path class="cls-4" d="M0,24L24,0"/>
          <rect class="cls-4" x="1.57" y="1.57" width="20.86" height="20.86"/>
          <circle class="cls-4" cx="12" cy="12" r="4.48"/>
          <circle class="cls-4" cx="12" cy="12" r="6.3"/>
          <circle class="cls-4" cx="12" cy="12" r="10.43"/>
        </g>
      </g>
      <path class="cls-6" d="M18.66.26c2.8,0,5.08,2.28,5.08,5.08v13.31c0,2.8-2.28,5.08-5.08,5.08H5.34c-2.8,0-5.08-2.28-5.08-5.08V5.34C.26,2.54,2.54.26,5.34.26h13.31M18.66.01H5.34C2.4.01.01,2.4.01,5.34v13.31c0,2.94,2.39,5.33,5.33,5.33h13.31c2.94,0,5.33-2.39,5.33-5.33V5.34C23.99,2.4,21.6.01,18.66.01h0Z"/>
    </g>
  </g>
  <g id="garbage2">
    <g>
      <path class="cls-5" d="M15.72,20.49h-7.45c-.95,0-1.73-.75-1.77-1.69l-.53-12.11h12.04l-.53,12.11c-.04.95-.82,1.69-1.77,1.69Z"/>
      <line class="cls-5" x1="4.09" y1="6.72" x2="19.91" y2="6.72"/>
      <g>
        <line class="cls-3" x1="14.56" y1="9.28" x2="14.56" y2="17.91"/>
        <line class="cls-3" x1="9.76" y1="9.28" x2="9.76" y2="17.91"/>
      </g>
      <path class="cls-2" d="M9.02,6.32v-1.68c0-.62.38-1.13.85-1.13h4.26c.47,0,.85.51.85,1.13v1.68"/>
    </g>
  </g>
</svg>