<?xml version="1.0" encoding="UTF-8"?>
<svg xmlns="http://www.w3.org/2000/svg" xmlns:xlink="http://www.w3.org/1999/xlink" viewBox="0 0 24 24">
  <defs>
    <style>
      .cls-1, .cls-2, .cls-3 {
        fill: none;
      }

      .cls-4 {
        fill: #f29600;
      }

      .cls-2 {
        stroke: #827f85;
        stroke-miterlimit: 10;
        stroke-width: .05px;
      }

      .cls-5 {
        opacity: .5;
      }

      .cls-6 {
        fill: #4d3818;
      }

      .cls-3 {
        stroke: #f29600;
        stroke-linecap: round;
        stroke-linejoin: round;
        stroke-width: 1.08px;
      }

      .cls-7 {
        clip-path: url(#clippath);
      }
    </style>
    <clipPath id="clippath">
      <rect class="cls-1" y="0" width="24" height="24" rx="5.34" ry="5.34"/>
    </clipPath>
  </defs>
  <g id="_レイヤー_33" data-name="レイヤー 33">
    <g class="cls-5">
      <g class="cls-7">
        <g>
          <path class="cls-2" d="M0,16.48h24"/>
          <path class="cls-2" d="M0,12h24"/>
          <path class="cls-2" d="M0,7.52h24"/>
          <path class="cls-2" d="M16.48,24V0"/>
          <path class="cls-2" d="M12,24V0"/>
          <path class="cls-2" d="M7.52,24V0"/>
          <path class="cls-2" d="M24,24L0,0"/>
          <path class="cls-2" d="M0,24L24,0"/>
          <rect class="cls-2" x="1.57" y="1.57" width="20.86" height="20.86"/>
          <circle class="cls-2" cx="12" cy="12" r="4.48"/>
          <circle class="cls-2" cx="12" cy="12" r="6.3"/>
          <circle class="cls-2" cx="12" cy="12" r="10.43"/>
        </g>
      </g>
      <path class="cls-4" d="M18.66.26c2.8,0,5.08,2.28,5.08,5.08v13.31c0,2.8-2.28,5.08-5.08,5.08H5.34c-2.8,0-5.08-2.28-5.08-5.08V5.34C.26,2.54,2.54.26,5.34.26h13.31M18.66.01H5.34C2.4.01.01,2.4.01,5.34v13.31c0,2.94,2.39,5.33,5.33,5.33h13.31c2.94,0,5.33-2.39,5.33-5.33V5.34C23.99,2.4,21.6.01,18.66.01h0Z"/>
    </g>
  </g>
  <g id="heart">
    <g>
      <rect class="cls-6" x="14.07" y="7.86" width=".87" height="8.27"/>
      <rect class="cls-6" x="7.82" y="7.86" width=".87" height="8.27"/>
      <rect class="cls-6" x="12.79" y="7.86" width=".87" height="8.27"/>
      <rect class="cls-6" x="5.12" y="7.86" width="1.3" height="8.27"/>
      <rect class="cls-6" x="11.08" y="7.86" width="1.3" height="8.27"/>
      <rect class="cls-6" x="16.34" y="7.86" width="1.3" height="8.27"/>
      <rect class="cls-6" x="6.83" y="7.86" width=".58" height="8.27"/>
      <rect class="cls-6" x="15.35" y="7.86" width=".58" height="8.27"/>
      <rect class="cls-6" x="10.09" y="7.86" width=".58" height="8.27"/>
      <rect class="cls-6" x="9.1" y="7.86" width=".58" height="8.27"/>
      <rect class="cls-6" x="18.06" y="7.86" width=".58" height="8.27"/>
      <polyline class="cls-3" points="17.06 6.28 20.22 6.28 20.22 9.44"/>
      <polyline class="cls-3" points="3.78 9.44 3.78 6.28 6.94 6.28"/>
      <polyline class="cls-3" points="6.94 17.72 3.78 17.72 3.78 14.56"/>
      <polyline class="cls-3" points="20.22 14.56 20.22 17.72 17.06 17.72"/>
    </g>
  </g>
</svg>