<?xml version="1.0" encoding="UTF-8"?>
<svg xmlns="http://www.w3.org/2000/svg" xmlns:xlink="http://www.w3.org/1999/xlink" viewBox="0 0 24 24">
  <defs>
    <style>
      .cls-1, .cls-2 {
        fill: none;
      }

      .cls-3 {
        fill: #f29600;
      }

      .cls-4 {
        fill: #827f85;
      }

      .cls-2 {
        stroke: #827f85;
        stroke-miterlimit: 10;
        stroke-width: .05px;
      }

      .cls-5 {
        opacity: .5;
      }

      .cls-6 {
        clip-path: url(#clippath);
      }
    </style>
    <clipPath id="clippath">
      <rect class="cls-1" y="0" width="24" height="24" rx="5.34" ry="5.34"/>
    </clipPath>
  </defs>
  <g id="_レイヤー_33" data-name="レイヤー 33">
    <g class="cls-5">
      <g class="cls-6">
        <g>
          <path class="cls-2" d="M0,16.48h24"/>
          <path class="cls-2" d="M0,12h24"/>
          <path class="cls-2" d="M0,7.52h24"/>
          <path class="cls-2" d="M16.48,24V0"/>
          <path class="cls-2" d="M12,24V0"/>
          <path class="cls-2" d="M7.52,24V0"/>
          <path class="cls-2" d="M24,24L0,0"/>
          <path class="cls-2" d="M0,24L24,0"/>
          <rect class="cls-2" x="1.57" y="1.57" width="20.86" height="20.86"/>
          <circle class="cls-2" cx="12" cy="12" r="4.48"/>
          <circle class="cls-2" cx="12" cy="12" r="6.3"/>
          <circle class="cls-2" cx="12" cy="12" r="10.43"/>
        </g>
      </g>
      <path class="cls-3" d="M18.66.26c2.8,0,5.08,2.28,5.08,5.08v13.31c0,2.8-2.28,5.08-5.08,5.08H5.34c-2.8,0-5.08-2.28-5.08-5.08V5.34C.26,2.54,2.54.26,5.34.26h13.31M18.66.01H5.34C2.4.01.01,2.4.01,5.34v13.31c0,2.94,2.39,5.33,5.33,5.33h13.31c2.94,0,5.33-2.39,5.33-5.33V5.34C23.99,2.4,21.6.01,18.66.01h0Z"/>
    </g>
  </g>
  <g id="home">
    <path class="cls-4" d="M12.29,2.62h0,0M12,2.85l8.25,6.58v9.8h-4.26v-3.62c0-2.22-1.79-4.03-3.98-4.03s-3.98,1.81-3.98,4.03v3.62H3.75v-9.8L12,2.85M12,1.09c-.27,0-.54.08-.74.25L2.41,8.39c-.2.16-.31.37-.31.59v11.05c0,.46.47.84,1.05.84h17.69c.58,0,1.05-.38,1.05-.84v-11.05c0-.22-.11-.44-.31-.59L12.74,1.33c-.21-.16-.47-.25-.74-.25h0ZM9.66,20.87v-5.26c0-1.31,1.05-2.38,2.34-2.38s2.34,1.06,2.34,2.38v5.26h-4.67Z"/>
  </g>
</svg>