<?xml version="1.0" encoding="UTF-8"?>
<svg xmlns="http://www.w3.org/2000/svg" xmlns:xlink="http://www.w3.org/1999/xlink" viewBox="0 0 24 24">
  <defs>
    <style>
      .cls-1, .cls-2, .cls-3 {
        fill: none;
      }

      .cls-4 {
        fill: #f29600;
      }

      .cls-2 {
        stroke-width: 2.04px;
      }

      .cls-2, .cls-3 {
        stroke: #827f85;
        stroke-miterlimit: 10;
      }

      .cls-5 {
        fill: #827f85;
      }

      .cls-3 {
        stroke-width: .05px;
      }

      .cls-6 {
        opacity: .5;
      }

      .cls-7 {
        clip-path: url(#clippath);
      }
    </style>
    <clipPath id="clippath">
      <rect class="cls-1" y="0" width="24" height="24" rx="5.34" ry="5.34"/>
    </clipPath>
  </defs>
  <g id="_レイヤー_33" data-name="レイヤー 33">
    <g class="cls-6">
      <g class="cls-7">
        <g>
          <path class="cls-3" d="M0,16.48h24"/>
          <path class="cls-3" d="M0,12h24"/>
          <path class="cls-3" d="M0,7.52h24"/>
          <path class="cls-3" d="M16.48,24V0"/>
          <path class="cls-3" d="M12,24V0"/>
          <path class="cls-3" d="M7.52,24V0"/>
          <path class="cls-3" d="M24,24L0,0"/>
          <path class="cls-3" d="M0,24L24,0"/>
          <rect class="cls-3" x="1.57" y="1.57" width="20.86" height="20.86"/>
          <circle class="cls-3" cx="12" cy="12" r="4.48"/>
          <circle class="cls-3" cx="12" cy="12" r="6.3"/>
          <circle class="cls-3" cx="12" cy="12" r="10.43"/>
        </g>
      </g>
      <path class="cls-4" d="M18.66.26c2.8,0,5.08,2.28,5.08,5.08v13.31c0,2.8-2.28,5.08-5.08,5.08H5.34c-2.8,0-5.08-2.28-5.08-5.08V5.34C.26,2.54,2.54.26,5.34.26h13.31M18.66.01H5.34C2.4.01.01,2.4.01,5.34v13.31c0,2.94,2.39,5.33,5.33,5.33h13.31c2.94,0,5.33-2.39,5.33-5.33V5.34C23.99,2.4,21.6.01,18.66.01h0Z"/>
    </g>
  </g>
  <g id="lock">
    <g>
      <circle class="cls-2" cx="12" cy="6.17" r="3.59"/>
      <path class="cls-5" d="M16.51,7.32H7.49c-1.69,0-3.06,1.37-3.06,3.06v4.51c0,4.18,3.39,7.57,7.57,7.57h0c4.18,0,7.57-3.39,7.57-7.57v-4.51c0-1.69-1.37-3.06-3.06-3.06ZM12.89,14.55v1.25c0,.49-.4.89-.89.89s-.89-.4-.89-.89v-1.25c-.4-.28-.67-.75-.67-1.28,0-.86.7-1.56,1.56-1.56s1.56.7,1.56,1.56c0,.53-.26.99-.67,1.28Z"/>
    </g>
  </g>
</svg>