<?xml version="1.0" encoding="UTF-8"?>
<svg xmlns="http://www.w3.org/2000/svg" xmlns:xlink="http://www.w3.org/1999/xlink" viewBox="0 0 24 24">
  <defs>
    <style>
      .cls-1, .cls-2 {
        fill: none;
      }

      .cls-3 {
        fill: #f29600;
      }

      .cls-4 {
        fill: #fff;
      }

      .cls-2 {
        stroke: #827f85;
        stroke-miterlimit: 10;
        stroke-width: .05px;
      }

      .cls-5 {
        opacity: .5;
      }

      .cls-6 {
        clip-path: url(#clippath);
      }
    </style>
    <clipPath id="clippath">
      <rect class="cls-1" y="0" width="24" height="24" rx="5.34" ry="5.34"/>
    </clipPath>
  </defs>
  <g id="_レイヤー_33" data-name="レイヤー 33">
    <g class="cls-5">
      <g class="cls-6">
        <g>
          <path class="cls-2" d="M0,16.48h24"/>
          <path class="cls-2" d="M0,12h24"/>
          <path class="cls-2" d="M0,7.52h24"/>
          <path class="cls-2" d="M16.48,24V0"/>
          <path class="cls-2" d="M12,24V0"/>
          <path class="cls-2" d="M7.52,24V0"/>
          <path class="cls-2" d="M24,24L0,0"/>
          <path class="cls-2" d="M0,24L24,0"/>
          <rect class="cls-2" x="1.57" y="1.57" width="20.86" height="20.86"/>
          <circle class="cls-2" cx="12" cy="12" r="4.48"/>
          <circle class="cls-2" cx="12" cy="12" r="6.3"/>
          <circle class="cls-2" cx="12" cy="12" r="10.43"/>
        </g>
      </g>
      <path class="cls-3" d="M18.66.26c2.8,0,5.08,2.28,5.08,5.08v13.31c0,2.8-2.28,5.08-5.08,5.08H5.34c-2.8,0-5.08-2.28-5.08-5.08V5.34C.26,2.54,2.54.26,5.34.26h13.31M18.66.01H5.34C2.4.01.01,2.4.01,5.34v13.31c0,2.94,2.39,5.33,5.33,5.33h13.31c2.94,0,5.33-2.39,5.33-5.33V5.34C23.99,2.4,21.6.01,18.66.01h0Z"/>
    </g>
  </g>
  <g id="_レイヤー_23" data-name="レイヤー 23">
    <g>
      <g>
        <circle class="cls-3" cx="12" cy="5.01" r=".88"/>
        <circle class="cls-3" cx="2.28" cy="9.35" r=".88"/>
        <circle class="cls-3" cx="21.72" cy="9.28" r=".88"/>
        <path class="cls-3" d="M12,18.03c2.89,0,5.51.7,7.46,1.84l2.26-10.58-4.45,1.47c-1.13.37-2.37-.13-2.92-1.19l-2.35-4.55-2.35,4.55c-.55,1.06-1.79,1.56-2.92,1.19l-4.45-1.47,2.26,10.58c1.95-1.14,4.57-1.84,7.46-1.84Z"/>
      </g>
      <path class="cls-4" d="M12.99,16.35h-1v-5.1h-.05c-.16.11-.31.22-.47.33-.16.11-.31.22-.47.34-.16.11-.31.23-.47.34v-.97c.24-.18.48-.36.73-.53l.73-.53h1v6.12Z"/>
    </g>
  </g>
</svg>