<?xml version="1.0" encoding="UTF-8"?>
<svg xmlns="http://www.w3.org/2000/svg" xmlns:xlink="http://www.w3.org/1999/xlink" viewBox="0 0 24 24">
  <defs>
    <style>
      .cls-1, .cls-2, .cls-3 {
        fill: none;
      }

      .cls-4 {
        fill: #f29600;
      }

      .cls-5 {
        fill: #827f85;
      }

      .cls-2 {
        stroke-linecap: round;
        stroke-width: 1.77px;
      }

      .cls-2, .cls-3 {
        stroke: #827f85;
        stroke-miterlimit: 10;
      }

      .cls-3 {
        stroke-width: .05px;
      }

      .cls-6 {
        opacity: .5;
      }

      .cls-7 {
        clip-path: url(#clippath);
      }
    </style>
    <clipPath id="clippath">
      <rect class="cls-1" y="0" width="24" height="24" rx="5.34" ry="5.34"/>
    </clipPath>
  </defs>
  <g id="_レイヤー_33" data-name="レイヤー 33">
    <g class="cls-6">
      <g class="cls-7">
        <g>
          <path class="cls-3" d="M0,16.48h24"/>
          <path class="cls-3" d="M0,12h24"/>
          <path class="cls-3" d="M0,7.52h24"/>
          <path class="cls-3" d="M16.48,24V0"/>
          <path class="cls-3" d="M12,24V0"/>
          <path class="cls-3" d="M7.52,24V0"/>
          <path class="cls-3" d="M24,24L0,0"/>
          <path class="cls-3" d="M0,24L24,0"/>
          <rect class="cls-3" x="1.57" y="1.57" width="20.86" height="20.86"/>
          <circle class="cls-3" cx="12" cy="12" r="4.48"/>
          <circle class="cls-3" cx="12" cy="12" r="6.3"/>
          <circle class="cls-3" cx="12" cy="12" r="10.43"/>
        </g>
      </g>
      <path class="cls-4" d="M18.66.26c2.8,0,5.08,2.28,5.08,5.08v13.31c0,2.8-2.28,5.08-5.08,5.08H5.34c-2.8,0-5.08-2.28-5.08-5.08V5.34C.26,2.54,2.54.26,5.34.26h13.31M18.66.01H5.34C2.4.01.01,2.4.01,5.34v13.31c0,2.94,2.39,5.33,5.33,5.33h13.31c2.94,0,5.33-2.39,5.33-5.33V5.34C23.99,2.4,21.6.01,18.66.01h0Z"/>
    </g>
  </g>
  <g id="pin">
    <g>
      <path class="cls-5" d="M13.9,15.84l4.65-4.65c.3-.3.79-.3,1.1,0h0c.3.3.79.3,1.1,0l1.1-1.1c.3-.3.3-.79,0-1.1l-6.84-6.84c-.3-.3-.79-.3-1.1,0l-1.1,1.1c-.3.3-.3.79,0,1.1h0c.3.3.3.79,0,1.1l-4.65,4.65c-.3.3-.79.3-1.1,0l-1.1-1.1c-.3-.3-.79-.3-1.1,0l-1.1,1.1c-.3.3-.3.79,0,1.1l9.04,9.04c.3.3.79.3,1.1,0l1.1-1.1c.3-.3.3-.79,0-1.1l-1.1-1.1c-.3-.3-.3-.79,0-1.1Z"/>
      <line class="cls-2" x1="3.77" y1="20.21" x2="8.6" y2="15.37"/>
    </g>
  </g>
</svg>