<?xml version="1.0" encoding="UTF-8"?>
<svg xmlns="http://www.w3.org/2000/svg" xmlns:xlink="http://www.w3.org/1999/xlink" viewBox="0 0 24 24">
  <defs>
    <style>
      .cls-1, .cls-2, .cls-3 {
        fill: none;
      }

      .cls-4 {
        fill: #f29600;
      }

      .cls-5 {
        fill: #827f85;
      }

      .cls-2 {
        stroke-miterlimit: 10;
        stroke-width: .05px;
      }

      .cls-2, .cls-3 {
        stroke: #827f85;
      }

      .cls-6 {
        opacity: .5;
      }

      .cls-3 {
        stroke-linecap: round;
        stroke-linejoin: round;
        stroke-width: 1.65px;
      }

      .cls-7 {
        clip-path: url(#clippath);
      }
    </style>
    <clipPath id="clippath">
      <rect class="cls-1" x="0" y="0" width="24" height="24" rx="5.34" ry="5.34"/>
    </clipPath>
  </defs>
  <g id="_レイヤー_33" data-name="レイヤー 33">
    <g class="cls-6">
      <g class="cls-7">
        <g>
          <path class="cls-2" d="M0,16.48h24"/>
          <path class="cls-2" d="M0,12h24"/>
          <path class="cls-2" d="M0,7.52h24"/>
          <path class="cls-2" d="M16.48,24V0"/>
          <path class="cls-2" d="M12,24V0"/>
          <path class="cls-2" d="M7.52,24V0"/>
          <path class="cls-2" d="M24,24L0,0"/>
          <path class="cls-2" d="M0,24L24,0"/>
          <rect class="cls-2" x="1.57" y="1.57" width="20.86" height="20.86"/>
          <circle class="cls-2" cx="12" cy="12" r="4.48"/>
          <circle class="cls-2" cx="12" cy="12" r="6.3"/>
          <circle class="cls-2" cx="12" cy="12" r="10.43"/>
        </g>
      </g>
      <path class="cls-4" d="M18.66.26c2.8,0,5.08,2.28,5.08,5.08v13.31c0,2.8-2.28,5.08-5.08,5.08H5.34c-2.8,0-5.08-2.28-5.08-5.08V5.34C.26,2.54,2.54.26,5.34.26h13.31M18.66.01H5.34C2.4.01.01,2.4.01,5.34v13.31c0,2.94,2.39,5.33,5.33,5.33h13.31c2.94,0,5.33-2.39,5.33-5.33V5.34C23.99,2.4,21.6.01,18.66.01h0Z"/>
    </g>
  </g>
  <g id="_レイヤー_28" data-name="レイヤー 28">
    <path class="cls-5" d="M12,8.24c-2.07,0-3.76,1.68-3.76,3.76s1.68,3.76,3.76,3.76,3.76-1.68,3.76-3.76-1.68-3.76-3.76-3.76ZM12,13.43c-.79,0-1.43-.64-1.43-1.43s.64-1.43,1.43-1.43,1.43.64,1.43,1.43-.64,1.43-1.43,1.43Z"/>
    <path class="cls-3" d="M21.36,11.43c.31.32.31.83,0,1.15-1.34,1.36-5.02,4.65-9.36,4.65S3.97,13.93,2.64,12.57c-.31-.32-.31-.83,0-1.15,1.34-1.36,5.02-4.65,9.36-4.65s8.03,3.29,9.36,4.65Z"/>
  </g>
</svg>