<?xml version="1.0" encoding="UTF-8"?>
<svg xmlns="http://www.w3.org/2000/svg" xmlns:xlink="http://www.w3.org/1999/xlink" viewBox="0 0 24 24">
  <defs>
    <style>
      .cls-1, .cls-2, .cls-3 {
        fill: none;
      }

      .cls-4 {
        fill: #f29600;
      }

      .cls-5 {
        fill: #827f85;
      }

      .cls-2 {
        stroke-linecap: round;
        stroke-width: 1.65px;
      }

      .cls-2, .cls-3 {
        stroke: #827f85;
        stroke-miterlimit: 10;
      }

      .cls-3 {
        stroke-width: .05px;
      }

      .cls-6 {
        opacity: .5;
      }

      .cls-7 {
        clip-path: url(#clippath);
      }
    </style>
    <clipPath id="clippath">
      <rect class="cls-1" x="0" y="0" width="24" height="24" rx="5.34" ry="5.34"/>
    </clipPath>
  </defs>
  <g id="_レイヤー_33" data-name="レイヤー 33">
    <g class="cls-6">
      <g class="cls-7">
        <g>
          <path class="cls-3" d="M0,16.48h24"/>
          <path class="cls-3" d="M0,12h24"/>
          <path class="cls-3" d="M0,7.52h24"/>
          <path class="cls-3" d="M16.47,24V0"/>
          <path class="cls-3" d="M12,24V0"/>
          <path class="cls-3" d="M7.52,24V0"/>
          <path class="cls-3" d="M24,24L0,0"/>
          <path class="cls-3" d="M0,24L24,0"/>
          <rect class="cls-3" x="1.57" y="1.57" width="20.86" height="20.86"/>
          <circle class="cls-3" cx="12" cy="12" r="4.48"/>
          <circle class="cls-3" cx="12" cy="12" r="6.3"/>
          <circle class="cls-3" cx="12" cy="12" r="10.43"/>
        </g>
      </g>
      <path class="cls-4" d="M18.65.26c2.8,0,5.08,2.28,5.08,5.08v13.31c0,2.8-2.28,5.08-5.08,5.08H5.34c-2.8,0-5.08-2.28-5.08-5.08V5.34C.26,2.54,2.54.26,5.34.26h13.31M18.65.01H5.34C2.39.01,0,2.4,0,5.34v13.31c0,2.94,2.39,5.33,5.33,5.33h13.31c2.94,0,5.33-2.39,5.33-5.33V5.34C23.98,2.4,21.6.01,18.65.01h0Z"/>
    </g>
  </g>
  <g id="_レイヤー_27" data-name="レイヤー 27">
    <g>
      <line class="cls-2" x1="19.43" y1="4.57" x2="4.61" y2="19.38"/>
      <g>
        <path class="cls-5" d="M10.77,15.56c.39.13.8.22,1.23.22,2.09,0,3.78-1.69,3.78-3.78,0-.43-.09-.84-.22-1.23l-4.79,4.79Z"/>
        <path class="cls-5" d="M13.23,8.43c-.39-.13-.8-.22-1.23-.22-2.09,0-3.78,1.69-3.78,3.78,0,.43.09.84.22,1.23l4.79-4.79Z"/>
      </g>
      <g>
        <path class="cls-5" d="M5.63,16.03l1.2-1.2c-1.64-.96-2.93-2.14-3.61-2.83,1.3-1.33,4.77-4.41,8.78-4.41.6,0,1.22.08,1.85.22l1.34-1.34c-1.08-.35-2.15-.53-3.19-.53-4.64,0-8.51,3.43-9.96,4.9-.63.64-.63,1.67,0,2.31.7.71,1.96,1.87,3.59,2.88Z"/>
        <path class="cls-5" d="M18.37,7.96l-1.21,1.21c1.64.96,2.93,2.13,3.61,2.83-1.31,1.33-4.77,4.4-8.78,4.4-.63,0-1.25-.08-1.85-.22l-1.34,1.34c1.01.32,2.08.52,3.19.52,4.64,0,8.51-3.43,9.96-4.9.63-.64.63-1.67,0-2.31-.7-.71-1.96-1.87-3.59-2.88Z"/>
      </g>
    </g>
  </g>
</svg>