<svg width="365" height="202" viewBox="0 0 365 202" fill="none" xmlns="http://www.w3.org/2000/svg">
<path d="M13.4277 116.516C11.1074 116.516 9.07357 116.165 7.32617 115.463C5.5931 114.761 4.2181 113.758 3.20117 112.455C2.18424 111.137 1.61133 109.569 1.48242 107.75L1.46094 107.428H6.16602L6.20898 107.707C6.35221 108.652 6.74609 109.476 7.39062 110.178C8.04948 110.865 8.90885 111.395 9.96875 111.768C11.0286 112.14 12.2461 112.326 13.6211 112.326C15.0104 112.326 16.2064 112.133 17.209 111.746C18.2116 111.359 18.985 110.808 19.5293 110.092C20.0879 109.376 20.3672 108.538 20.3672 107.578V107.557C20.3672 106.311 19.916 105.322 19.0137 104.592C18.1257 103.847 16.6504 103.253 14.5879 102.809L11.2148 102.1C8.17839 101.455 5.91536 100.424 4.42578 99.0059C2.9362 97.5736 2.19141 95.7116 2.19141 93.4199V93.3984C2.20573 91.6367 2.69271 90.0898 3.65234 88.7578C4.61198 87.4115 5.93685 86.3659 7.62695 85.6211C9.31706 84.862 11.2578 84.4824 13.4492 84.4824C15.5977 84.4824 17.4954 84.8477 19.1426 85.5781C20.7897 86.3086 22.0931 87.3327 23.0527 88.6504C24.0124 89.9538 24.5495 91.4792 24.6641 93.2266L24.6855 93.5703H19.9805L19.9375 93.291C19.8086 92.3171 19.4505 91.4863 18.8633 90.7988C18.2904 90.1113 17.5384 89.5885 16.6074 89.2305C15.6764 88.8581 14.5951 88.6719 13.3633 88.6719C12.0885 88.6719 10.9785 88.8652 10.0332 89.252C9.08789 89.6243 8.35742 90.1471 7.8418 90.8203C7.32617 91.4935 7.06836 92.2884 7.06836 93.2051V93.2266C7.06836 94.3867 7.52669 95.332 8.44336 96.0625C9.36003 96.793 10.7852 97.3659 12.7188 97.7812L16.0918 98.5117C18.2259 98.9557 19.9661 99.5573 21.3125 100.316C22.6589 101.076 23.6543 102.021 24.2988 103.152C24.9434 104.284 25.2656 105.652 25.2656 107.256V107.277C25.2656 109.168 24.7858 110.808 23.8262 112.197C22.8809 113.572 21.5202 114.639 19.7441 115.398C17.9824 116.143 15.877 116.516 13.4277 116.516ZM29.584 116V84.998H48.9414V89.166H34.3965V98.9629H47.7168V103.023H34.3965V116H29.584ZM64.4316 105.408V101.369H72.3809C74.4577 101.369 76.069 100.832 77.2148 99.7578C78.375 98.6693 78.9551 97.1654 78.9551 95.2461V95.2031C78.9551 93.2552 78.375 91.7441 77.2148 90.6699C76.069 89.5957 74.4577 89.0586 72.3809 89.0586H64.4316V84.998H73.584C75.6178 84.998 77.401 85.4277 78.9336 86.2871C80.4805 87.1322 81.6908 88.321 82.5645 89.8535C83.4382 91.3717 83.875 93.1406 83.875 95.1602V95.2031C83.875 97.2227 83.4382 99.0059 82.5645 100.553C81.6908 102.085 80.4805 103.281 78.9336 104.141C77.401 104.986 75.6178 105.408 73.584 105.408H64.4316ZM62.0254 116V84.998H66.8379V116H62.0254ZM87.5273 116V93.3984H92.2109V97.2656H92.2969C92.6549 95.9336 93.2923 94.888 94.209 94.1289C95.1257 93.3555 96.2285 92.9688 97.5176 92.9688C97.8613 92.9688 98.1693 92.9902 98.4414 93.0332C98.7279 93.0618 98.957 93.0977 99.1289 93.1406V97.459C98.9427 97.3874 98.6634 97.3301 98.291 97.2871C97.9186 97.2298 97.5033 97.2012 97.0449 97.2012C96.0566 97.2012 95.1973 97.416 94.4668 97.8457C93.7363 98.2611 93.1777 98.8698 92.791 99.6719C92.4043 100.46 92.2109 101.412 92.2109 102.529V116H87.5273ZM110.816 116.451C108.654 116.451 106.763 115.979 105.145 115.033C103.54 114.074 102.294 112.72 101.406 110.973C100.518 109.211 100.074 107.12 100.074 104.699V104.656C100.074 102.25 100.518 100.173 101.406 98.4258C102.309 96.6784 103.562 95.332 105.166 94.3867C106.785 93.4414 108.661 92.9688 110.795 92.9688C112.943 92.9688 114.82 93.4414 116.424 94.3867C118.042 95.3177 119.296 96.6569 120.184 98.4043C121.086 100.152 121.537 102.236 121.537 104.656V104.699C121.537 107.134 121.086 109.225 120.184 110.973C119.296 112.72 118.049 114.074 116.445 115.033C114.841 115.979 112.965 116.451 110.816 116.451ZM110.838 112.541C112.041 112.541 113.087 112.233 113.975 111.617C114.863 111.001 115.55 110.113 116.037 108.953C116.524 107.779 116.768 106.361 116.768 104.699V104.656C116.768 103.009 116.524 101.605 116.037 100.445C115.55 99.2708 114.855 98.3828 113.953 97.7812C113.051 97.1654 111.998 96.8574 110.795 96.8574C109.606 96.8574 108.561 97.1654 107.658 97.7812C106.77 98.3971 106.076 99.2852 105.574 100.445C105.073 101.605 104.822 103.009 104.822 104.656V104.699C104.822 106.361 105.066 107.779 105.553 108.953C106.054 110.113 106.756 111.001 107.658 111.617C108.561 112.233 109.62 112.541 110.838 112.541Z" fill="#333333"/>
<path d="M194.676 21.3164C193.332 21.3164 192.16 21.1211 191.16 20.7305C190.168 20.332 189.387 19.7656 188.816 19.0312C188.254 18.2891 187.938 17.4023 187.867 16.3711L187.855 16.1836H191.207L191.23 16.3125C191.301 16.7422 191.492 17.1172 191.805 17.4375C192.125 17.75 192.535 17.9961 193.035 18.1758C193.543 18.3555 194.117 18.4453 194.758 18.4453C195.414 18.4453 195.98 18.3555 196.457 18.1758C196.934 17.9961 197.301 17.7422 197.559 17.4141C197.816 17.0859 197.945 16.707 197.945 16.2773V16.2656C197.945 15.7031 197.719 15.2578 197.266 14.9297C196.82 14.6016 196.074 14.332 195.027 14.1211L193.234 13.7578C191.555 13.4219 190.297 12.8516 189.461 12.0469C188.625 11.2422 188.207 10.2031 188.207 8.92969V8.91797C188.215 7.88672 188.492 6.98828 189.039 6.22266C189.594 5.44922 190.355 4.84766 191.324 4.41797C192.301 3.98828 193.41 3.77344 194.652 3.77344C195.965 3.77344 197.094 3.98047 198.039 4.39453C198.984 4.80078 199.723 5.375 200.254 6.11719C200.793 6.85937 201.09 7.71875 201.145 8.69531L201.156 8.90625H197.816L197.805 8.76562C197.742 8.32031 197.574 7.94141 197.301 7.62891C197.027 7.31641 196.664 7.07422 196.211 6.90234C195.766 6.73047 195.246 6.64453 194.652 6.64453C194.059 6.64453 193.543 6.73438 193.105 6.91406C192.676 7.08594 192.34 7.32422 192.098 7.62891C191.863 7.93359 191.746 8.28906 191.746 8.69531V8.70703C191.746 9.24609 191.973 9.67969 192.426 10.0078C192.879 10.3359 193.594 10.6016 194.57 10.8047L196.352 11.168C197.539 11.4023 198.512 11.7266 199.27 12.1406C200.027 12.5547 200.586 13.0781 200.945 13.7109C201.305 14.3359 201.484 15.0898 201.484 15.9727V15.9844C201.484 17.0703 201.211 18.0156 200.664 18.8203C200.125 19.6172 199.348 20.2344 198.332 20.6719C197.316 21.1016 196.098 21.3164 194.676 21.3164ZM203.875 21V4.08984H214.949V7.00781H207.414V11.543H214.281V14.3438H207.414V21H203.875ZM224.043 15.668V12.9023H228.238C229.254 12.9023 230.043 12.6445 230.605 12.1289C231.168 11.6055 231.449 10.8633 231.449 9.90234V9.87891C231.449 8.91797 231.168 8.17969 230.605 7.66406C230.043 7.14844 229.254 6.89062 228.238 6.89062H224.043V4.08984H229.094C230.289 4.08984 231.328 4.33203 232.211 4.81641C233.102 5.29297 233.793 5.96484 234.285 6.83203C234.785 7.69922 235.035 8.71094 235.035 9.86719V9.89062C235.035 11.0547 234.785 12.0703 234.285 12.9375C233.793 13.8047 233.102 14.4766 232.211 14.9531C231.328 15.4297 230.289 15.668 229.094 15.668H224.043ZM222.273 21V4.08984H225.812V21H222.273ZM237.039 21V8.37891H240.461V10.5352H240.555C240.742 9.77734 241.09 9.1875 241.598 8.76562C242.105 8.34375 242.734 8.13281 243.484 8.13281C243.688 8.13281 243.879 8.14453 244.059 8.16797C244.238 8.19141 244.395 8.22656 244.527 8.27344V11.2734C244.363 11.2109 244.168 11.1641 243.941 11.1328C243.715 11.1016 243.477 11.0859 243.227 11.0859C242.648 11.0859 242.152 11.1953 241.738 11.4141C241.324 11.6328 241.008 11.957 240.789 12.3867C240.57 12.8086 240.461 13.3242 240.461 13.9336V21H237.039ZM251.441 21.2578C250.168 21.2578 249.062 20.9961 248.125 20.4727C247.188 19.9492 246.465 19.1992 245.957 18.2227C245.449 17.2383 245.195 16.0625 245.195 14.6953V14.6719C245.195 13.3125 245.453 12.1445 245.969 11.168C246.484 10.1836 247.207 9.42969 248.137 8.90625C249.074 8.375 250.176 8.10938 251.441 8.10938C252.707 8.10938 253.805 8.375 254.734 8.90625C255.672 9.42969 256.398 10.1797 256.914 11.1562C257.43 12.1328 257.688 13.3047 257.688 14.6719V14.6953C257.688 16.0703 257.434 17.2461 256.926 18.2227C256.418 19.1992 255.695 19.9492 254.758 20.4727C253.828 20.9961 252.723 21.2578 251.441 21.2578ZM251.453 18.5742C252.023 18.5742 252.512 18.4219 252.918 18.1172C253.332 17.8125 253.648 17.3711 253.867 16.793C254.094 16.2148 254.207 15.5156 254.207 14.6953V14.6719C254.207 13.8516 254.094 13.1523 253.867 12.5742C253.641 11.9961 253.32 11.5547 252.906 11.25C252.492 10.9453 252.004 10.793 251.441 10.793C250.887 10.793 250.398 10.9492 249.977 11.2617C249.562 11.5664 249.242 12.0078 249.016 12.5859C248.789 13.1562 248.676 13.8516 248.676 14.6719V14.6953C248.676 15.5156 248.789 16.2148 249.016 16.793C249.242 17.3711 249.562 17.8125 249.977 18.1172C250.391 18.4219 250.883 18.5742 251.453 18.5742ZM266.723 21V18.3633H271.551C272.566 18.3633 273.344 18.1602 273.883 17.7539C274.422 17.3398 274.691 16.7383 274.691 15.9492V15.9258C274.691 15.4102 274.566 14.9766 274.316 14.625C274.074 14.2656 273.707 13.9961 273.215 13.8164C272.73 13.6289 272.129 13.5352 271.41 13.5352H266.723V11.1445H271C271.984 11.1445 272.734 10.9492 273.25 10.5586C273.773 10.1602 274.035 9.59766 274.035 8.87109V8.84766C274.035 8.17578 273.805 7.65234 273.344 7.27734C272.883 6.90234 272.238 6.71484 271.41 6.71484H266.723V4.08984H272.324C273.395 4.08984 274.316 4.26172 275.09 4.60547C275.863 4.94922 276.461 5.4375 276.883 6.07031C277.305 6.70312 277.516 7.45312 277.516 8.32031V8.34375C277.516 8.96094 277.375 9.53516 277.094 10.0664C276.812 10.5898 276.426 11.0273 275.934 11.3789C275.449 11.7227 274.898 11.9375 274.281 12.0234V12.1172C275.062 12.1719 275.754 12.3828 276.355 12.75C276.965 13.1094 277.441 13.5859 277.785 14.1797C278.137 14.7656 278.312 15.4258 278.312 16.1602V16.1836C278.312 17.168 278.074 18.0195 277.598 18.7383C277.121 19.457 276.445 20.0156 275.57 20.4141C274.703 20.8047 273.668 21 272.465 21H266.723ZM264.953 21V4.08984H268.492V21H264.953ZM285.988 21.2578C284.715 21.2578 283.609 20.9961 282.672 20.4727C281.734 19.9492 281.012 19.1992 280.504 18.2227C279.996 17.2383 279.742 16.0625 279.742 14.6953V14.6719C279.742 13.3125 280 12.1445 280.516 11.168C281.031 10.1836 281.754 9.42969 282.684 8.90625C283.621 8.375 284.723 8.10938 285.988 8.10938C287.254 8.10938 288.352 8.375 289.281 8.90625C290.219 9.42969 290.945 10.1797 291.461 11.1562C291.977 12.1328 292.234 13.3047 292.234 14.6719V14.6953C292.234 16.0703 291.98 17.2461 291.473 18.2227C290.965 19.1992 290.242 19.9492 289.305 20.4727C288.375 20.9961 287.27 21.2578 285.988 21.2578ZM286 18.5742C286.57 18.5742 287.059 18.4219 287.465 18.1172C287.879 17.8125 288.195 17.3711 288.414 16.793C288.641 16.2148 288.754 15.5156 288.754 14.6953V14.6719C288.754 13.8516 288.641 13.1523 288.414 12.5742C288.188 11.9961 287.867 11.5547 287.453 11.25C287.039 10.9453 286.551 10.793 285.988 10.793C285.434 10.793 284.945 10.9492 284.523 11.2617C284.109 11.5664 283.789 12.0078 283.562 12.5859C283.336 13.1562 283.223 13.8516 283.223 14.6719V14.6953C283.223 15.5156 283.336 16.2148 283.562 16.793C283.789 17.3711 284.109 17.8125 284.523 18.1172C284.938 18.4219 285.43 18.5742 286 18.5742ZM294.273 21V3.92578H297.695V21H294.273ZM304.867 21.2461C303.812 21.2461 302.898 20.9844 302.125 20.4609C301.359 19.9375 300.77 19.1875 300.355 18.2109C299.941 17.2266 299.734 16.0547 299.734 14.6953V14.6719C299.734 13.3047 299.941 12.1328 300.355 11.1562C300.77 10.1797 301.359 9.43359 302.125 8.91797C302.898 8.39453 303.812 8.13281 304.867 8.13281C305.461 8.13281 306.008 8.23047 306.508 8.42578C307.016 8.61328 307.457 8.88672 307.832 9.24609C308.215 9.60547 308.516 10.0352 308.734 10.5352H308.84V3.92578H312.262V21H308.84V18.8906H308.734C308.516 19.3828 308.219 19.8047 307.844 20.1562C307.469 20.5 307.031 20.7695 306.531 20.9648C306.031 21.1523 305.477 21.2461 304.867 21.2461ZM306.016 18.4102C306.578 18.4102 307.07 18.2617 307.492 17.9648C307.922 17.6602 308.254 17.2305 308.488 16.6758C308.723 16.1133 308.84 15.4531 308.84 14.6953V14.6836C308.84 13.918 308.719 13.2578 308.477 12.7031C308.242 12.1484 307.914 11.7227 307.492 11.4258C307.07 11.1211 306.578 10.9688 306.016 10.9688C305.445 10.9688 304.949 11.1172 304.527 11.4141C304.105 11.7109 303.781 12.1367 303.555 12.6914C303.328 13.2461 303.215 13.9062 303.215 14.6719V14.6953C303.215 15.4609 303.328 16.1211 303.555 16.6758C303.781 17.2305 304.105 17.6602 304.527 17.9648C304.949 18.2617 305.445 18.4102 306.016 18.4102Z" fill="#333333"/>
<path d="M194.523 65.3164C193.227 65.3164 192.094 65.1211 191.125 64.7305C190.156 64.3398 189.391 63.7812 188.828 63.0547C188.273 62.3281 187.961 61.4648 187.891 60.4648L187.879 60.2773H190.773L190.797 60.418C190.875 60.9023 191.082 61.3203 191.418 61.6719C191.754 62.0234 192.195 62.2969 192.742 62.4922C193.289 62.6797 193.918 62.7734 194.629 62.7734C195.332 62.7734 195.941 62.6758 196.457 62.4805C196.98 62.2773 197.383 61.9961 197.664 61.6367C197.953 61.2695 198.098 60.8438 198.098 60.3594V60.3477C198.098 59.7227 197.859 59.2227 197.383 58.8477C196.914 58.4727 196.133 58.1719 195.039 57.9453L193.223 57.5703C191.551 57.2188 190.305 56.6484 189.484 55.8594C188.664 55.0703 188.254 54.0469 188.254 52.7891V52.7773C188.262 51.7773 188.531 50.9062 189.062 50.1641C189.602 49.4141 190.344 48.8281 191.289 48.4062C192.234 47.9844 193.312 47.7734 194.523 47.7734C195.758 47.7734 196.832 47.9766 197.746 48.3828C198.668 48.7891 199.391 49.3555 199.914 50.082C200.445 50.8086 200.738 51.6484 200.793 52.6016L200.805 52.7891H197.922L197.898 52.6484C197.828 52.1641 197.645 51.75 197.348 51.4062C197.059 51.0547 196.672 50.7852 196.188 50.5977C195.703 50.4102 195.141 50.3164 194.5 50.3164C193.852 50.3164 193.285 50.4141 192.801 50.6094C192.324 50.7969 191.953 51.0625 191.688 51.4062C191.422 51.75 191.289 52.1523 191.289 52.6133V52.625C191.289 53.2188 191.527 53.7031 192.004 54.0781C192.48 54.4453 193.23 54.7383 194.254 54.957L196.082 55.332C197.254 55.5742 198.211 55.9023 198.953 56.3164C199.695 56.7305 200.242 57.25 200.594 57.875C200.953 58.4922 201.133 59.2383 201.133 60.1133V60.125C201.133 61.1797 200.867 62.0977 200.336 62.8789C199.805 63.6602 199.047 64.2617 198.062 64.6836C197.078 65.1055 195.898 65.3164 194.523 65.3164ZM203.605 65V48.0898H214.375V50.6328H206.617V55.6367H213.719V58.0977H206.617V65H203.605ZM223.41 59.4102V56.9727H227.711C228.805 56.9727 229.648 56.6953 230.242 56.1406C230.844 55.5781 231.145 54.7891 231.145 53.7734V53.75C231.145 52.7266 230.844 51.9375 230.242 51.3828C229.648 50.8281 228.805 50.5508 227.711 50.5508H223.41V48.0898H228.461C229.602 48.0898 230.602 48.3242 231.461 48.793C232.328 49.2617 233.004 49.9219 233.488 50.7734C233.973 51.6172 234.215 52.6055 234.215 53.7383V53.7617C234.215 54.8867 233.973 55.875 233.488 56.7266C233.004 57.5703 232.328 58.2305 231.461 58.707C230.602 59.1758 229.602 59.4102 228.461 59.4102H223.41ZM221.91 65V48.0898H224.922V65H221.91ZM236.324 65V52.5078H239.23V54.6172H239.324C239.52 53.8828 239.871 53.3086 240.379 52.8945C240.887 52.4727 241.512 52.2617 242.254 52.2617C242.449 52.2617 242.629 52.2734 242.793 52.2969C242.965 52.3203 243.109 52.3477 243.227 52.3789V55.0156C243.086 54.9609 242.906 54.9219 242.688 54.8984C242.477 54.8672 242.246 54.8516 241.996 54.8516C241.426 54.8516 240.934 54.9648 240.52 55.1914C240.105 55.418 239.785 55.75 239.559 56.1875C239.34 56.6172 239.23 57.1367 239.23 57.7461V65H236.324ZM249.941 65.2461C248.707 65.2461 247.637 64.9883 246.73 64.4727C245.832 63.9492 245.133 63.2031 244.633 62.2344C244.141 61.2578 243.895 60.0977 243.895 58.7539V58.7305C243.895 57.3945 244.145 56.2422 244.645 55.2734C245.145 54.3047 245.848 53.5586 246.754 53.0352C247.66 52.5117 248.719 52.25 249.93 52.25C251.148 52.25 252.211 52.5117 253.117 53.0352C254.023 53.5586 254.727 54.3047 255.227 55.2734C255.727 56.2344 255.977 57.3867 255.977 58.7305V58.7539C255.977 60.1055 255.727 61.2656 255.227 62.2344C254.734 63.2031 254.035 63.9492 253.129 64.4727C252.23 64.9883 251.168 65.2461 249.941 65.2461ZM249.941 62.8906C250.574 62.8906 251.117 62.7305 251.57 62.4102C252.023 62.082 252.375 61.6094 252.625 60.9922C252.875 60.375 253 59.6289 253 58.7539V58.7305C253 57.8633 252.875 57.125 252.625 56.5156C252.375 55.8984 252.02 55.4297 251.559 55.1094C251.098 54.7812 250.555 54.6172 249.93 54.6172C249.312 54.6172 248.773 54.7812 248.312 55.1094C247.852 55.4297 247.496 55.8984 247.246 56.5156C246.996 57.125 246.871 57.8633 246.871 58.7305V58.7539C246.871 59.6289 246.996 60.375 247.246 60.9922C247.496 61.6094 247.852 62.082 248.312 62.4102C248.773 62.7305 249.316 62.8906 249.941 62.8906ZM269.383 65.3164C268.086 65.3164 266.953 65.1211 265.984 64.7305C265.016 64.3398 264.25 63.7812 263.688 63.0547C263.133 62.3281 262.82 61.4648 262.75 60.4648L262.738 60.2773H265.633L265.656 60.418C265.734 60.9023 265.941 61.3203 266.277 61.6719C266.613 62.0234 267.055 62.2969 267.602 62.4922C268.148 62.6797 268.777 62.7734 269.488 62.7734C270.191 62.7734 270.801 62.6758 271.316 62.4805C271.84 62.2773 272.242 61.9961 272.523 61.6367C272.812 61.2695 272.957 60.8438 272.957 60.3594V60.3477C272.957 59.7227 272.719 59.2227 272.242 58.8477C271.773 58.4727 270.992 58.1719 269.898 57.9453L268.082 57.5703C266.41 57.2188 265.164 56.6484 264.344 55.8594C263.523 55.0703 263.113 54.0469 263.113 52.7891V52.7773C263.121 51.7773 263.391 50.9062 263.922 50.1641C264.461 49.4141 265.203 48.8281 266.148 48.4062C267.094 47.9844 268.172 47.7734 269.383 47.7734C270.617 47.7734 271.691 47.9766 272.605 48.3828C273.527 48.7891 274.25 49.3555 274.773 50.082C275.305 50.8086 275.598 51.6484 275.652 52.6016L275.664 52.7891H272.781L272.758 52.6484C272.688 52.1641 272.504 51.75 272.207 51.4062C271.918 51.0547 271.531 50.7852 271.047 50.5977C270.562 50.4102 270 50.3164 269.359 50.3164C268.711 50.3164 268.145 50.4141 267.66 50.6094C267.184 50.7969 266.812 51.0625 266.547 51.4062C266.281 51.75 266.148 52.1523 266.148 52.6133V52.625C266.148 53.2188 266.387 53.7031 266.863 54.0781C267.34 54.4453 268.09 54.7383 269.113 54.957L270.941 55.332C272.113 55.5742 273.07 55.9023 273.812 56.3164C274.555 56.7305 275.102 57.25 275.453 57.875C275.812 58.4922 275.992 59.2383 275.992 60.1133V60.125C275.992 61.1797 275.727 62.0977 275.195 62.8789C274.664 63.6602 273.906 64.2617 272.922 64.6836C271.938 65.1055 270.758 65.3164 269.383 65.3164ZM283.621 65.2461C282.379 65.2461 281.309 64.9844 280.41 64.4609C279.512 63.9375 278.82 63.1914 278.336 62.2227C277.859 61.2539 277.621 60.1094 277.621 58.7891V58.7773C277.621 57.4648 277.863 56.3203 278.348 55.3438C278.832 54.3672 279.512 53.6094 280.387 53.0703C281.262 52.5234 282.293 52.25 283.48 52.25C284.676 52.25 285.703 52.5117 286.562 53.0352C287.43 53.5586 288.094 54.293 288.555 55.2383C289.023 56.1758 289.258 57.2734 289.258 58.5312V59.4688H279.062V57.5234H287.863L286.457 59.3398V58.2148C286.457 57.3945 286.332 56.7148 286.082 56.1758C285.832 55.6289 285.484 55.2188 285.039 54.9453C284.602 54.6719 284.094 54.5352 283.516 54.5352C282.938 54.5352 282.422 54.6758 281.969 54.957C281.516 55.2383 281.16 55.6523 280.902 56.1992C280.645 56.7461 280.516 57.418 280.516 58.2148V59.3516C280.516 60.1094 280.645 60.7578 280.902 61.2969C281.16 61.8359 281.523 62.25 281.992 62.5391C282.469 62.8281 283.031 62.9727 283.68 62.9727C284.172 62.9727 284.602 62.8984 284.969 62.75C285.344 62.5938 285.648 62.3984 285.883 62.1641C286.125 61.9219 286.289 61.668 286.375 61.4023L286.41 61.3203H289.141L289.117 61.4492C289.016 61.9102 288.824 62.3672 288.543 62.8203C288.27 63.2734 287.902 63.6836 287.441 64.0508C286.988 64.418 286.441 64.7109 285.801 64.9297C285.168 65.1406 284.441 65.2461 283.621 65.2461ZM291.332 65V52.5078H294.238V54.5H294.332C294.598 53.8125 295.035 53.2656 295.645 52.8594C296.254 52.4531 296.969 52.25 297.789 52.25C298.367 52.25 298.887 52.3477 299.348 52.543C299.809 52.7383 300.203 53.0195 300.531 53.3867C300.859 53.7539 301.102 54.1992 301.258 54.7227H301.34C301.543 54.2148 301.832 53.7773 302.207 53.4102C302.59 53.043 303.035 52.7578 303.543 52.5547C304.059 52.3516 304.617 52.25 305.219 52.25C306.039 52.25 306.754 52.4258 307.363 52.7773C307.973 53.1211 308.445 53.6055 308.781 54.2305C309.117 54.8477 309.285 55.5781 309.285 56.4219V65H306.367V57.1367C306.367 56.6133 306.281 56.1719 306.109 55.8125C305.938 55.4531 305.684 55.1797 305.348 54.9922C305.02 54.8047 304.613 54.7109 304.129 54.7109C303.652 54.7109 303.234 54.8203 302.875 55.0391C302.516 55.2578 302.234 55.5586 302.031 55.9414C301.828 56.3242 301.727 56.7656 301.727 57.2656V65H298.879V56.9844C298.879 56.5156 298.789 56.1133 298.609 55.7773C298.43 55.4336 298.176 55.1719 297.848 54.9922C297.52 54.8047 297.125 54.7109 296.664 54.7109C296.188 54.7109 295.766 54.8281 295.398 55.0625C295.039 55.2891 294.754 55.6016 294.543 56C294.34 56.3984 294.238 56.8516 294.238 57.3594V65H291.332ZM311.887 65V52.5078H314.805V65H311.887ZM313.352 50.6562C312.891 50.6562 312.5 50.5 312.18 50.1875C311.859 49.8672 311.699 49.4844 311.699 49.0391C311.699 48.5938 311.859 48.2148 312.18 47.9023C312.5 47.582 312.891 47.4219 313.352 47.4219C313.812 47.4219 314.199 47.582 314.512 47.9023C314.832 48.2148 314.992 48.5938 314.992 49.0391C314.992 49.4844 314.832 49.8672 314.512 50.1875C314.199 50.5 313.812 50.6562 313.352 50.6562ZM319.293 65V62.6562H324.203C325.312 62.6562 326.156 62.4336 326.734 61.9883C327.32 61.5352 327.613 60.8828 327.613 60.0312V60.0078C327.613 59.4375 327.48 58.9609 327.215 58.5781C326.949 58.1875 326.551 57.8984 326.02 57.7109C325.488 57.5156 324.832 57.418 324.051 57.418H319.293V55.2383H323.559C324.652 55.2383 325.48 55.0234 326.043 54.5938C326.613 54.1641 326.898 53.5547 326.898 52.7656V52.7422C326.898 52.0078 326.648 51.4414 326.148 51.043C325.656 50.6367 324.957 50.4336 324.051 50.4336H319.293V48.0898H324.812C325.852 48.0898 326.75 48.2656 327.508 48.6172C328.266 48.9609 328.852 49.4492 329.266 50.082C329.68 50.7148 329.887 51.4609 329.887 52.3203V52.3438C329.887 52.9453 329.75 53.5117 329.477 54.043C329.203 54.5664 328.828 55.0039 328.352 55.3555C327.875 55.707 327.336 55.9258 326.734 56.0117V56.1055C327.523 56.1758 328.215 56.3945 328.809 56.7617C329.402 57.1289 329.867 57.6055 330.203 58.1914C330.539 58.7773 330.707 59.4414 330.707 60.1836V60.207C330.707 61.1992 330.473 62.0547 330.004 62.7734C329.535 63.4844 328.867 64.0352 328 64.4258C327.141 64.8086 326.105 65 324.895 65H319.293ZM317.793 65V48.0898H320.805V65H317.793ZM338.277 65.2461C337.043 65.2461 335.973 64.9883 335.066 64.4727C334.168 63.9492 333.469 63.2031 332.969 62.2344C332.477 61.2578 332.23 60.0977 332.23 58.7539V58.7305C332.23 57.3945 332.48 56.2422 332.98 55.2734C333.48 54.3047 334.184 53.5586 335.09 53.0352C335.996 52.5117 337.055 52.25 338.266 52.25C339.484 52.25 340.547 52.5117 341.453 53.0352C342.359 53.5586 343.062 54.3047 343.562 55.2734C344.062 56.2344 344.312 57.3867 344.312 58.7305V58.7539C344.312 60.1055 344.062 61.2656 343.562 62.2344C343.07 63.2031 342.371 63.9492 341.465 64.4727C340.566 64.9883 339.504 65.2461 338.277 65.2461ZM338.277 62.8906C338.91 62.8906 339.453 62.7305 339.906 62.4102C340.359 62.082 340.711 61.6094 340.961 60.9922C341.211 60.375 341.336 59.6289 341.336 58.7539V58.7305C341.336 57.8633 341.211 57.125 340.961 56.5156C340.711 55.8984 340.355 55.4297 339.895 55.1094C339.434 54.7812 338.891 54.6172 338.266 54.6172C337.648 54.6172 337.109 54.7812 336.648 55.1094C336.188 55.4297 335.832 55.8984 335.582 56.5156C335.332 57.125 335.207 57.8633 335.207 58.7305V58.7539C335.207 59.6289 335.332 60.375 335.582 60.9922C335.832 61.6094 336.188 62.082 336.648 62.4102C337.109 62.7305 337.652 62.8906 338.277 62.8906ZM346.48 65V47.9375H349.398V65H346.48ZM356.723 65.2461C355.676 65.2461 354.766 64.9844 353.992 64.4609C353.219 63.9297 352.621 63.1797 352.199 62.2109C351.777 61.2422 351.566 60.0898 351.566 58.7539V58.7422C351.566 57.4062 351.777 56.2539 352.199 55.2852C352.621 54.3164 353.215 53.5703 353.98 53.0469C354.754 52.5234 355.664 52.2617 356.711 52.2617C357.305 52.2617 357.852 52.3594 358.352 52.5547C358.852 52.7422 359.293 53.0117 359.676 53.3633C360.059 53.7148 360.367 54.1328 360.602 54.6172H360.684V47.9375H363.602V65H360.684V62.9141H360.602C360.367 63.3984 360.059 63.8125 359.676 64.1562C359.301 64.5 358.863 64.7695 358.363 64.9648C357.871 65.1523 357.324 65.2461 356.723 65.2461ZM357.602 62.7852C358.219 62.7852 358.758 62.6211 359.219 62.293C359.688 61.9648 360.051 61.5 360.309 60.8984C360.566 60.2891 360.695 59.5742 360.695 58.7539V58.7422C360.695 57.9219 360.562 57.2109 360.297 56.6094C360.039 56.0078 359.68 55.543 359.219 55.2148C358.758 54.8867 358.219 54.7227 357.602 54.7227C356.977 54.7227 356.434 54.8867 355.973 55.2148C355.512 55.5352 355.156 55.9961 354.906 56.5977C354.656 57.1914 354.531 57.9062 354.531 58.7422V58.7539C354.531 59.582 354.656 60.3008 354.906 60.9102C355.156 61.5117 355.512 61.9766 355.973 62.3047C356.434 62.625 356.977 62.7852 357.602 62.7852Z" fill="#333333"/>
<path d="M194.418 109.305C193.152 109.305 192.043 109.113 191.09 108.73C190.145 108.34 189.395 107.789 188.84 107.078C188.285 106.359 187.973 105.508 187.902 104.523L187.891 104.359H190.457L190.48 104.5C190.559 105.016 190.773 105.461 191.125 105.836C191.477 106.211 191.941 106.504 192.52 106.715C193.105 106.918 193.773 107.02 194.523 107.02C195.273 107.02 195.922 106.914 196.469 106.703C197.023 106.484 197.449 106.18 197.746 105.789C198.051 105.398 198.203 104.941 198.203 104.418V104.406C198.203 103.734 197.957 103.195 197.465 102.789C196.98 102.383 196.176 102.059 195.051 101.816L193.211 101.43C191.547 101.07 190.309 100.5 189.496 99.7188C188.691 98.9375 188.289 97.9258 188.289 96.6836V96.6719C188.297 95.7031 188.562 94.8516 189.086 94.1172C189.609 93.3828 190.332 92.8125 191.254 92.4062C192.176 91.9922 193.234 91.7852 194.43 91.7852C195.609 91.7852 196.645 91.9844 197.535 92.3828C198.434 92.7812 199.145 93.3398 199.668 94.0586C200.191 94.7695 200.484 95.5938 200.547 96.5312L200.559 96.7188H197.992L197.98 96.5664C197.902 96.043 197.707 95.5977 197.395 95.2305C197.082 94.8633 196.672 94.5781 196.164 94.375C195.656 94.1719 195.062 94.0703 194.383 94.0703C193.695 94.0703 193.094 94.1758 192.578 94.3867C192.062 94.5898 191.664 94.875 191.383 95.2422C191.102 95.6094 190.961 96.043 190.961 96.543V96.5547C190.961 97.1875 191.207 97.707 191.699 98.1133C192.191 98.5195 192.969 98.8359 194.031 99.0625L195.871 99.4492C197.043 99.6992 197.996 100.031 198.73 100.445C199.465 100.859 200.004 101.375 200.348 101.992C200.699 102.609 200.875 103.348 200.875 104.207V104.219C200.875 105.258 200.613 106.16 200.09 106.926C199.574 107.684 198.832 108.27 197.863 108.684C196.902 109.098 195.754 109.305 194.418 109.305ZM203.418 109V92.0898H213.988V94.3633H206.055V99.707H213.32V101.922H206.055V109H203.418ZM222.977 103.223V101.02H227.359C228.5 101.02 229.383 100.727 230.008 100.141C230.633 99.5469 230.945 98.7266 230.945 97.6797V97.6562C230.945 96.5938 230.633 95.7695 230.008 95.1836C229.383 94.5977 228.5 94.3047 227.359 94.3047H222.977V92.0898H228.016C229.125 92.0898 230.098 92.3242 230.934 92.793C231.777 93.2539 232.438 93.9023 232.914 94.7383C233.391 95.5664 233.629 96.5312 233.629 97.6328V97.6562C233.629 98.7578 233.391 99.7305 232.914 100.574C232.438 101.41 231.777 102.062 230.934 102.531C230.098 102.992 229.125 103.223 228.016 103.223H222.977ZM221.652 109V92.0898H224.289V109H221.652ZM235.809 109V96.6016H238.363V98.6758H238.445C238.641 97.957 238.992 97.3945 239.5 96.9883C240.016 96.5742 240.641 96.3672 241.375 96.3672C241.562 96.3672 241.738 96.3789 241.902 96.4023C242.066 96.418 242.199 96.4375 242.301 96.4609V98.8281C242.176 98.7812 242.008 98.7461 241.797 98.7227C241.586 98.6914 241.355 98.6758 241.105 98.6758C240.551 98.6758 240.066 98.793 239.652 99.0273C239.238 99.2617 238.918 99.5977 238.691 100.035C238.473 100.473 238.363 100.996 238.363 101.605V109H235.809ZM248.852 109.246C247.664 109.246 246.629 108.988 245.746 108.473C244.863 107.949 244.176 107.207 243.684 106.246C243.199 105.277 242.957 104.129 242.957 102.801V102.777C242.957 101.457 243.199 100.316 243.684 99.3555C244.176 98.3945 244.863 97.6562 245.746 97.1406C246.629 96.6172 247.66 96.3555 248.84 96.3555C250.027 96.3555 251.062 96.6172 251.945 97.1406C252.828 97.6562 253.512 98.3945 253.996 99.3555C254.488 100.309 254.734 101.449 254.734 102.777V102.801C254.734 104.137 254.488 105.285 253.996 106.246C253.512 107.207 252.828 107.949 251.945 108.473C251.07 108.988 250.039 109.246 248.852 109.246ZM248.863 107.113C249.535 107.113 250.113 106.945 250.598 106.609C251.09 106.266 251.469 105.773 251.734 105.133C252 104.492 252.133 103.715 252.133 102.801V102.777C252.133 101.871 251.996 101.098 251.723 100.457C251.457 99.8164 251.078 99.3281 250.586 98.9922C250.094 98.6562 249.512 98.4883 248.84 98.4883C248.184 98.4883 247.605 98.6602 247.105 99.0039C246.613 99.3398 246.23 99.8281 245.957 100.469C245.691 101.102 245.559 101.871 245.559 102.777V102.801C245.559 103.715 245.691 104.492 245.957 105.133C246.23 105.773 246.613 106.266 247.105 106.609C247.598 106.945 248.184 107.113 248.863 107.113ZM272.723 109V92.0898H275.77L281.219 105.566H281.324L286.773 92.0898H289.809V109H287.406V96.543H286.188L288.93 92.5586L282.238 109H280.305L273.613 92.5586L276.355 96.543H275.125V109H272.723ZM298.129 109.246C296.91 109.246 295.863 108.984 294.988 108.461C294.113 107.938 293.441 107.195 292.973 106.234C292.504 105.273 292.27 104.141 292.27 102.836V102.824C292.27 101.535 292.504 100.406 292.973 99.4375C293.449 98.4609 294.113 97.7031 294.965 97.1641C295.824 96.625 296.832 96.3555 297.988 96.3555C299.145 96.3555 300.141 96.6172 300.977 97.1406C301.82 97.6562 302.469 98.3828 302.922 99.3203C303.375 100.25 303.602 101.34 303.602 102.59V103.457H293.547V101.652H302.371L301.117 103.328V102.344C301.117 101.461 300.984 100.734 300.719 100.164C300.453 99.5859 300.086 99.1562 299.617 98.875C299.156 98.5859 298.617 98.4414 298 98.4414C297.391 98.4414 296.844 98.5898 296.359 98.8867C295.883 99.1836 295.508 99.625 295.234 100.211C294.961 100.789 294.824 101.5 294.824 102.344V103.328C294.824 104.133 294.961 104.82 295.234 105.391C295.508 105.961 295.895 106.398 296.395 106.703C296.895 107.008 297.488 107.16 298.176 107.16C298.684 107.16 299.129 107.086 299.512 106.938C299.902 106.781 300.223 106.578 300.473 106.328C300.73 106.078 300.91 105.805 301.012 105.508L301.035 105.414H303.473L303.438 105.543C303.336 106.012 303.145 106.469 302.863 106.914C302.59 107.352 302.227 107.75 301.773 108.109C301.32 108.461 300.789 108.738 300.18 108.941C299.57 109.145 298.887 109.246 298.129 109.246ZM310.363 109.234C309.316 109.234 308.402 108.973 307.621 108.449C306.848 107.926 306.246 107.184 305.816 106.223C305.395 105.254 305.184 104.113 305.184 102.801V102.789C305.184 101.469 305.398 100.328 305.828 99.3672C306.258 98.4062 306.859 97.668 307.633 97.1523C308.406 96.6289 309.309 96.3672 310.34 96.3672C310.926 96.3672 311.469 96.4609 311.969 96.6484C312.469 96.8359 312.91 97.1016 313.293 97.4453C313.684 97.7891 314 98.1992 314.242 98.6758H314.324V91.9375H316.867V109H314.324V106.926H314.242C314 107.41 313.688 107.824 313.305 108.168C312.93 108.504 312.492 108.766 311.992 108.953C311.5 109.141 310.957 109.234 310.363 109.234ZM311.043 107.055C311.699 107.055 312.273 106.883 312.766 106.539C313.258 106.188 313.641 105.691 313.914 105.051C314.195 104.41 314.336 103.66 314.336 102.801V102.789C314.336 101.93 314.195 101.184 313.914 100.551C313.633 99.9102 313.246 99.418 312.754 99.0742C312.27 98.7227 311.699 98.5469 311.043 98.5469C310.371 98.5469 309.789 98.7188 309.297 99.0625C308.812 99.4062 308.438 99.8945 308.172 100.527C307.914 101.16 307.785 101.914 307.785 102.789V102.801C307.785 103.676 307.914 104.434 308.172 105.074C308.438 105.715 308.812 106.207 309.297 106.551C309.789 106.887 310.371 107.055 311.043 107.055ZM319.762 109V96.6016H322.316V109H319.762ZM321.039 94.6328C320.625 94.6328 320.27 94.4883 319.973 94.1992C319.684 93.9102 319.539 93.5625 319.539 93.1562C319.539 92.7422 319.684 92.3906 319.973 92.1016C320.27 91.8125 320.625 91.668 321.039 91.668C321.461 91.668 321.816 91.8125 322.105 92.1016C322.395 92.3906 322.539 92.7422 322.539 93.1562C322.539 93.5625 322.395 93.9102 322.105 94.1992C321.816 94.4883 321.461 94.6328 321.039 94.6328ZM329.324 109.246C328.41 109.246 327.633 109.062 326.992 108.695C326.359 108.32 325.875 107.789 325.539 107.102C325.211 106.406 325.047 105.582 325.047 104.629V96.6016H327.59V104.125C327.59 105.07 327.805 105.797 328.234 106.305C328.664 106.805 329.324 107.055 330.215 107.055C330.668 107.055 331.074 106.98 331.434 106.832C331.801 106.676 332.113 106.457 332.371 106.176C332.637 105.895 332.836 105.559 332.969 105.168C333.102 104.77 333.168 104.328 333.168 103.844V96.6016H335.723V109H333.168V107.137H333.098C332.879 107.551 332.594 107.918 332.242 108.238C331.891 108.559 331.469 108.809 330.977 108.988C330.492 109.16 329.941 109.246 329.324 109.246ZM338.418 109V96.6016H340.973V98.5117H341.055C341.32 97.8633 341.75 97.3438 342.344 96.9531C342.945 96.5547 343.652 96.3555 344.465 96.3555C345.035 96.3555 345.547 96.4531 346 96.6484C346.461 96.8359 346.855 97.1094 347.184 97.4688C347.512 97.8203 347.758 98.2539 347.922 98.7695H348.004C348.215 98.2695 348.508 97.8398 348.883 97.4805C349.266 97.1211 349.707 96.8438 350.207 96.6484C350.715 96.4531 351.262 96.3555 351.848 96.3555C352.668 96.3555 353.379 96.5273 353.98 96.8711C354.59 97.207 355.059 97.6836 355.387 98.3008C355.723 98.9102 355.891 99.6328 355.891 100.469V109H353.336V101.078C353.336 100.531 353.242 100.07 353.055 99.6953C352.875 99.3203 352.609 99.0352 352.258 98.8398C351.914 98.6445 351.484 98.5469 350.969 98.5469C350.461 98.5469 350.012 98.6641 349.621 98.8984C349.238 99.125 348.938 99.4414 348.719 99.8477C348.508 100.246 348.402 100.707 348.402 101.23V109H345.895V100.891C345.895 100.406 345.797 99.9883 345.602 99.6367C345.414 99.2852 345.145 99.0156 344.793 98.8281C344.449 98.6406 344.035 98.5469 343.551 98.5469C343.051 98.5469 342.605 98.668 342.215 98.9102C341.832 99.1523 341.527 99.4844 341.301 99.9062C341.082 100.328 340.973 100.809 340.973 101.348V109H338.418Z" fill="#333333"/>
<path d="M194.266 153.305C193.047 153.305 191.973 153.113 191.043 152.73C190.121 152.348 189.391 151.805 188.852 151.102C188.312 150.398 188.004 149.57 187.926 148.617L187.914 148.453H190.023L190.047 148.617C190.125 149.18 190.352 149.668 190.727 150.082C191.102 150.488 191.602 150.805 192.227 151.031C192.852 151.25 193.57 151.359 194.383 151.359C195.188 151.359 195.887 151.242 196.48 151.008C197.074 150.773 197.535 150.441 197.863 150.012C198.191 149.582 198.355 149.078 198.355 148.5V148.488C198.355 147.754 198.098 147.16 197.582 146.707C197.066 146.254 196.227 145.898 195.062 145.641L193.188 145.23C191.531 144.863 190.309 144.297 189.52 143.531C188.73 142.766 188.336 141.766 188.336 140.531V140.52C188.344 139.59 188.602 138.77 189.109 138.059C189.617 137.348 190.316 136.793 191.207 136.395C192.105 135.988 193.133 135.785 194.289 135.785C195.398 135.785 196.387 135.984 197.254 136.383C198.121 136.781 198.812 137.328 199.328 138.023C199.844 138.719 200.133 139.523 200.195 140.438L200.207 140.602H198.098L198.074 140.449C197.988 139.879 197.777 139.395 197.441 138.996C197.113 138.59 196.676 138.277 196.129 138.059C195.59 137.84 194.957 137.73 194.23 137.73C193.488 137.73 192.836 137.844 192.273 138.07C191.711 138.297 191.273 138.613 190.961 139.02C190.648 139.426 190.492 139.906 190.492 140.461V140.473C190.492 141.16 190.75 141.727 191.266 142.172C191.789 142.617 192.605 142.965 193.715 143.215L195.59 143.625C196.754 143.875 197.695 144.207 198.414 144.621C199.141 145.035 199.672 145.547 200.008 146.156C200.344 146.766 200.512 147.496 200.512 148.348V148.359C200.512 149.367 200.258 150.242 199.75 150.984C199.25 151.727 198.531 152.301 197.594 152.707C196.656 153.105 195.547 153.305 194.266 153.305ZM203.172 153V136.09H213.438V137.988H205.281V143.801H212.77V145.676H205.281V153H203.172ZM222.344 146.965V145.09H226.832C228.043 145.09 228.98 144.777 229.645 144.152C230.309 143.52 230.641 142.648 230.641 141.539V141.516C230.641 140.398 230.309 139.527 229.645 138.902C228.98 138.277 228.043 137.965 226.832 137.965H222.344V136.09H227.371C228.434 136.09 229.371 136.316 230.184 136.77C230.996 137.223 231.633 137.855 232.094 138.668C232.562 139.48 232.797 140.422 232.797 141.492V141.516C232.797 142.586 232.562 143.531 232.094 144.352C231.633 145.172 230.996 145.812 230.184 146.273C229.371 146.734 228.434 146.965 227.371 146.965H222.344ZM221.289 153V136.09H223.398V153H221.289ZM235.094 153V140.73H237.133V142.758H237.203C237.414 142.062 237.777 141.512 238.293 141.105C238.809 140.699 239.422 140.496 240.133 140.496C240.32 140.496 240.488 140.508 240.637 140.531C240.793 140.547 240.914 140.562 241 140.578V142.559C240.891 142.527 240.734 142.5 240.531 142.477C240.336 142.453 240.117 142.441 239.875 142.441C239.328 142.441 238.848 142.562 238.434 142.805C238.02 143.039 237.699 143.379 237.473 143.824C237.246 144.27 237.133 144.801 237.133 145.418V153H235.094ZM247.34 153.234C246.199 153.234 245.203 152.977 244.352 152.461C243.5 151.938 242.836 151.199 242.359 150.246C241.891 149.293 241.656 148.168 241.656 146.871V146.848C241.656 145.535 241.891 144.406 242.359 143.461C242.836 142.516 243.5 141.785 244.352 141.27C245.203 140.754 246.195 140.496 247.328 140.496C248.469 140.496 249.465 140.754 250.316 141.27C251.168 141.785 251.828 142.516 252.297 143.461C252.773 144.406 253.012 145.535 253.012 146.848V146.871C253.012 148.176 252.773 149.305 252.297 150.258C251.828 151.203 251.168 151.938 250.316 152.461C249.473 152.977 248.48 153.234 247.34 153.234ZM247.352 151.43C248.086 151.43 248.719 151.25 249.25 150.891C249.781 150.531 250.191 150.012 250.48 149.332C250.777 148.652 250.926 147.832 250.926 146.871V146.848C250.926 145.887 250.777 145.066 250.48 144.387C250.191 143.707 249.777 143.191 249.238 142.84C248.699 142.48 248.062 142.301 247.328 142.301C246.609 142.301 245.98 142.48 245.441 142.84C244.902 143.199 244.484 143.719 244.188 144.398C243.891 145.07 243.742 145.887 243.742 146.848V146.871C243.742 147.832 243.891 148.652 244.188 149.332C244.484 150.012 244.902 150.531 245.441 150.891C245.98 151.25 246.617 151.43 247.352 151.43ZM260.828 153V136.09H267.191C268.277 136.09 269.223 136.301 270.027 136.723C270.84 137.137 271.469 137.723 271.914 138.48C272.359 139.23 272.582 140.113 272.582 141.129V141.152C272.582 142.324 272.277 143.34 271.668 144.199C271.066 145.051 270.238 145.645 269.184 145.98L273.098 153H270.625L267.004 146.309C266.98 146.309 266.957 146.309 266.934 146.309C266.918 146.309 266.898 146.309 266.875 146.309H262.938V153H260.828ZM262.938 144.445H267.004C268.09 144.445 268.926 144.164 269.512 143.602C270.105 143.039 270.402 142.238 270.402 141.199V141.176C270.402 140.168 270.09 139.383 269.465 138.82C268.848 138.25 267.996 137.965 266.91 137.965H262.938V144.445ZM280.117 153.234C278.945 153.234 277.938 152.977 277.094 152.461C276.25 151.938 275.602 151.203 275.148 150.258C274.695 149.312 274.469 148.199 274.469 146.918V146.906C274.469 145.633 274.695 144.516 275.148 143.555C275.609 142.594 276.25 141.844 277.07 141.305C277.898 140.766 278.871 140.496 279.988 140.496C281.105 140.496 282.066 140.754 282.871 141.27C283.676 141.785 284.293 142.508 284.723 143.438C285.16 144.359 285.379 145.434 285.379 146.66V147.422H275.5V145.828H284.359L283.328 147.305V146.508C283.328 145.555 283.184 144.77 282.895 144.152C282.613 143.527 282.219 143.062 281.711 142.758C281.211 142.453 280.633 142.301 279.977 142.301C279.32 142.301 278.73 142.461 278.207 142.781C277.691 143.102 277.285 143.574 276.988 144.199C276.691 144.824 276.543 145.594 276.543 146.508V147.305C276.543 148.172 276.688 148.914 276.977 149.531C277.273 150.141 277.691 150.609 278.23 150.938C278.777 151.266 279.422 151.43 280.164 151.43C280.688 151.43 281.152 151.352 281.559 151.195C281.973 151.039 282.316 150.828 282.59 150.562C282.863 150.289 283.059 149.984 283.176 149.648L283.211 149.543H285.227L285.203 149.66C285.094 150.145 284.898 150.605 284.617 151.043C284.336 151.473 283.973 151.852 283.527 152.18C283.082 152.508 282.57 152.766 281.992 152.953C281.422 153.141 280.797 153.234 280.117 153.234ZM292.809 157.359C291.801 157.359 290.922 157.215 290.172 156.926C289.43 156.645 288.828 156.254 288.367 155.754C287.914 155.262 287.625 154.707 287.5 154.09L287.477 154.008H289.539L289.586 154.09C289.766 154.535 290.133 154.891 290.688 155.156C291.242 155.422 291.941 155.555 292.785 155.555C293.863 155.555 294.699 155.281 295.293 154.734C295.895 154.195 296.195 153.453 296.195 152.508V150.773H296.125C295.875 151.227 295.555 151.617 295.164 151.945C294.781 152.273 294.34 152.527 293.84 152.707C293.348 152.887 292.809 152.977 292.223 152.977C291.191 152.977 290.285 152.719 289.504 152.203C288.723 151.68 288.113 150.949 287.676 150.012C287.246 149.074 287.031 147.98 287.031 146.73V146.719C287.031 145.469 287.25 144.379 287.688 143.449C288.133 142.52 288.746 141.797 289.527 141.281C290.316 140.758 291.23 140.496 292.27 140.496C292.855 140.496 293.391 140.594 293.875 140.789C294.359 140.984 294.793 141.254 295.176 141.598C295.559 141.941 295.875 142.34 296.125 142.793H296.184V140.73H298.223V152.695C298.223 153.633 298.004 154.449 297.566 155.145C297.129 155.848 296.504 156.391 295.691 156.773C294.879 157.164 293.918 157.359 292.809 157.359ZM292.668 151.172C293.379 151.172 293.996 150.988 294.52 150.621C295.051 150.246 295.465 149.727 295.762 149.062C296.059 148.398 296.207 147.621 296.207 146.73V146.719C296.207 145.836 296.059 145.062 295.762 144.398C295.465 143.734 295.051 143.219 294.52 142.852C293.996 142.484 293.379 142.301 292.668 142.301C291.941 142.301 291.309 142.484 290.77 142.852C290.238 143.211 289.828 143.723 289.539 144.387C289.258 145.051 289.117 145.828 289.117 146.719V146.73C289.117 147.637 289.258 148.422 289.539 149.086C289.828 149.75 290.238 150.266 290.77 150.633C291.309 150.992 291.941 151.172 292.668 151.172ZM305.266 153.234C304.367 153.234 303.602 153.051 302.969 152.684C302.336 152.316 301.852 151.793 301.516 151.113C301.188 150.434 301.023 149.625 301.023 148.688V140.73H303.062V148.301C303.062 149.324 303.293 150.102 303.754 150.633C304.215 151.164 304.922 151.43 305.875 151.43C306.367 151.43 306.809 151.348 307.199 151.184C307.598 151.02 307.938 150.785 308.219 150.48C308.5 150.176 308.715 149.812 308.863 149.391C309.012 148.961 309.086 148.484 309.086 147.961V140.73H311.125V153H309.086V151.242H309.016C308.797 151.625 308.512 151.969 308.16 152.273C307.816 152.57 307.402 152.805 306.918 152.977C306.434 153.148 305.883 153.234 305.266 153.234ZM314.09 153V135.961H316.129V153H314.09ZM322.633 153.234C321.836 153.234 321.129 153.082 320.512 152.777C319.895 152.473 319.414 152.043 319.07 151.488C318.727 150.926 318.555 150.277 318.555 149.543V149.52C318.555 148.809 318.727 148.199 319.07 147.691C319.422 147.176 319.93 146.77 320.594 146.473C321.266 146.176 322.07 146 323.008 145.945L327.543 145.676V147.27L323.242 147.539C322.406 147.586 321.762 147.781 321.309 148.125C320.863 148.469 320.641 148.93 320.641 149.508V149.531C320.641 150.125 320.863 150.598 321.309 150.949C321.762 151.293 322.355 151.465 323.09 151.465C323.738 151.465 324.32 151.328 324.836 151.055C325.352 150.781 325.762 150.41 326.066 149.941C326.371 149.473 326.523 148.945 326.523 148.359V144.691C326.523 143.949 326.289 143.367 325.82 142.945C325.352 142.516 324.684 142.301 323.816 142.301C323.043 142.301 322.414 142.465 321.93 142.793C321.453 143.121 321.152 143.555 321.027 144.094L321.004 144.188H319.023L319.035 144.07C319.105 143.398 319.34 142.793 319.738 142.254C320.145 141.715 320.695 141.289 321.391 140.977C322.086 140.656 322.906 140.496 323.852 140.496C324.828 140.496 325.664 140.664 326.359 141C327.062 141.328 327.605 141.793 327.988 142.395C328.371 142.996 328.562 143.711 328.562 144.539V153H326.523V151.043H326.453C326.211 151.488 325.895 151.875 325.504 152.203C325.113 152.531 324.676 152.785 324.191 152.965C323.707 153.145 323.188 153.234 322.633 153.234ZM331.375 153V140.73H333.414V142.758H333.484C333.695 142.062 334.059 141.512 334.574 141.105C335.09 140.699 335.703 140.496 336.414 140.496C336.602 140.496 336.77 140.508 336.918 140.531C337.074 140.547 337.195 140.562 337.281 140.578V142.559C337.172 142.527 337.016 142.5 336.812 142.477C336.617 142.453 336.398 142.441 336.156 142.441C335.609 142.441 335.129 142.562 334.715 142.805C334.301 143.039 333.98 143.379 333.754 143.824C333.527 144.27 333.414 144.801 333.414 145.418V153H331.375Z" fill="#333333"/>
<path d="M194.113 197.281C192.918 197.281 191.863 197.09 190.949 196.707C190.043 196.324 189.32 195.781 188.781 195.078C188.25 194.375 187.949 193.555 187.879 192.617L187.867 192.465H189.461L189.484 192.617C189.555 193.258 189.793 193.82 190.199 194.305C190.613 194.781 191.16 195.152 191.84 195.418C192.527 195.676 193.312 195.805 194.195 195.805C195.07 195.805 195.836 195.672 196.492 195.406C197.148 195.141 197.656 194.766 198.016 194.281C198.383 193.789 198.566 193.219 198.566 192.57V192.559C198.566 191.738 198.281 191.078 197.711 190.578C197.141 190.07 196.199 189.668 194.887 189.371L193.059 188.961C191.418 188.594 190.211 188.043 189.438 187.309C188.672 186.574 188.289 185.609 188.289 184.414V184.402C188.297 183.504 188.547 182.711 189.039 182.023C189.531 181.336 190.211 180.797 191.078 180.406C191.945 180.008 192.938 179.809 194.055 179.809C195.148 179.809 196.117 180.004 196.961 180.395C197.812 180.785 198.492 181.328 199 182.023C199.516 182.719 199.805 183.52 199.867 184.426L199.879 184.578H198.297L198.273 184.426C198.195 183.785 197.969 183.23 197.594 182.762C197.219 182.293 196.727 181.93 196.117 181.672C195.516 181.414 194.812 181.285 194.008 181.285C193.203 181.285 192.492 181.414 191.875 181.672C191.258 181.93 190.777 182.289 190.434 182.75C190.09 183.211 189.918 183.746 189.918 184.355V184.379C189.918 185.152 190.203 185.789 190.773 186.289C191.344 186.781 192.246 187.168 193.48 187.449L195.309 187.859C196.465 188.117 197.402 188.449 198.121 188.855C198.84 189.254 199.363 189.75 199.691 190.344C200.027 190.938 200.195 191.645 200.195 192.465V192.477C200.195 193.453 199.945 194.301 199.445 195.02C198.945 195.738 198.238 196.297 197.324 196.695C196.418 197.086 195.348 197.281 194.113 197.281ZM202.75 197V180.09H212.805V181.531H204.344V187.895H212.125V189.312H204.344V197H202.75ZM221.383 190.625V189.195H226.012C227.316 189.195 228.336 188.855 229.07 188.176C229.812 187.496 230.184 186.559 230.184 185.363V185.34C230.184 184.145 229.812 183.211 229.07 182.539C228.336 181.859 227.316 181.52 226.012 181.52H221.383V180.09H226.375C227.453 180.09 228.398 180.309 229.211 180.746C230.023 181.176 230.66 181.785 231.121 182.574C231.582 183.363 231.812 184.281 231.812 185.328V185.352C231.812 186.398 231.582 187.32 231.121 188.117C230.66 188.906 230.023 189.523 229.211 189.969C228.398 190.406 227.453 190.625 226.375 190.625H221.383ZM220.586 197V180.09H222.18V197H220.586ZM234.203 197V184.73H235.75V186.91H235.809C236.027 186.16 236.402 185.574 236.934 185.152C237.473 184.73 238.121 184.52 238.879 184.52C239.09 184.52 239.281 184.535 239.453 184.566C239.633 184.59 239.777 184.617 239.887 184.648V186.16C239.762 186.113 239.594 186.074 239.383 186.043C239.18 186.004 238.945 185.984 238.68 185.984C238.094 185.984 237.578 186.125 237.133 186.406C236.695 186.688 236.355 187.086 236.113 187.602C235.871 188.109 235.75 188.707 235.75 189.395V197H234.203ZM246.062 197.223C244.945 197.215 243.969 196.953 243.133 196.438C242.297 195.922 241.645 195.191 241.176 194.246C240.715 193.293 240.484 192.168 240.484 190.871V190.848C240.484 189.543 240.715 188.418 241.176 187.473C241.645 186.527 242.297 185.801 243.133 185.293C243.969 184.777 244.945 184.52 246.062 184.52C247.18 184.52 248.156 184.777 248.992 185.293C249.836 185.801 250.488 186.527 250.949 187.473C251.418 188.418 251.652 189.543 251.652 190.848V190.871C251.652 192.168 251.418 193.293 250.949 194.246C250.488 195.199 249.84 195.934 249.004 196.449C248.168 196.965 247.188 197.223 246.062 197.223ZM246.074 195.84C246.887 195.84 247.59 195.641 248.184 195.242C248.785 194.844 249.25 194.273 249.578 193.531C249.914 192.789 250.082 191.902 250.082 190.871V190.848C250.082 189.809 249.914 188.922 249.578 188.188C249.25 187.445 248.785 186.879 248.184 186.488C247.582 186.09 246.875 185.891 246.062 185.891C245.258 185.891 244.555 186.09 243.953 186.488C243.352 186.879 242.883 187.445 242.547 188.188C242.219 188.922 242.055 189.809 242.055 190.848V190.871C242.055 191.902 242.219 192.789 242.547 193.531C242.883 194.273 243.352 194.844 243.953 195.242C244.555 195.641 245.262 195.84 246.074 195.84ZM259.398 197V180.09H260.992V195.559H269.465V197H259.398ZM271.785 197V184.73H273.332V197H271.785ZM272.57 182.457C272.281 182.457 272.031 182.355 271.82 182.152C271.617 181.941 271.516 181.691 271.516 181.402C271.516 181.113 271.617 180.867 271.82 180.664C272.031 180.461 272.281 180.359 272.57 180.359C272.859 180.359 273.105 180.461 273.309 180.664C273.512 180.867 273.613 181.113 273.613 181.402C273.613 181.691 273.512 181.941 273.309 182.152C273.105 182.355 272.859 182.457 272.57 182.457ZM281.441 201.336C280.48 201.336 279.641 201.199 278.922 200.926C278.211 200.652 277.633 200.277 277.188 199.801C276.75 199.324 276.461 198.797 276.32 198.219L276.309 198.137H277.867L277.914 198.219C278.102 198.727 278.5 199.145 279.109 199.473C279.719 199.801 280.492 199.965 281.43 199.965C282.609 199.965 283.527 199.66 284.184 199.051C284.848 198.449 285.18 197.629 285.18 196.59V194.316H285.121C284.902 194.855 284.59 195.328 284.184 195.734C283.777 196.141 283.301 196.461 282.754 196.695C282.207 196.922 281.605 197.035 280.949 197.035C279.918 197.035 279.012 196.773 278.23 196.25C277.449 195.727 276.84 194.996 276.402 194.059C275.973 193.121 275.758 192.027 275.758 190.777V190.754C275.758 189.504 275.977 188.414 276.414 187.484C276.852 186.547 277.461 185.82 278.242 185.305C279.031 184.781 279.941 184.52 280.973 184.52C281.629 184.52 282.227 184.641 282.766 184.883C283.305 185.117 283.773 185.445 284.172 185.867C284.578 186.289 284.895 186.773 285.121 187.32H285.168V184.73H286.715V196.719C286.715 197.648 286.5 198.457 286.07 199.145C285.641 199.84 285.031 200.379 284.242 200.762C283.453 201.145 282.52 201.336 281.441 201.336ZM281.254 195.652C282.035 195.652 282.719 195.449 283.305 195.043C283.898 194.637 284.359 194.066 284.688 193.332C285.016 192.598 285.18 191.746 285.18 190.777V190.766C285.18 189.789 285.016 188.938 284.688 188.211C284.359 187.477 283.898 186.906 283.305 186.5C282.711 186.094 282.027 185.891 281.254 185.891C280.457 185.891 279.766 186.094 279.18 186.5C278.594 186.906 278.137 187.473 277.809 188.199C277.488 188.926 277.328 189.777 277.328 190.754V190.777C277.328 191.762 277.488 192.621 277.809 193.355C278.129 194.082 278.582 194.648 279.168 195.055C279.762 195.453 280.457 195.652 281.254 195.652ZM289.738 197V179.961H291.285V186.957H291.344C291.656 186.215 292.156 185.625 292.844 185.188C293.531 184.742 294.359 184.52 295.328 184.52C296.227 184.52 297.004 184.719 297.66 185.117C298.316 185.508 298.824 186.066 299.184 186.793C299.551 187.52 299.734 188.379 299.734 189.371V197H298.188V189.641C298.188 188.438 297.895 187.512 297.309 186.863C296.723 186.215 295.902 185.891 294.848 185.891C294.145 185.891 293.523 186.055 292.984 186.383C292.445 186.711 292.027 187.164 291.73 187.742C291.434 188.32 291.285 188.992 291.285 189.758V197H289.738ZM306.297 197.199C305.258 197.199 304.488 196.953 303.988 196.461C303.488 195.961 303.238 195.172 303.238 194.094V186.031H301.398V184.73H303.238V181.438H304.832V184.73H307.316V186.031H304.832V194C304.832 194.695 304.977 195.184 305.266 195.465C305.555 195.746 305.996 195.887 306.59 195.887C306.73 195.887 306.863 195.883 306.988 195.875C307.113 195.859 307.223 195.844 307.316 195.828V197.105C307.191 197.129 307.039 197.148 306.859 197.164C306.68 197.188 306.492 197.199 306.297 197.199Z" fill="#333333"/>
</svg>
