<?xml version="1.0" encoding="UTF-8"?>
<svg id="_レイヤー_2" data-name="レイヤー 2" xmlns="http://www.w3.org/2000/svg" viewBox="0 0 585.65 241.85">
  <defs>
    <style>
      .cls-1, .cls-2 {
        fill: #2b2b2b;
      }

      .cls-3 {
        stroke-width: .75px;
      }

      .cls-3, .cls-4, .cls-5, .cls-2, .cls-6, .cls-7, .cls-8, .cls-9 {
        stroke-miterlimit: 10;
      }

      .cls-3, .cls-4, .cls-5, .cls-6, .cls-7, .cls-8, .cls-9 {
        fill: none;
        stroke: #faca7d;
      }

      .cls-5 {
        stroke-width: .63px;
      }

      .cls-10 {
        fill: #faca7d;
      }

      .cls-2 {
        stroke: #2b2b2b;
      }

      .cls-2, .cls-6, .cls-7, .cls-8, .cls-9 {
        stroke-width: .5px;
      }

      .cls-6 {
        stroke-dasharray: 2.12 2.12;
      }

      .cls-6, .cls-7, .cls-8, .cls-9 {
        stroke-linecap: square;
      }

      .cls-8 {
        stroke-dasharray: 2.07 2.07;
      }

      .cls-9 {
        stroke-dasharray: 2.07 2.07;
      }
    </style>
  </defs>
  <g id="logo-guide">
    <line class="cls-7" x1="22.15" y1="100.81" x2="22.15" y2="189.26"/>
    <path class="cls-10" d="M.5,152.69l5.2-14.62h2.75l5.3,14.62h-2.42l-2.85-8.14c-.22-.66-.47-1.44-.73-2.34-.26-.9-.57-1.97-.92-3.23h.45c-.33,1.27-.63,2.36-.9,3.26-.26.91-.5,1.67-.7,2.3l-2.76,8.14H.5ZM3.32,148.83v-1.86h7.61v1.86H3.32Z"/>
    <g>
      <line class="cls-7" x1="22.15" y1="100.81" x2="23.15" y2="100.81"/>
      <line class="cls-9" x1="25.22" y1="100.81" x2="40.78" y2="100.81"/>
      <line class="cls-7" x1="41.82" y1="100.81" x2="42.82" y2="100.81"/>
    </g>
    <g>
      <line class="cls-7" x1="22.15" y1="189.31" x2="23.15" y2="189.31"/>
      <line class="cls-9" x1="25.22" y1="189.31" x2="40.78" y2="189.31"/>
      <line class="cls-7" x1="41.82" y1="189.31" x2="42.82" y2="189.31"/>
    </g>
    <line class="cls-7" x1="244.37" y1="25.27" x2="189.96" y2="25.27"/>
    <path class="cls-10" d="M211.17,17.36V2.74h5.39c1.04,0,1.9.17,2.58.51s1.19.8,1.52,1.38c.33.58.5,1.23.5,1.95,0,.61-.11,1.12-.33,1.54s-.52.75-.9,1c-.38.25-.79.44-1.24.55v.15c.49.02.97.18,1.43.47.46.29.85.7,1.15,1.23.3.53.46,1.17.46,1.92s-.17,1.41-.52,2c-.35.6-.89,1.07-1.61,1.41-.73.35-1.66.52-2.8.52h-5.62ZM213.4,9.07h2.93c.49,0,.94-.09,1.33-.28.4-.19.71-.46.94-.8.23-.35.34-.75.34-1.22,0-.6-.21-1.1-.63-1.51s-1.06-.6-1.93-.6h-2.99v4.42ZM213.4,15.44h3.16c1.05,0,1.8-.2,2.26-.61.46-.41.69-.91.69-1.51,0-.47-.12-.9-.35-1.28-.23-.38-.56-.68-.99-.91-.42-.23-.93-.34-1.52-.34h-3.25v4.64Z"/>
    <g>
      <line class="cls-7" x1="244.37" y1="25.27" x2="244.37" y2="26.27"/>
      <line class="cls-6" x1="244.37" y1="28.39" x2="244.37" y2="44.28"/>
      <line class="cls-7" x1="244.37" y1="45.34" x2="244.37" y2="46.34"/>
    </g>
    <g>
      <line class="cls-7" x1="189.96" y1="25.27" x2="189.96" y2="26.27"/>
      <line class="cls-6" x1="189.96" y1="28.39" x2="189.96" y2="44.28"/>
      <line class="cls-7" x1="189.96" y1="45.34" x2="189.96" y2="46.34"/>
    </g>
    <line class="cls-7" x1="187.3" y1="210.11" x2="42.82" y2="210.11"/>
    <g>
      <path class="cls-10" d="M102.86,220.76v14.62h-2.22v-12.59h-.1l-3.47,2.53v-2.25l3.2-2.32h2.59Z"/>
      <path class="cls-10" d="M107.73,235.52c-.41,0-.75-.14-1.03-.42s-.42-.62-.42-1.03.14-.74.42-1.02c.28-.28.62-.42,1.03-.42s.74.14,1.02.42c.28.28.42.62.42,1.02s-.14.75-.42,1.03c-.28.28-.62.42-1.02.42Z"/>
      <path class="cls-10" d="M116.97,235.57c-.65,0-1.3-.12-1.94-.35-.64-.23-1.21-.61-1.73-1.15s-.92-1.25-1.23-2.15-.46-2.02-.46-3.37c0-1.27.13-2.4.38-3.39.25-.99.62-1.83,1.11-2.51s1.07-1.21,1.75-1.57,1.45-.53,2.31-.53,1.63.17,2.31.52c.68.34,1.23.82,1.66,1.42.43.6.69,1.29.8,2.07h-2.2c-.15-.6-.44-1.08-.88-1.47s-1-.57-1.69-.57-1.32.21-1.83.63c-.51.42-.89,1.02-1.16,1.8-.26.78-.4,1.73-.4,2.83h.11c.25-.41.56-.77.92-1.06.37-.3.78-.53,1.24-.68.46-.16.95-.24,1.46-.24.85,0,1.62.2,2.31.61.69.41,1.23.98,1.64,1.7.41.73.61,1.55.61,2.48s-.21,1.78-.64,2.53c-.43.75-1.02,1.35-1.78,1.79-.76.44-1.65.66-2.67.66ZM116.96,233.69c.56,0,1.05-.14,1.49-.41s.79-.64,1.04-1.1c.26-.46.39-.98.39-1.55s-.12-1.07-.37-1.53c-.25-.45-.59-.82-1.03-1.08-.43-.27-.93-.4-1.49-.4-.42,0-.81.08-1.16.24-.36.16-.67.38-.94.67s-.48.61-.63.97c-.15.36-.23.75-.23,1.15,0,.54.13,1.05.38,1.51.25.46.6.83,1.04,1.11s.94.42,1.5.42Z"/>
      <path class="cls-10" d="M125.06,235.38v-14.62h5.39c1.04,0,1.9.17,2.58.51s1.19.8,1.52,1.38c.33.58.5,1.23.5,1.95,0,.61-.11,1.12-.33,1.54s-.52.75-.9,1c-.38.25-.79.44-1.24.55v.15c.49.02.97.18,1.43.47.46.29.85.7,1.15,1.23.3.53.46,1.17.46,1.92s-.17,1.41-.52,2c-.35.6-.89,1.07-1.61,1.41-.73.35-1.66.52-2.8.52h-5.62ZM127.3,227.08h2.93c.49,0,.94-.09,1.33-.28.4-.19.71-.46.94-.8.23-.35.34-.75.34-1.22,0-.6-.21-1.1-.63-1.51s-1.06-.6-1.93-.6h-2.99v4.42ZM127.3,233.45h3.16c1.05,0,1.8-.2,2.26-.61.46-.41.69-.91.69-1.51,0-.47-.12-.9-.35-1.28-.23-.38-.56-.68-.99-.91-.42-.23-.93-.34-1.52-.34h-3.25v4.64Z"/>
    </g>
    <g>
      <line class="cls-7" x1="189.96" y1="189.04" x2="189.96" y2="190.04"/>
      <line class="cls-6" x1="189.96" y1="192.16" x2="189.96" y2="208.05"/>
      <line class="cls-7" x1="189.96" y1="209.11" x2="189.96" y2="210.11"/>
    </g>
    <g>
      <line class="cls-7" x1="42.82" y1="189.04" x2="42.82" y2="190.04"/>
      <line class="cls-6" x1="42.82" y1="192.16" x2="42.82" y2="208.05"/>
      <line class="cls-7" x1="42.82" y1="209.11" x2="42.82" y2="210.11"/>
    </g>
    <line class="cls-3" x1="42.82" y1="46.34" x2="515.97" y2="46.34"/>
    <line class="cls-5" x1="42.82" y1="189.04" x2="515.97" y2="189.04"/>
    <line class="cls-4" x1="42.82" y1="100.81" x2="515.97" y2="100.81"/>
    <line class="cls-4" x1="42.82" y1="134.94" x2="515.97" y2="134.94"/>
    <line class="cls-4" x1="42.82" y1="155.64" x2="515.97" y2="155.64"/>
    <line class="cls-4" x1="42.82" y1="46.34" x2="42.82" y2="189.04"/>
    <line class="cls-4" x1="189.96" y1="46.34" x2="189.96" y2="189.04"/>
    <line class="cls-4" x1="244.37" y1="46.34" x2="244.37" y2="189.04"/>
    <line class="cls-4" x1="515.97" y1="189.04" x2="515.97" y2="46.34"/>
    <line class="cls-7" x1="536.65" y1="46.34" x2="536.65" y2="189.04"/>
    <g>
      <path class="cls-10" d="M551.27,115.36v14.62h-2.22v-12.59h-.1l-3.47,2.53v-2.25l3.2-2.32h2.59Z"/>
      <path class="cls-10" d="M556.14,130.13c-.41,0-.75-.14-1.03-.42s-.42-.62-.42-1.03.14-.74.42-1.02c.28-.28.62-.42,1.03-.42s.74.14,1.02.42c.28.28.42.62.42,1.02s-.14.75-.42,1.03c-.28.28-.62.42-1.02.42Z"/>
      <path class="cls-10" d="M565.37,130.18c-.65,0-1.3-.12-1.94-.35-.64-.23-1.21-.61-1.73-1.15s-.92-1.25-1.23-2.15-.46-2.02-.46-3.37c0-1.27.13-2.4.38-3.39.25-.99.62-1.83,1.11-2.51s1.07-1.21,1.75-1.57,1.45-.53,2.31-.53,1.63.17,2.31.52c.68.34,1.23.82,1.66,1.42.43.6.69,1.29.8,2.07h-2.2c-.15-.6-.44-1.08-.88-1.47s-1-.57-1.69-.57-1.32.21-1.83.63c-.51.42-.89,1.02-1.16,1.8-.26.78-.4,1.73-.4,2.83h.11c.25-.41.56-.77.92-1.06.37-.3.78-.53,1.24-.68.46-.16.95-.24,1.46-.24.85,0,1.62.2,2.31.61.69.41,1.23.98,1.64,1.7.41.73.61,1.55.61,2.48s-.21,1.78-.64,2.53c-.43.75-1.02,1.35-1.78,1.79-.76.44-1.65.66-2.67.66ZM565.36,128.3c.56,0,1.05-.14,1.49-.41s.79-.64,1.04-1.1c.26-.46.39-.98.39-1.55s-.12-1.07-.37-1.53c-.25-.45-.59-.82-1.03-1.08-.43-.27-.93-.4-1.49-.4-.42,0-.81.08-1.16.24-.36.16-.67.38-.94.67s-.48.61-.63.97c-.15.36-.23.75-.23,1.15,0,.54.13,1.05.38,1.51.25.46.6.83,1.04,1.11s.94.42,1.5.42Z"/>
      <path class="cls-10" d="M571.91,129.99l5.2-14.62h2.75l5.3,14.62h-2.42l-2.85-8.14c-.22-.66-.47-1.44-.73-2.34-.26-.9-.57-1.97-.92-3.23h.45c-.33,1.27-.63,2.36-.9,3.26-.26.91-.5,1.67-.7,2.3l-2.76,8.14h-2.42ZM574.72,126.13v-1.86h7.61v1.86h-7.61Z"/>
    </g>
    <g>
      <line class="cls-7" x1="515.97" y1="46.34" x2="516.97" y2="46.34"/>
      <line class="cls-8" x1="519.05" y1="46.34" x2="534.61" y2="46.34"/>
      <line class="cls-7" x1="535.65" y1="46.34" x2="536.65" y2="46.34"/>
    </g>
    <g>
      <line class="cls-7" x1="515.97" y1="188.94" x2="516.97" y2="188.94"/>
      <line class="cls-8" x1="519.05" y1="188.94" x2="534.61" y2="188.94"/>
      <line class="cls-7" x1="535.65" y1="188.94" x2="536.65" y2="188.94"/>
    </g>
  </g>
  <g id="logo">
    <g>
      <path class="cls-1" d="M189.09,140.17c0-3.3.09-3.3.09-6.59s.2-3.3.2-6.59-.31-3.3-.31-6.59.73-3.3.73-6.59-.35-3.29-.35-6.59c0-3.55-.63-3.55-.63-7.11s-.04-3.55-.04-7.11.39-3.55.39-7.11.3-3.55.3-7.11c0-2.2-.42-4.34-1.17-6.23-.79-1.99-2.23-3.6-3.66-5.11-1.45-1.53-3.15-2.72-5.05-3.61-1.88-.88-3.9-1.04-6.03-1.16-2.03-.11-4.25-.84-6.33-.14-3.26,1.09-3.31.95-6.58,2.04-3.26,1.09-2.95,2.04-6.21,3.13-3.26,1.09-3.59.1-6.86,1.19-3.26,1.09-2.96,2.01-6.22,3.1-3.26,1.09-3.51.35-6.78,1.44-3.26,1.09-3.08,1.65-6.34,2.74-3.26,1.09-3.38.74-6.65,1.83-1.71.57-3.41,1.06-5.19,1.06s-3.6-.13-5.31-.7c-3.26-1.09-3.2-1.29-6.46-2.38-3.26-1.09-3.18-1.34-6.45-2.43-3.26-1.09-3.44-.58-6.7-1.67-3.26-1.09-3.28-1.03-6.55-2.12-3.26-1.09-3.25-1.13-6.51-2.22-3.26-1.09-3-1.89-6.26-2.98-3.26-1.09-3.43-.58-6.7-1.67-2.08-.7-4.24-1.33-6.27-1.22-2.13.12-4.12,1.21-6.01,2.09-1.91.89-3.75,1.98-5.2,3.5-1.43,1.51-2.19,3.49-2.98,5.48-.75,1.89-2.05,3.83-2.05,6.03,0,3.55,1.15,3.55,1.15,7.11s-.07,3.55-.07,7.11-.66,3.55-.66,7.11c0,3.55.49,3.55.49,7.11,0,3.3-.57,3.3-.57,6.59s-.46,3.3-.46,6.59,1.05,3.3,1.05,6.59-1,3.3-1,6.59,1.33,3.3,1.33,6.59-.68,3.3-.68,6.59c0,2.37-.14,4.93.78,7,.94,2.12,3.17,3.48,4.88,5.04,1.6,1.46,3.38,2.59,5.49,3.34.09-.18.18-.36.19-.54.02-.35.48-.68.49-1.03s-.58-.71-.57-1.06c0-.35-.24-.7-.24-1.05s1.24-.7,1.23-1.05-1.29-.68-1.29-1.03c0-.35.11-.7.1-1.04-.01-.35.98-.74.96-1.09-.02-.35-1.17-.63-1.19-.98-.02-.35.8-.76.77-1.11-.03-.34-.1-.68-.13-1.03-.03-.34-.02-.68-.05-1.03-.03-.34.19-.7.16-1.05-.03-.34-.38-.66-.4-1.01-.03-.34-.66-.64-.68-.99-.02-.34.79-.75.76-1.09-.02-.34.12-.7.09-1.04-.02-.34-.64-.65-.66-.99-.02-.34-.31-.67-.33-1.02-.02-.34.6-.73.58-1.07-.02-.35-.38-.67-.4-1.01-.02-.35-.25-.68-.26-1.02-.02-.35-.42-.67-.44-1.02-.02-.35.33-.71.32-1.05-.02-.35.73-.73.71-1.07-.01-.35-.39-.68-.41-1.02-.01-.35-.73-.67-.74-1.01-.01-.35.98-.72.98-1.06,0-.35-.9-.68-.91-1.02,0-.35.89-.71.88-1.04,0-.36.09-.7.09-1.03,0-.36-.95-.72-.94-1.05.01-.37-.09-.73-.07-1.05.02-.38.25-.73.29-1.04.05-.41.84-.61.91-.88.09-.34-.77-.96-.67-1.28.11-.33,1.11-.34,1.23-.66.13-.32-.56-1.01-.41-1.32.15-.31.71-.44.88-.74.17-.3.01-.82.2-1.11.18-.29.63-.43.83-.71.2-.28.4-.58.62-.85.22-.27.2-.78.43-1.03.23-.25,1.08.08,1.33-.16.25-.24.16-.85.42-1.08.26-.22.99.15,1.27-.06.28-.21.24-.84.52-1.03.29-.19.54-.45.84-.62s.88.2,1.19.04c.31-.15.53-.44.85-.58.32-.14.56-.44.88-.55.32-.12.65-.21.98-.3.33-.1.7-.02,1.03-.1.34-.08.59-.57.93-.63.34-.06.66-.42,1-.45.34-.03.76,1.02,1.1,1.01.34-.01.68-1.2,1.02-1.19.34,0,.63,1.18.97,1.21.34.03.67-.04,1.01,0,.34.05.86-.91,1.2-.84.34.07.48,1.01.81,1.1.29.08.84-.68,1.12-.59.29.09.26,1.07.54,1.18.28.11.83-.44,1.1-.32.27.12.36.66.62.79.35.18.81.13,1.14.33.33.2.44.74.75.96.32.22.72.31,1.02.55,0,0,.53,0,.53,0,.01-.3-.76-.66-.73-.97.03-.3-.22-.67-.18-.97.05-.31.6-.55.66-.85.06-.3-.2-.71-.12-1.01.09-.34.23-.68.34-1,.11-.33.93-.4,1.06-.71.13-.32.13-.68.27-.99.15-.31.3-.61.47-.91.17-.3.23-.66.41-.95.18-.29.17-.72.37-1,.2-.28.78-.27.99-.53.22-.27-.16-1.07.07-1.32.23-.25.42-.6.67-.84.25-.24,1.17.25,1.43.03.26-.22.06-1.03.34-1.24.28-.21.88.04,1.17-.15.29-.19.4-.66.7-.83.3-.17.46-.65.77-.81.31-.15.94.36,1.25.22.32-.14.45-.74.78-.86.32-.12.91.59,1.24.49.33-.1.39-1.26.72-1.34.34-.08.79.35,1.13.29.34-.06.75.48,1.09.45.34-.03.64-.42.99-.43.34-.01.69-.57,1.04-.56.34,0,.68.48,1.02.51.34.03.66.22,1,.27.34.05.78-.44,1.12-.37.34.07.46,1,.8,1.09.35.09.93-.6,1.28-.48.35.12.53.67.87.81.34.14.53.54.86.7.33.16.6.35.92.53.32.18.98-.23,1.28-.03.3.2.86.09,1.15.31.29.22.51.58.78.82.27.23.04,1.01.29,1.25.25.24.27.68.51.94.24.26.75.25.97.53.22.27.16.73.37,1.02.2.29.96.2,1.14.49.18.3.55.51.72.82.17.31-.05.82.1,1.14,0,0,.04.05.04.05.29-.2.38-.71.68-.89.3-.18.59-.42.9-.58.31-.17.56-.51.88-.66.32-.15.71-.19,1.04-.32.33-.13.92.48,1.25.38.33-.11.56-.57.9-.65.34-.09.67-.26,1.01-.33.36-.07.79.43,1.15.39.36-.04.66-.65,1.03-.67.36-.02.73.32,1.1.32.36,0,.73-.23,1.09-.2.36.03.65.6,1.02.65.36.05.87-.82,1.23-.75.35.07.58.74.94.83.33.09.88-.46,1.2-.36.33.11.23,1.37.55,1.5.32.13,1.04-.68,1.35-.54.31.15.32.91.62,1.07.3.17.79,0,1.08.19.29.18.69.23.97.43.28.2.26.79.53,1.01.27.22.71.23.97.46.25.23.76.23,1,.48.24.25-.22,1.13,0,1.39.22.26,1.06.03,1.27.3.21.28.2.71.39,1,.19.29.74.37.92.67.17.3.13.74.29,1.05.15.31-.32.9-.19,1.22.14.32.89.38,1.01.71.12.32-.17.78-.07,1.11.1.33.51.58.58.92.08.34-.68.82-.62,1.16.06.34.17.63.21.98.03.34.97.61.99.96.01.34.25.71.24,1.06,0,.34-1.17.63-1.2.97-.03.34.4.71.35,1.06-.05.34.55.81.48,1.15-.07.34-1.08.45-1.17.79-.11.41-.43.72-.57,1.12-.21.59-.2.59-.41,1.18,0,0,.58.22.58.22.48.04.96.16,1.44.24.25.04.49.14.74.19.25.06.69-.62.94-.55.34.09.44,1,.76,1.11.33.11.49.59.81.72.32.13,1.04-.66,1.35-.52.31.15.7.22,1,.38.3.17.54.5.83.69.29.18.58.41.86.61.28.2.07,1.04.33,1.26.27.22.98-.09,1.23.15.25.23.45.54.69.79.24.25,0,.92.22,1.18.22.26.28.61.49.89.21.28,1.39-.14,1.58.15.19.29.08.79.25,1.09s-.24.9-.08,1.21c.15.31.93.32,1.06.64.14.32.13.7.24,1.03.12.32.09.7.18,1.03.1.33.82.52.9.85.08.34-.38.8-.32,1.14.06.34-.43.74-.39,1.08.03.34-.05.66-.04,1.01.01.34.28.66.28,1.01,0,.34.26.69.23,1.04-.03.34-.54.62-.58.96-.05.34.8.84.73,1.17-.07.34-1.08.45-1.17.78-.07.27-.28.47-.45.85-.12.28-.13.63-.3.97-.14.29.67,1.1.5,1.43-.16.29-.65.42-.83.74-.16.29-.97.22-1.16.53-.17.29.03.81-.15,1.11-.17.29-.69.38-.87.68-.18.29.38,1.03.19,1.33-.18.29-1.03.17-1.21.47-.18.29-.44.53-.63.83-.18.29.14.91-.05,1.2-.19.29-.52.49-.71.78-.19.29.13.91-.06,1.2-.19.29-.48.51-.67.8-.19.29-.22.68-.41.97-.19.29-.41.56-.6.85-.19.29-.97.19-1.16.47-.19.29-.13.74-.32,1.03-.19.29-.52.48-.71.77-.19.29-.72.35-.92.63-.2.29.34,1.07.15,1.35-.2.29-.73.34-.93.62-.2.29-.99.17-1.18.45-.12.18.13.62.29.99,1.65-.61,2.12-.92,4.6-1.75,3.12-1.04,3.29-.56,6.41-1.6,3.12-1.04,3.08-1.17,6.21-2.21,3.12-1.04,3.28-.56,6.41-1.61,3.12-1.04,3.15-.95,6.28-1.99,3.12-1.04,2.85-1.87,5.97-2.91,2.25-.75,4.05-1.88,5.73-3.41,1.71-1.56,3.3-3.13,4.24-5.25.92-2.08,2.25-4.3,2.25-6.67,0-3.3-.87-3.3-.87-6.59Z"/>
      <g>
        <path class="cls-2" d="M238.31,64.07c2.06-.93,4.92-1.99,8.6-3.05-.06-5.11-.31-8.16-.62-9.22-.31-.56.06-1,1-1.31,1.18-.56,2.06,0,2.62,1.56-.62.93-.56,3.36.06,7.29,2.37-.62,3.86-1,4.55-1.18.69-.12,1.12.06,1.43.62s.56,1.12.69,1.68c-.93.31-3.18,1.06-6.79,2.24-.12,3.8-.06,7.35.06,10.59,3.43-1.56,5.73-2.62,6.92-3.12.75-1.12,1.74-2.87,3.18-5.3,1.37-2.37,2.49-4.55,3.24-6.48.75-1.99,1.74-4.67,2.87-8.04.19-.56.69-.75,1.5-.56.81.12,1.37.75,1.68,1.74-.19.81-.62,2.06-1.31,3.74-.69,1.68-1.31,3.11-1.93,4.24-.56,1.12-1.18,2.24-1.74,3.36,3.8-.44,7.73-1.18,11.65-2.24-1.81-1.37-2.68-2.8-2.62-4.3.06-1.5.06-2.62-.06-3.36-.19-.69-.31-1.31-.44-1.81-.12-.56-.06-.93.25-1.18.56-.19,1.25.12,1.99.93.75.75,1.18,1.37,1.25,1.87.06.56.06,1.18,0,2.06-.06.87-.06,2.74-.06,5.73,2.99-.56,4.86-.93,5.48-1.12.69-.25,1.43-.25,2.18-.06.75.25,1.31.44,1.56.69s.37.62.25,1.06c-.06.5-.94.81-2.62,1.06-1.25.19-3.43.69-6.48,1.37,0,2.43,0,5.17-.06,8.16,3.61-.87,5.86-1.37,6.6-1.43s1.25.31,1.49,1.18c-.19,1.06-.93,1.74-2.12,2.06-2.12.56-3.61,1-4.61,1.31-.93.37-1.5.87-1.56,1.62-.06.75.06,2.37.44,4.8l4.8-1.18c1.12-.12,1.68.19,1.81.93.12.75-.06,1.25-.62,1.56-.5.31-2.62,1.06-6.42,2.31,0,1.37-.06,2.55-.12,3.55,0,1,.12,2.18.44,3.61,2.93-.62,5.05-1,6.36-1.12,1.25-.12,2.62-.19,4.11-.25,1.43,0,2.43,0,2.99.12s.81.56.69,1.18c-.12.69-.5,1.06-1.12,1.18-.69.06-2.12.31-4.42.62-2.37.31-8.78,1.37-19.44,3.18-.87,1.06-1.68,1.5-2.55,1.25-.81-.19-1.43-.69-1.93-1.43s-.62-4.55-.37-11.53c.31-6.92.56-13.08.94-18.5-1.25,1.68-2.24,3.05-2.93,4.05-.75.75-1.31,1.37-1.81,1.74-.44.37-.37.56.12.56s.44-.12-.19-.44c-.62-.25-1.12-.62-1.49-1.06-1.43,1.5-3.3,3.49-5.61,5.86-.12,5.42-.25,9.28-.25,11.65-.31,1.68-.37,3.36-.12,5.17.19,1.81-.12,3.36-1,4.61-1.31-.12-2.06-.75-2.31-1.74.56-5.67.81-11.53.69-17.69l-6.98,5.54c-1.31.19-2.06-.37-2.18-1.68,1.49-1.99,4.55-4.61,9.22-7.91-.25-4.55-.31-7.41-.19-8.54.12-1.12,0-1.93-.44-2.55-2.93,1.31-5.36,2.06-7.35,2.24-1.06-1.18-1.31-2.06-.81-2.49ZM264.54,78.46c-.25,2.62-.56,7.04-.93,13.27l1.25,2.24,8.47-1.37c.31-3.3.25-5.67-.12-7.04-2.93.69-4.74,1.06-5.54,1.12-.75.06-1.12-.12-1.18-.62,0-.5.31-1,1.06-1.62.69-.56,2.68-1.31,5.98-2.18l.19-6.42-3.49.69c-1.25.31-3.11.93-5.67,1.93ZM264.6,66.5c0,3.24-.06,5.98-.19,8.22,3.61-.56,6.79-1.37,9.47-2.43-.06-2.87,0-5.54.06-8.16-3.36.87-6.48,1.68-9.35,2.37Z"/>
        <path class="cls-2" d="M321.74,53.35c.5-.87,1.12-1.18,1.99-.87s1.25,1.12,1.25,2.49c-1.62,10.65-2.31,21.37-1.99,32.34.31,1.93.94,3.24,1.87,3.93.93.62,2.12,1.12,3.55,1.43,1.43.31,3.43-.5,6.04-2.43,2.62-1.93,5.42-3.55,8.41-4.92.69.56,1,1.18.93,1.99-.06.75-.44,1.43-1.18,2.12-2.8,1-5.42,2.43-7.79,4.36-2.43,1.87-5.05,2.43-7.97,1.68-2.43-.69-4.17-1.81-5.23-3.24-1.06-1.5-1.74-3.86-2.12-7.1-.12-10.78.62-21.37,2.24-31.77Z"/>
        <path class="cls-2" d="M386.6,87.31c.31-.19.87-.37,1.62-.5.81-.19,1.87-.37,3.24-.56,1.43-.19,3.12-.56,5.17-1.18.06-1,.12-2.37.12-4.17.06-1.81.06-5.86-.06-12.15-5.48,7.23-9.47,12.15-11.96,14.64-2.49,2.49-4.49,4.36-5.98,5.61-1.49,1.31-2.49,1.68-2.93,1.12-.5-.56-.69-1.06-.5-1.62.93-1.18,3.05-3.36,6.29-6.48,3.3-3.18,6.54-6.85,9.72-11.09,2.74-3.8,4.61-6.92,5.54-9.47l.44-1.37c-4.74.75-8.35,1.31-10.84,1.68-2.43.37-4.17.06-5.11-1-.37-.31-.56-.69-.44-1.18.12-.5,1.5-.81,4.24-.93,2.74-.19,6.67-.69,11.65-1.62.19-5.86.31-9.1.5-9.78.12-.75.75-1,1.87-.87.81.12,1.06,3.3.87,9.72,2.06.12,3.93.06,5.67-.31,1.74-.31,4.49-.69,8.22-1,.87,0,1.37.31,1.56.93.12.62-.12,1.18-.75,1.62-3.61.44-6.67.81-9.16,1.18-2.55.31-4.36.62-5.36,1-.5,1.81-.5,3.61,0,5.42,1.25,1,3.24,2.99,6.11,5.92,2.87,2.99,5.86,6.04,8.91,9.03,3.12,3.05,5.3,5.05,6.54,5.92,1.25.87,1.81,1.68,1.74,2.24-.12.62-.75.75-1.87.31s-2.62-1.62-4.61-3.49c-1.93-1.87-4.24-3.99-6.85-6.36-2.55-2.37-5.98-5.73-10.22-10.16-.12,7.23-.25,12.77-.31,16.51,2.24-.44,4.3-.75,6.23-.93s2.99-.31,3.24-.25c.19.06.37.25.5.44.19.25.31.56.31.93.06.44,0,.81-.06,1.12-.12.25-1.31.56-3.68.87-2.37.31-4.55.56-6.67.81-.06,3.3-.12,7.66-.25,13.08-.25.81-.62,1.25-1.06,1.18s-.93-.62-1.43-1.74c-.44-1.12-.69-3.05-.56-5.79s.19-4.8.25-6.23c-1.56.31-3.24.69-5.11,1-1.87.31-2.99.44-3.43.37-.44-.06-.81-.19-1.06-.44-.31-.19-.5-.44-.62-.69-.06-.31-.19-.56-.31-.87.12-.12.31-.25.62-.44Z"/>
        <path class="cls-2" d="M260.3,184.82c5.73-7.41,10.72-15.14,14.89-23.24l-.19-.87c-6.98.06-14.27.69-21.87,1.93-1,0-1.93-.19-2.93-.44-1-.25-1.62-.75-2.06-1.43-.37-.75-.44-1.31-.19-1.68.25-.44.56-.5,1.06-.31,9.1-.12,18.19-.69,27.16-1.68,1.99-.25,2.93.75,2.87,2.8-.06,2.12-1.5,5.48-4.24,10.09-2.8,4.67-6.73,10.28-11.9,16.95-.25.5-.87.81-1.68.93-.87.12-1.56-.12-2.06-.75-.5-.62-.5-1.25.12-1.99l1-.31ZM252.58,149.3c-.12-.69,0-1.18.37-1.43.44-.25.93-.44,1.56-.56,4.55.06,10.09.06,16.76-.06.87.19,1.37.69,1.5,1.43.12.75-.37,1.31-1.43,1.68-1.12.37-2.74.37-4.92,0-4.86-.12-8.6,0-11.28.31-1.56-.25-2.43-.69-2.55-1.37Z"/>
        <path class="cls-2" d="M331.39,146.19c.75.06,1.25.31,1.62.75.31.44.5,1.12.5,1.99-3.68,4.8-6.42,8.35-8.29,10.72.87,1.37,1.18,2.62,1.06,3.68.12,8.35,0,16.82-.5,25.54-.19.12-.81.12-1.81-.06-1-.19-1.43-1.12-1.31-2.87.06-1.74.12-3.05.12-4.05.44-6.98.56-14.14.31-21.49-4.67,5.67-8.91,9.84-12.59,12.59-.56.19-1.18.12-1.81-.25-.69-.37-1-.81-1-1.31s.25-.87.81-1c4.3-3.24,10.22-9.03,17.76-17.44l5.11-6.79Z"/>
        <path class="cls-2" d="M393.95,148.49c.93.06,1.5.44,1.74,1.31-.81,11.84-6.04,22.37-15.7,31.53-2.24,2.24-4.55,4.05-6.91,5.42-1.87-.12-2.49-.75-1.93-1.74,11.03-8.54,18.25-19.38,21.87-32.58-.87-.5-3.8-.56-8.79-.19-5.05.37-11.65.93-19.94,1.62-.44-.37-.81-.87-1.06-1.43-.25-.62-.06-1.31.62-1.99,6.29-.19,14.58-.75,24.86-1.62l5.23-.31ZM394.63,144.01c-.31-1.06-.31-1.68,0-1.93.31-.25.75-.25,1.43-.12.69.12,1.18.75,1.43,1.74.31,1,1.18,2.24,2.55,3.74,1.43,1.5,1.87,2.43,1.31,2.87-.5.44-.81.69-.87.69-.12-.06-.44-.06-1.06-.12-.62-.06-1.99-1.56-4.11-4.49-.31-1.06-.5-1.87-.69-2.37ZM403.54,139.21c.62.37,1.18,1.5,1.62,3.24.44,1.81,1.12,3.18,1.99,4.17.87,1,1.06,1.68.62,1.99-.44.37-1,.31-1.68-.12-3.11-2.24-4.61-5.42-4.55-9.41.69-.37,1.37-.31,1.99.12Z"/>
        <path class="cls-2" d="M442.24,184.82c5.73-7.41,10.72-15.14,14.89-23.24l-.19-.87c-6.98.06-14.27.69-21.87,1.93-1,0-1.93-.19-2.93-.44-1-.25-1.62-.75-2.06-1.43-.37-.75-.44-1.31-.19-1.68.25-.44.56-.5,1.06-.31,9.1-.12,18.19-.69,27.16-1.68,1.99-.25,2.93.75,2.87,2.8-.06,2.12-1.5,5.48-4.24,10.09-2.8,4.67-6.73,10.28-11.9,16.95-.25.5-.87.81-1.68.93-.87.12-1.56-.12-2.06-.75-.5-.62-.5-1.25.12-1.99l1-.31ZM434.51,149.3c-.12-.69,0-1.18.37-1.43.44-.25.93-.44,1.56-.56,4.55.06,10.09.06,16.76-.06.87.19,1.37.69,1.5,1.43.12.75-.37,1.31-1.43,1.68-1.12.37-2.74.37-4.92,0-4.86-.12-8.6,0-11.28.31-1.56-.25-2.43-.69-2.55-1.37Z"/>
        <path class="cls-2" d="M495.7,148.43c.75.25,1.31,1.18,1.74,2.87,0,6.04,0,10.53.06,13.52.06,2.99.19,4.98.25,5.98.12,1,.06,1.68-.06,2.12-.19.44-.56.62-1.18.62s-1.12-.25-1.43-.81c-.31-.56-.37-2.74-.31-6.42.12-3.74-.12-9.35-.81-16.88.19-1.06.75-1.37,1.74-1ZM504.36,184.32c7.91-10.97,10.34-23.24,7.17-36.88-.06-.44,0-.75.37-.87.31-.19.81-.06,1.31.31.56.37,1.18,1.37,1.87,2.99.69,1.62,1,5.42.87,11.46-.12,5.98-1.43,11.53-3.86,16.57-2.43,4.98-4.11,8.1-5.05,9.22-.94,1.12-1.62,1.74-2.06,1.87-.5.12-1.06,0-1.62-.37-.62-.31-.93-.87-.93-1.68,0-.5.62-1.37,1.93-2.62Z"/>
      </g>
    </g>
  </g>
</svg>