<?xml version="1.0" encoding="UTF-8"?>
<svg id="_レイヤー_2" data-name="レイヤー 2" xmlns="http://www.w3.org/2000/svg" xmlns:xlink="http://www.w3.org/1999/xlink" viewBox="0 0 60 60">
  <defs>
    <style>
      .cls-1 {
        fill: #2b2b2b;
      }

      .cls-2 {
        fill: #fcfbfa;
      }

      .cls-3 {
        clip-path: url(#clippath);
      }
    </style>
    <clipPath id="clippath">
      <rect class="cls-1" y="0" width="60" height="60" rx="13.33" ry="13.33"/>
    </clipPath>
  </defs>
  <g id="_レイヤー_40" data-name="レイヤー 40">
    <g>
      <rect class="cls-1" y="0" width="60" height="60" rx="13.33" ry="13.33"/>
      <g class="cls-3">
        <rect class="cls-1" y="0" width="60" height="60" rx="13.33" ry="13.33"/>
        <path class="cls-2" d="M53.03,37.05c0-1.04.03-1.04.03-2.09s.06-1.04.06-2.09-.1-1.04-.1-2.09.23-1.04.23-2.09-.11-1.04-.11-2.09c0-1.13-.2-1.13-.2-2.25s-.01-1.13-.01-2.25.12-1.13.12-2.25.1-1.13.1-2.25c0-.7-.13-1.38-.37-1.97-.25-.63-.71-1.14-1.16-1.62-.46-.48-1-.86-1.6-1.14-.6-.28-1.23-.33-1.91-.37-.64-.04-1.35-.27-2.01-.05-1.03.35-1.05.3-2.08.65-1.03.35-.93.65-1.97.99-1.03.35-1.14.03-2.17.38-1.03.35-.94.64-1.97.98-1.03.35-1.11.11-2.15.46-1.03.35-.97.52-2.01.87-1.03.35-1.07.23-2.11.58-.54.18-1.08.34-1.64.34s-1.14-.04-1.68-.22c-1.03-.35-1.01-.41-2.05-.75-1.03-.35-1.01-.42-2.04-.77-1.03-.35-1.09-.18-2.12-.53-1.03-.35-1.04-.33-2.07-.67-1.03-.35-1.03-.36-2.06-.7-1.03-.35-.95-.6-1.98-.94-1.03-.35-1.09-.18-2.12-.53-.66-.22-1.34-.42-1.99-.39-.68.04-1.31.38-1.9.66-.6.28-1.19.63-1.65,1.11-.45.48-.69,1.11-.94,1.73-.24.6-.65,1.21-.65,1.91,0,1.13.36,1.13.36,2.25s-.02,1.13-.02,2.25-.21,1.13-.21,2.25c0,1.13.16,1.13.16,2.25,0,1.04-.18,1.04-.18,2.09s-.15,1.04-.15,2.09.33,1.04.33,2.09-.32,1.04-.32,2.09.42,1.04.42,2.09-.22,1.04-.22,2.09c0,.75-.04,1.56.25,2.22.3.67,1,1.1,1.55,1.6.51.46,1.07.82,1.74,1.06.03-.06.06-.11.06-.17,0-.11.15-.22.15-.33s-.18-.23-.18-.34c0-.11-.08-.22-.08-.33s.39-.22.39-.33-.41-.22-.41-.33c0-.11.04-.22.03-.33,0-.11.31-.24.31-.35,0-.11-.37-.2-.38-.31,0-.11.25-.24.24-.35,0-.11-.03-.21-.04-.33,0-.11,0-.22-.02-.33,0-.11.06-.22.05-.33,0-.11-.12-.21-.13-.32,0-.11-.21-.2-.22-.31,0-.11.25-.24.24-.35,0-.11.04-.22.03-.33,0-.11-.2-.21-.21-.32,0-.11-.1-.21-.1-.32,0-.11.19-.23.18-.34,0-.11-.12-.21-.13-.32,0-.11-.08-.22-.08-.32,0-.11-.13-.21-.14-.32,0-.11.11-.23.1-.33,0-.11.23-.23.23-.34,0-.11-.12-.21-.13-.32,0-.11-.23-.21-.23-.32,0-.11.31-.23.31-.34,0-.11-.29-.22-.29-.32,0-.11.28-.22.28-.33,0-.11.03-.22.03-.33,0-.11-.3-.23-.3-.33,0-.12-.03-.23-.02-.33,0-.12.08-.23.09-.33.01-.13.27-.19.29-.28.03-.11-.25-.3-.21-.41.03-.1.35-.11.39-.21.04-.1-.18-.32-.13-.42.05-.1.23-.14.28-.23.05-.1,0-.26.06-.35.06-.09.2-.14.26-.23.06-.09.13-.18.2-.27.07-.08.06-.25.14-.33.07-.08.34.02.42-.05.08-.08.05-.27.13-.34.08-.07.31.05.4-.02.09-.07.08-.27.17-.33.09-.06.17-.14.27-.2s.28.06.38.01c.1-.05.17-.14.27-.18.1-.04.18-.14.28-.18.1-.04.21-.07.31-.1.1-.03.22,0,.33-.03.11-.02.19-.18.29-.2.11-.02.21-.13.32-.14.11-.01.24.32.35.32.11,0,.21-.38.32-.38.11,0,.2.37.31.38.11,0,.21-.01.32,0,.11.02.27-.29.38-.27.11.02.15.32.26.35.09.02.26-.22.35-.19.09.03.08.34.17.37.09.03.26-.14.35-.1.09.04.11.21.2.25.11.06.26.04.36.1.11.06.14.24.24.31.1.07.23.1.32.17,0,0,.17,0,.17,0,0-.1-.24-.21-.23-.31,0-.1-.07-.21-.06-.31.02-.1.19-.17.21-.27.02-.1-.06-.22-.04-.32.03-.11.07-.22.11-.32.03-.1.3-.13.34-.23.04-.1.04-.22.09-.31.05-.1.1-.19.15-.29.05-.1.07-.21.13-.3.06-.09.05-.23.12-.32.06-.09.25-.09.32-.17.07-.08-.05-.34.02-.42.07-.08.13-.19.21-.27.08-.08.37.08.45.01.08-.07.02-.33.11-.39.09-.07.28.01.37-.05.09-.06.13-.21.22-.26.09-.05.14-.21.24-.26.1-.05.3.11.4.07.1-.04.14-.24.25-.27.1-.04.29.19.39.16.1-.03.12-.4.23-.42.11-.02.25.11.36.09.11-.02.24.15.35.14.11-.01.2-.13.31-.14.11,0,.22-.18.33-.18.11,0,.21.15.32.16.11,0,.21.07.32.09.11.02.25-.14.35-.12.11.02.15.32.25.35.11.03.3-.19.4-.15.11.04.17.21.27.26.11.04.17.17.27.22.1.05.19.11.29.17.1.06.31-.07.41,0,.1.06.27.03.36.1.09.07.16.19.25.26.08.07.01.32.09.4.08.08.09.22.16.3.07.08.24.08.31.17.07.09.05.23.12.32.06.09.3.06.36.16.06.09.17.16.23.26.05.1-.02.26.03.36,0,0,.01.02.01.02.09-.06.12-.22.22-.28.09-.06.19-.13.28-.19.1-.05.18-.16.28-.21.1-.05.23-.06.33-.1.1-.04.29.15.4.12.11-.03.18-.18.28-.21.11-.03.21-.08.32-.1.11-.02.25.14.37.12.11-.01.21-.21.33-.21.11,0,.23.1.35.1.11,0,.23-.07.35-.06.11,0,.21.19.32.21.11.02.28-.26.39-.24.11.02.18.23.3.26.11.03.28-.15.38-.11.1.03.07.44.17.48.1.04.33-.22.43-.17.1.05.1.29.2.34.1.05.25,0,.34.06.09.06.22.07.31.14.09.06.08.25.17.32.08.07.23.07.31.15.08.07.24.07.32.15.08.08-.07.36,0,.44.07.08.34,0,.4.1.07.09.06.23.12.32.06.09.24.12.29.21.05.09.04.23.09.33.05.1-.1.29-.06.39.04.1.28.12.32.22.04.1-.05.25-.02.35.03.1.16.18.18.29.02.11-.22.26-.2.37.02.11.05.2.07.31.01.11.31.19.31.3,0,.11.08.23.08.34,0,.11-.37.2-.38.31,0,.11.13.23.11.34-.02.11.17.26.15.36-.02.11-.34.14-.37.25-.04.13-.14.23-.18.36-.07.19-.06.19-.13.37,0,0,.18.07.18.07.15.01.3.05.46.08.08.01.16.04.24.06.08.02.22-.2.3-.18.11.03.14.32.24.35.1.03.16.19.26.23.1.04.33-.21.43-.16.1.05.22.07.32.12.1.05.17.16.26.22.09.06.18.13.27.19.09.06.02.33.11.4.08.07.31-.03.39.05.08.07.14.17.22.25.08.08,0,.29.07.37.07.08.09.19.16.28.07.09.44-.04.5.05.06.09.02.25.08.34s-.08.29-.03.38c.05.1.29.1.34.2.04.1.04.22.08.33.04.1.03.22.06.33.03.1.26.16.28.27.02.11-.12.25-.1.36.02.11-.14.23-.12.34.01.11-.02.21-.01.32,0,.11.09.21.09.32,0,.11.08.22.07.33,0,.11-.17.2-.19.3-.02.11.25.26.23.37-.02.11-.34.14-.37.25-.02.08-.09.15-.14.27-.04.09-.04.2-.09.31-.05.09.21.35.16.45-.05.09-.21.13-.26.23-.05.09-.31.07-.37.17-.05.09.01.26-.05.35-.05.09-.22.12-.28.22-.06.09.12.33.06.42-.06.09-.33.05-.38.15-.06.09-.14.17-.2.26-.06.09.05.29-.01.38-.06.09-.16.15-.22.25-.06.09.04.29-.02.38-.06.09-.15.16-.21.25-.06.09-.07.22-.13.31-.06.09-.13.18-.19.27-.06.09-.31.06-.37.15-.06.09-.04.24-.1.33-.06.09-.17.15-.23.24-.06.09-.23.11-.29.2-.06.09.11.34.05.43-.06.09-.23.11-.29.2-.06.09-.31.05-.37.14-.04.06.04.2.09.31.52-.19.67-.29,1.46-.55.99-.33,1.04-.18,2.03-.51.99-.33.98-.37,1.97-.7.99-.33,1.04-.18,2.03-.51.99-.33,1-.3,1.99-.63.99-.33.9-.59,1.89-.92.71-.24,1.28-.6,1.82-1.08.54-.49,1.05-.99,1.34-1.66.29-.66.71-1.36.71-2.11,0-1.04-.28-1.04-.28-2.09Z"/>
      </g>
    </g>
  </g>
</svg>