<?xml version="1.0" encoding="UTF-8"?>
<svg id="material" xmlns="http://www.w3.org/2000/svg" xmlns:xlink="http://www.w3.org/1999/xlink" viewBox="0 0 150 150">
  <defs>
    <style>
      .cls-1 {
        stroke: url(#_名称未設定グラデーション_9-3);
        stroke-miterlimit: 10;
      }

      .cls-1, .cls-2, .cls-3, .cls-4 {
        fill: none;
      }

      .cls-1, .cls-2, .cls-4 {
        stroke-width: 2.54px;
      }

      .cls-2 {
        stroke: url(#_名称未設定グラデーション_9-2);
      }

      .cls-2, .cls-4 {
        stroke-linecap: round;
        stroke-linejoin: round;
      }

      .cls-5 {
        fill: url(#_名称未設定グラデーション_9-4);
      }

      .cls-6 {
        fill: #fff;
      }

      .cls-6, .cls-3 {
        stroke: #333;
        stroke-linecap: square;
        stroke-linejoin: bevel;
        stroke-width: 1.27px;
      }

      .cls-4 {
        stroke: url(#_名称未設定グラデーション_9);
      }
    </style>
    <linearGradient id="_名称未設定グラデーション_9" data-name="名称未設定グラデーション 9" x1="53.02" y1="74.43" x2="94.12" y2="74.43" gradientUnits="userSpaceOnUse">
      <stop offset="0" stop-color="#e94b01"/>
      <stop offset=".23" stop-color="#e64b02"/>
      <stop offset=".37" stop-color="#dd4e07"/>
      <stop offset=".48" stop-color="#cf530f"/>
      <stop offset=".59" stop-color="#ba5a1a"/>
      <stop offset=".68" stop-color="#a06329"/>
      <stop offset=".77" stop-color="#7f6e3c"/>
      <stop offset=".85" stop-color="#587b52"/>
      <stop offset=".93" stop-color="#2c8a6a"/>
      <stop offset="1" stop-color="#009984"/>
    </linearGradient>
    <linearGradient id="_名称未設定グラデーション_9-2" data-name="名称未設定グラデーション 9" x1="53.09" y1="75" x2="94.25" y2="75" xlink:href="#_名称未設定グラデーション_9"/>
    <linearGradient id="_名称未設定グラデーション_9-3" data-name="名称未設定グラデーション 9" x1="24" y1="83.42" x2="139.3" y2="83.42" xlink:href="#_名称未設定グラデーション_9"/>
    <linearGradient id="_名称未設定グラデーション_9-4" data-name="名称未設定グラデーション 9" x1="52.76" y1="44.91" x2="97.12" y2="44.91" xlink:href="#_名称未設定グラデーション_9"/>
  </defs>
  <g id="gift">
    <g>
      <g>
        <polygon class="cls-6" points="73.63 75 73.63 75 35.07 52.74 35.07 97.28 73.66 119.56 73.67 119.55 73.63 119.53 73.63 75"/>
        <polygon class="cls-6" points="73.63 75 73.63 74.97 112.2 52.69 73.66 30.44 35.07 52.72 35.07 52.74 73.63 75 73.63 75"/>
        <polygon class="cls-6" points="112.21 52.71 112.18 52.69 112.18 52.71 73.59 74.99 73.59 119.51 73.64 119.54 112.21 97.27 112.21 52.71"/>
        <polyline class="cls-4" points="54.29 41.03 92.85 63.29 92.85 107.82"/>
        <polyline class="cls-2" points="92.98 41.59 92.95 41.57 92.95 41.59 54.36 63.87 54.36 108.4 54.41 108.43"/>
        <polyline class="cls-3" points="35.1 64.54 73.66 86.8 73.66 86.8 73.66 86.77 112.24 64.5"/>
      </g>
      <path class="cls-1" d="M24.22,107.18s20.85,3.77,22.47-21.21,28.04-35.13,28.04-35.13c0,0,32.14,12.51,40.97,47.01,8.83,34.5,22.49,9.54,22.49,9.54"/>
      <path class="cls-5" d="M96.62,42.01c-.92-1.88-2.95-3.02-5.72-3.21-2.51-.17-5.39.47-8.11,1.81-3.13,1.53-5.5,3.69-6.79,5.93-.82-2.85-2.87-5.87-5.93-8.36-2.7-2.21-5.79-3.64-8.69-4.04-3.12-.43-5.68.37-7.22,2.26-3.08,3.77-.91,10.46,4.94,15.23,3.36,2.74,7.1,4.17,10.25,4.17,2.33,0,4.35-.78,5.66-2.38.2-.25.38-.51.54-.78.97,1.74,2.94,2.79,5.59,2.97.26.02.53.03.8.03,2.31,0,4.87-.64,7.31-1.83,2.72-1.33,5-3.22,6.4-5.3,1.55-2.3,1.89-4.6.97-6.48ZM73.13,51.87c-2.14,2.62-7.86,1.65-12.49-2.13-4.63-3.78-6.73-9.19-4.59-11.81.98-1.2,2.76-1.69,5-1.38,2.46.34,5.12,1.59,7.49,3.52,4.63,3.78,6.73,9.19,4.59,11.81ZM93.52,47.07c-1.16,1.72-3.08,3.29-5.4,4.43-2.33,1.14-4.75,1.69-6.82,1.55-1.79-.12-3.1-.77-3.59-1.78-1.24-2.53,2.27-6.44,6.2-8.36,2.09-1.02,4.26-1.57,6.17-1.57.22,0,.43,0,.64.02,1.79.12,3.1.77,3.59,1.78h0c.5,1.01.21,2.44-.8,3.93Z"/>
    </g>
  </g>
</svg>