<svg width="181" height="182" viewBox="0 0 181 182" fill="none" xmlns="http://www.w3.org/2000/svg">
<path d="M90.5158 180.749C139.953 180.749 180.029 140.673 180.029 91.2359C180.029 41.7991 139.953 1.72266 90.5158 1.72266C41.079 1.72266 1.00254 41.7991 1.00254 91.2359C1.00254 140.673 41.079 180.749 90.5158 180.749Z" stroke="white" stroke-width="1.74" stroke-miterlimit="10"/>
<path d="M90.432 175.155C136.779 175.155 174.351 137.583 174.351 91.2361C174.351 44.8891 136.779 7.31738 90.432 7.31738C44.085 7.31738 6.51331 44.8891 6.51331 91.2361C6.51331 137.583 44.085 175.155 90.432 175.155Z" stroke="white" stroke-width="1.74" stroke-miterlimit="10"/>
<path d="M90.5133 1.72266V7.31724" stroke="white" stroke-width="1.74" stroke-miterlimit="10"/>
<path d="M74.9716 3.08203L75.9394 8.59269" stroke="white" stroke-width="1.74" stroke-miterlimit="10"/>
<path d="M59.8998 7.12158L61.8131 12.3805" stroke="white" stroke-width="1.74" stroke-miterlimit="10"/>
<path d="M45.7567 13.7173L48.5539 18.5622" stroke="white" stroke-width="1.74" stroke-miterlimit="10"/>
<path d="M32.9731 22.6631L36.5704 26.9485" stroke="white" stroke-width="1.74" stroke-miterlimit="10"/>
<path d="M21.9406 33.6958L26.226 37.2931" stroke="white" stroke-width="1.74" stroke-miterlimit="10"/>
<path d="M12.9948 46.479L17.8397 49.2763" stroke="white" stroke-width="1.74" stroke-miterlimit="10"/>
<path d="M6.3988 60.6221L11.6577 62.5354" stroke="white" stroke-width="1.74" stroke-miterlimit="10"/>
<path d="M2.3595 75.6938L7.87016 76.6617" stroke="white" stroke-width="1.74" stroke-miterlimit="10"/>
<path d="M1 91.2358H6.59458" stroke="white" stroke-width="1.74" stroke-miterlimit="10"/>
<path d="M2.3595 106.777L7.87016 105.81" stroke="white" stroke-width="1.74" stroke-miterlimit="10"/>
<path d="M6.3988 121.849L11.6577 119.936" stroke="white" stroke-width="1.74" stroke-miterlimit="10"/>
<path d="M12.9948 135.993L17.8397 133.195" stroke="white" stroke-width="1.74" stroke-miterlimit="10"/>
<path d="M21.9406 148.776L26.226 145.179" stroke="white" stroke-width="1.74" stroke-miterlimit="10"/>
<path d="M32.9731 159.808L36.5704 155.523" stroke="white" stroke-width="1.74" stroke-miterlimit="10"/>
<path d="M45.7567 168.755L48.5539 163.91" stroke="white" stroke-width="1.74" stroke-miterlimit="10"/>
<path d="M59.8998 175.35L61.8131 170.091" stroke="white" stroke-width="1.74" stroke-miterlimit="10"/>
<path d="M74.9716 179.39L75.9394 173.879" stroke="white" stroke-width="1.74" stroke-miterlimit="10"/>
<path d="M106.055 179.39L105.087 173.879" stroke="white" stroke-width="1.74" stroke-miterlimit="10"/>
<path d="M121.127 175.35L119.214 170.091" stroke="white" stroke-width="1.74" stroke-miterlimit="10"/>
<path d="M135.27 168.755L132.473 163.91" stroke="white" stroke-width="1.74" stroke-miterlimit="10"/>
<path d="M148.054 159.808L144.456 155.523" stroke="white" stroke-width="1.74" stroke-miterlimit="10"/>
<path d="M159.086 148.776L154.801 145.179" stroke="white" stroke-width="1.74" stroke-miterlimit="10"/>
<path d="M168.032 135.993L163.187 133.195" stroke="white" stroke-width="1.74" stroke-miterlimit="10"/>
<path d="M174.628 121.849L169.369 119.936" stroke="white" stroke-width="1.74" stroke-miterlimit="10"/>
<path d="M178.667 106.777L173.156 105.81" stroke="white" stroke-width="1.74" stroke-miterlimit="10"/>
<path d="M180.027 91.2358H174.432" stroke="white" stroke-width="1.74" stroke-miterlimit="10"/>
<path d="M178.667 75.6938L173.156 76.6617" stroke="white" stroke-width="1.74" stroke-miterlimit="10"/>
<path d="M174.628 60.6221L169.369 62.5354" stroke="white" stroke-width="1.74" stroke-miterlimit="10"/>
<path d="M168.032 46.479L163.187 49.2763" stroke="white" stroke-width="1.74" stroke-miterlimit="10"/>
<path d="M159.086 33.6958L154.801 37.2931" stroke="white" stroke-width="1.74" stroke-miterlimit="10"/>
<path d="M148.054 22.6631L144.456 26.9485" stroke="white" stroke-width="1.74" stroke-miterlimit="10"/>
<path d="M135.27 13.7173L132.473 18.5622" stroke="white" stroke-width="1.74" stroke-miterlimit="10"/>
<path d="M121.127 7.12158L119.214 12.3805" stroke="white" stroke-width="1.74" stroke-miterlimit="10"/>
<path d="M106.055 3.08203L105.087 8.59269" stroke="white" stroke-width="1.74" stroke-miterlimit="10"/>
<path d="M90.5133 180.749V175.155" stroke="white" stroke-width="1.74" stroke-miterlimit="10"/>
</svg>
