<svg width="29" height="29" viewBox="0 0 29 29" fill="none" xmlns="http://www.w3.org/2000/svg">
<mask id="mask0_207_253" style="mask-type:luminance" maskUnits="userSpaceOnUse" x="0" y="0" width="29" height="29">
<path d="M0 0H29V29H0V0Z" fill="white"/>
</mask>
<g mask="url(#mask0_207_253)">
<path d="M0 0H29V29H0V0Z" fill="#FFD600"/>
</g>
<path d="M18.9613 21.7071C19.5187 22.6126 20.1245 23.4801 21.4077 23.4801C22.4856 23.4801 23.0511 22.9445 23.0511 22.2034C23.0511 21.3164 22.4662 21.0015 21.2805 20.4851L20.6304 20.208C18.7542 19.4122 17.5064 18.4149 17.5064 16.3083C17.5064 14.3669 18.9927 12.8895 21.3151 12.8895C22.9689 12.8895 24.1571 13.4623 25.0142 14.9622L22.9891 16.2568C22.5436 15.4609 22.0618 15.1475 21.3151 15.1475C20.553 15.1475 20.0705 15.6284 20.0705 16.2568C20.0705 17.0333 20.5538 17.3475 21.6695 17.8284L22.3196 18.1055C24.5308 19.0472 25.7779 20.009 25.7779 22.1711C25.7779 24.5008 23.9379 25.7776 21.4681 25.7776C19.0522 25.7776 17.6804 24.5653 16.9168 23.0645L18.9613 21.7071ZM9.62807 21.7732C10.0357 22.503 10.6552 23.0645 11.5461 23.0645C12.3984 23.0645 12.889 22.7278 12.889 21.4187V12.8887H15.5739V21.8312C15.5739 24.5435 14.0006 25.7776 11.7032 25.7776C9.62726 25.7776 8.12891 24.3711 7.51831 23.0645L9.62807 21.7732Z" fill="#000001"/>
</svg>
