<svg width="28" height="28" viewBox="0 0 28 28" fill="none" xmlns="http://www.w3.org/2000/svg">
<path d="M0 6.39835C0 2.86469 2.86469 0 6.39835 0H21.6015C25.1353 0 28 2.86469 28 6.39835V21.6015C28 25.1353 25.1353 28 21.6015 28H6.39835C2.86469 28 0 25.1353 0 21.6015V6.39835Z" fill="black"/>
<path d="M7.49609 20.7244C7.49609 18.8979 8.97677 17.4173 10.8033 17.4173H14.1103V20.7244C14.1103 22.5508 12.6297 24.0315 10.8033 24.0315C8.97677 24.0315 7.49609 22.5508 7.49609 20.7244Z" fill="#24CB71"/>
<path d="M14.1104 4.18896V10.8031H17.4174C19.2439 10.8031 20.7245 9.32262 20.7245 7.49613C20.7245 5.66964 19.2439 4.18896 17.4174 4.18896H14.1104Z" fill="#FF7237"/>
<path d="M17.3072 17.4173C19.0728 17.4173 20.5041 15.9367 20.5041 14.1102C20.5041 12.2838 19.0728 10.8032 17.3072 10.8032C15.5416 10.8032 14.1104 12.2838 14.1104 14.1102C14.1104 15.9367 15.5416 17.4173 17.3072 17.4173Z" fill="#00B6FF"/>
<path d="M7.49609 7.49605C7.49609 9.3225 8.97677 10.8031 10.8033 10.8031H14.1103V4.18896H10.8033C8.97677 4.18896 7.49609 5.66961 7.49609 7.49605Z" fill="#FF3737"/>
<path d="M7.49609 14.1102C7.49609 15.9367 8.97677 17.4173 10.8033 17.4173H14.1103V10.8032H10.8033C8.97677 10.8032 7.49609 12.2837 7.49609 14.1102Z" fill="#874FFF"/>
</svg>
