<svg width="29" height="28" viewBox="0 0 29 28" fill="none" xmlns="http://www.w3.org/2000/svg">
<g clip-path="url(#clip0_158_91)">
<path d="M23.8646 0H5.13542C2.2992 0 0 2.27684 0 5.08547V22.9145C0 25.7232 2.2992 28 5.13542 28H23.8646C26.7008 28 29 25.7232 29 22.9145V5.08547C29 2.27684 26.7008 0 23.8646 0Z" fill="#330000"/>
<path d="M14.0529 16.8033H9.55898L8.64465 19.616C8.63219 19.6673 8.60205 19.7126 8.55944 19.7443C8.51682 19.7759 8.46439 19.7919 8.41118 19.7894H6.13506C6.00525 19.7894 5.95986 19.7187 5.99888 19.5775L9.88968 8.48083C9.92862 8.36526 9.96754 8.23361 10.0064 8.08589C10.0573 7.82886 10.0834 7.56761 10.0843 7.30569C10.0816 7.28737 10.0833 7.26869 10.0892 7.25114C10.0951 7.23358 10.1051 7.21763 10.1183 7.20455C10.1315 7.19146 10.1476 7.1816 10.1654 7.17574C10.1831 7.16989 10.2019 7.1682 10.2204 7.17081H13.3136C13.4042 7.17081 13.4561 7.20292 13.4692 7.26716L17.8854 19.5967C17.9243 19.7252 17.8853 19.7895 17.7686 19.7894H15.2396C15.1961 19.7941 15.1524 19.7831 15.1166 19.7583C15.0808 19.7334 15.0554 19.6966 15.045 19.6545L14.0529 16.8033ZM10.2593 14.3759H13.3331C13.2553 14.1192 13.1645 13.8302 13.0607 13.509C12.9568 13.1881 12.8465 12.8445 12.73 12.4783C12.6133 12.1123 12.4965 11.7463 12.3798 11.3802C12.2631 11.0142 12.1561 10.661 12.0588 10.3206C11.9616 9.98049 11.874 9.66905 11.7962 9.38629H11.7768C11.6672 9.90659 11.5309 10.421 11.3682 10.9275C11.1865 11.5054 11.0016 12.0962 10.8138 12.6999C10.6256 13.3037 10.4408 13.8624 10.2593 14.3759H10.2593Z" fill="#FF9A00"/>
<path d="M20.5111 9.21292C20.3127 9.2208 20.1148 9.18713 19.9304 9.1141C19.7461 9.04106 19.5793 8.93031 19.4411 8.78909C19.3033 8.64174 19.1963 8.46887 19.1262 8.28042C19.056 8.09197 19.0242 7.89165 19.0325 7.69098C19.0255 7.4923 19.0608 7.29438 19.1362 7.11014C19.2117 6.9259 19.3255 6.75949 19.4703 6.62177C19.6137 6.48548 19.7829 6.3787 19.9682 6.30761C20.1536 6.23651 20.3513 6.20252 20.55 6.20759C21.0169 6.20759 21.3833 6.34565 21.6492 6.62177C21.7834 6.76527 21.8877 6.93358 21.9561 7.11705C22.0245 7.30052 22.0557 7.49555 22.048 7.69098C22.0561 7.89243 22.0233 8.09345 21.9514 8.28209C21.8796 8.47072 21.7702 8.64314 21.6297 8.78909C21.4829 8.93238 21.3077 9.04402 21.1152 9.11697C20.9227 9.18991 20.717 9.22258 20.5111 9.21292ZM19.1687 19.5967V10.3881C19.1687 10.2725 19.2204 10.2147 19.3244 10.2147H21.7173C21.8209 10.2147 21.8728 10.2725 21.8729 10.3881V19.5967C21.8729 19.7252 21.821 19.7895 21.7173 19.7894H19.3438C19.2271 19.7894 19.1688 19.7251 19.1687 19.5967Z" fill="#FF9A00"/>
</g>
<defs>
<clipPath id="clip0_158_91">
<rect width="29" height="28" fill="white"/>
</clipPath>
</defs>
</svg>
