<svg width="29" height="28" viewBox="0 0 29 28" fill="none" xmlns="http://www.w3.org/2000/svg">
<g clip-path="url(#clip0_158_92)">
<path d="M23.8646 0H5.13542C2.2992 0 0 2.27684 0 5.08547V22.9145C0 25.7232 2.2992 28 5.13542 28H23.8646C26.7008 28 29 25.7232 29 22.9145V5.08547C29 2.27684 26.7008 0 23.8646 0Z" fill="#001E36"/>
<path d="M6.53027 19.6353V7.32505C6.53027 7.23534 6.56921 7.1902 6.64704 7.1902C6.8543 7.1902 7.04356 7.18719 7.329 7.18056C7.61415 7.17425 7.92218 7.16783 8.25307 7.16131C8.58383 7.15497 8.93402 7.14854 9.30364 7.14203C9.67322 7.13572 10.0396 7.1325 10.4028 7.13239C11.3883 7.13239 12.2183 7.2544 12.8929 7.49843C13.5014 7.70226 14.0564 8.03791 14.5173 8.48093C14.9081 8.86494 15.2101 9.32833 15.4025 9.83912C15.5845 10.3362 15.6767 10.8612 15.6749 11.3899C15.6749 12.4176 15.4349 13.2653 14.9551 13.9329C14.472 14.6033 13.793 15.111 13.0096 15.3874C12.1926 15.6893 11.2846 15.7917 10.2861 15.7917C10.0006 15.7917 9.79959 15.7885 9.68296 15.7821C9.56626 15.7758 9.39118 15.7725 9.15774 15.7725V19.6161C9.16113 19.6397 9.15894 19.6637 9.15134 19.6862C9.14374 19.7088 9.13094 19.7293 9.11395 19.7461C9.09696 19.763 9.07624 19.7756 9.05345 19.7832C9.03066 19.7907 9.00641 19.7928 8.98262 19.7895H6.66645C6.57559 19.7895 6.53027 19.7383 6.53027 19.6353ZM9.15773 9.50198V13.5171C9.32612 13.53 9.48174 13.5365 9.6246 13.5364H10.2666C10.739 13.5348 11.2082 13.4606 11.6576 13.3165C12.043 13.2031 12.3874 12.9824 12.6497 12.6807C12.9026 12.3854 13.0291 11.9744 13.0291 11.4478C13.0394 11.0751 12.9415 10.7074 12.747 10.3882C12.5425 10.0795 12.2471 9.84074 11.9007 9.70428C11.4485 9.53021 10.9655 9.44831 10.4806 9.46347C10.1693 9.46347 9.8937 9.46668 9.65381 9.47309C9.41367 9.47972 9.24832 9.48935 9.15773 9.50198V9.50198Z" fill="#31A8FF"/>
<path d="M23.1966 12.7871C22.831 12.601 22.4416 12.4649 22.0391 12.3825C21.5956 12.2817 21.1421 12.23 20.6871 12.2284C20.4409 12.2218 20.1951 12.251 19.9575 12.3151C19.8063 12.3484 19.6719 12.4337 19.5781 12.5559C19.5147 12.6536 19.481 12.7673 19.4809 12.8834C19.4845 12.9961 19.5255 13.1044 19.5976 13.1916C19.7112 13.3233 19.8501 13.4313 20.0061 13.5095C20.2835 13.6574 20.5693 13.7893 20.8621 13.9044C21.515 14.1209 22.1389 14.4152 22.72 14.781C23.1158 15.0284 23.4434 15.3693 23.6733 15.7731C23.8665 16.1555 23.9633 16.5786 23.9553 17.0061C23.967 17.5706 23.8041 18.1252 23.4885 18.5955C23.1506 19.0728 22.6812 19.4439 22.1364 19.6646C21.5461 19.9214 20.8165 20.0499 19.9478 20.05C19.3959 20.0555 18.8449 20.0038 18.3039 19.8958C17.8776 19.8184 17.4627 19.689 17.0686 19.5105C17.026 19.4888 16.9906 19.4555 16.9665 19.4145C16.9424 19.3736 16.9306 19.3267 16.9324 19.2793V17.1987C16.93 17.1784 16.9333 17.1577 16.9419 17.1391C16.9505 17.1204 16.964 17.1044 16.981 17.0928C16.9978 17.0834 17.0169 17.0793 17.0361 17.0811C17.0552 17.0828 17.0733 17.0902 17.088 17.1024C17.5535 17.3742 18.0589 17.5724 18.586 17.69C19.0506 17.8053 19.5272 17.8667 20.0061 17.873C20.46 17.873 20.7939 17.8152 21.008 17.6996C21.1047 17.6558 21.1865 17.5852 21.2435 17.4963C21.3004 17.4074 21.3302 17.304 21.329 17.1987C21.329 17.032 21.2318 16.8714 21.0372 16.7171C20.8427 16.563 20.4471 16.3768 19.8505 16.1584C19.2396 15.9479 18.6605 15.6562 18.1288 15.2915C17.7485 15.0296 17.4354 14.6832 17.2145 14.2801C17.0231 13.9005 16.9264 13.481 16.9324 13.0568C16.9313 12.547 17.0727 12.047 17.3409 11.6119C17.6467 11.1328 18.0859 10.7515 18.6055 10.5138C19.176 10.2314 19.8893 10.0902 20.7454 10.09C21.2468 10.086 21.7477 10.1214 22.2434 10.1959C22.6024 10.241 22.9533 10.335 23.2863 10.4753C23.3127 10.4828 23.337 10.4962 23.3572 10.5146C23.3775 10.533 23.3931 10.5558 23.403 10.5812C23.4161 10.6283 23.4227 10.6769 23.4224 10.7257V12.6715C23.4238 12.6941 23.4191 12.7167 23.4089 12.737C23.3986 12.7573 23.3832 12.7745 23.3641 12.7871C23.3381 12.7999 23.3094 12.8065 23.2804 12.8065C23.2513 12.8065 23.2227 12.7999 23.1966 12.7871Z" fill="#31A8FF"/>
</g>
<defs>
<clipPath id="clip0_158_92">
<rect width="29" height="28" fill="white"/>
</clipPath>
</defs>
</svg>
