<?xml version="1.0" encoding="UTF-8"?>
<svg id="_レイヤー_2" xmlns="http://www.w3.org/2000/svg" version="1.1" viewBox="0 0 44 44">
  <!-- Generator: Adobe Illustrator 29.7.1, SVG Export Plug-In . SVG Version: 2.1.1 Build 8)  -->
  <defs>
    <style>
      .st0 {
        fill: #e94b01;
      }
    </style>
  </defs>
  <g id="material">
    <path class="st0" d="M27.4,25.4c3.4-2.5,8.6-3.4,16.6-3.4-8,0-13.2-.8-16.6-3.4,1-2.4,3.1-4.9,6.2-8-3.1,3.1-5.7,5.1-8.1,6.2-2.7-3.4-3.5-8.6-3.5-16.8,0,8.1-.9,13.4-3.5,16.7-2.3-1-4.9-3.1-7.9-6.1,3.1,3,5.1,5.5,6.2,7.8-3.4,2.7-8.6,3.5-16.8,3.5,8.1,0,13.4.9,16.8,3.5-1.1,2.3-3.1,4.8-6.2,7.8,3-3,5.6-5,7.9-6.1,2.6,3.4,3.5,8.6,3.5,16.7,0-8.2.9-13.5,3.5-16.8,2.4,1,5,3.1,8.1,6.2-3.1-3.1-5.2-5.6-6.2-8Z"/>
  </g>
</svg>