<?xml version="1.0" encoding="UTF-8"?>
<svg id="_レイヤー_2" data-name="レイヤー 2" xmlns="http://www.w3.org/2000/svg" xmlns:xlink="http://www.w3.org/1999/xlink" viewBox="0 0 244.2 244.2">
  <defs>
    <style>
      .cls-1 {
        fill: url(#_名称未設定グラデーション_170);
      }
    </style>
    <linearGradient id="_名称未設定グラデーション_170" data-name="名称未設定グラデーション 170" x1="16" y1="44.02" x2="212.68" y2="188.76" gradientUnits="userSpaceOnUse">
      <stop offset=".18" stop-color="#e94b01"/>
      <stop offset=".82" stop-color="#009984"/>
    </linearGradient>
  </defs>
  <g id="material">
    <path class="cls-1" d="M151.28,141.49c18.61-14.57,47.93-19.39,92.92-19.39-44.98,0-74.31-4.82-92.92-19.39,5.72-12.9,17-26.8,33.84-43.64-16.84,16.84-30.74,28.12-43.64,33.84-14.57-18.61-19.39-47.93-19.39-92.92,0,44.98-4.82,74.31-19.39,92.92-12.9-5.72-26.8-17-43.64-33.84,16.84,16.84,28.12,30.74,33.84,43.64-18.61,14.57-47.93,19.39-92.92,19.39,44.99,0,74.31,4.82,92.92,19.39-5.72,12.9-17,26.8-33.84,43.64,16.84-16.84,30.74-28.12,43.64-33.84,14.57,18.61,19.39,47.93,19.39,92.92,0-44.99,4.82-74.31,19.39-92.92,12.9,5.72,26.8,17,43.64,33.84-16.84-16.84-28.12-30.74-33.84-43.64Z"/>
  </g>
</svg>