<?xml version="1.0" encoding="UTF-8"?>
<svg id="_レイヤー_2" data-name="レイヤー 2" xmlns="http://www.w3.org/2000/svg" viewBox="0 0 962 102.66">
  <defs>
    <style>
      .cls-1, .cls-2, .cls-3 {
        fill: none;
      }

      .cls-2 {
        stroke-width: 1.79px;
      }

      .cls-2, .cls-3 {
        stroke: #f8b40f;
        stroke-miterlimit: 10;
      }

      .cls-3 {
        stroke-width: 2px;
      }

      .cls-4 {
        fill: #f8b40f;
      }
    </style>
  </defs>
  <g id="_レイヤー_1-2" data-name="レイヤー 1">
    <line class="cls-3" x1="42" y1="97.26" x2="906" y2="97.26"/>
    <rect class="cls-4" x="182.18" y="93.44" width="7.64" height="7.64" transform="translate(123.25 -103.04) rotate(45)"/>
    <rect class="cls-4" x="38.18" y="93.44" width="7.64" height="7.64" transform="translate(81.07 -1.21) rotate(45)"/>
    <line class="cls-2" x1="42" y1="79.26" x2="42" y2="55.26"/>
    <line class="cls-2" x1="186" y1="79.26" x2="186" y2="43.26"/>
    <rect class="cls-4" x="326.18" y="93.44" width="7.64" height="7.64" transform="translate(165.43 -204.86) rotate(45)"/>
    <rect class="cls-4" x="470.18" y="93.44" width="7.64" height="7.64" transform="translate(207.6 -306.68) rotate(45)"/>
    <line class="cls-2" x1="330" y1="79.26" x2="330" y2="55.26"/>
    <g>
      <rect class="cls-1" x="0" y="35" width="84" height="14.23"/>
      <path class="cls-4" d="M1.67,38.92v-.94h9.43l.6.72c-.38.64-.9,1.32-1.55,2.04-.65.72-1.32,1.34-1.99,1.87l-.55-.81c.45-.36.92-.81,1.41-1.35s.91-1.05,1.26-1.54H1.67ZM3.08,46.99c.44-.27.81-.56,1.13-.85.31-.3.62-.67.92-1.11.3-.44.52-.98.67-1.61.15-.63.23-1.35.23-2.15v-1.41h1.04v1.38c0,3.04-1.1,5.21-3.29,6.51l-.68-.75Z"/>
      <path class="cls-4" d="M15.72,43.27c1.94-.83,3.53-1.74,4.76-2.74s2.34-2.2,3.32-3.59l.85.59c-.97,1.36-1.93,2.44-2.9,3.25v6.92s-1.04,0-1.04,0v-6.1c-1.18.92-2.66,1.76-4.46,2.52l-.53-.85Z"/>
      <path class="cls-4" d="M29.53,41.74v-.94h10.65v.94h-4.29c0,1.24-.17,2.37-.5,3.38s-.96,1.9-1.87,2.65l-.82-.64c.82-.71,1.38-1.49,1.68-2.34.3-.85.45-1.87.45-3.04h-5.3ZM31.45,38.58v-.96h6.81v.96h-6.81ZM38.02,36.8l.57-.55c.79.67,1.4,1.28,1.82,1.85l-.59.53c-.53-.66-1.13-1.27-1.8-1.83ZM39.24,35.88l.57-.55c.79.67,1.4,1.28,1.82,1.85l-.59.53c-.53-.66-1.13-1.27-1.8-1.83Z"/>
      <path class="cls-4" d="M43.67,38.92v-.94h9.43l.6.72c-.38.64-.9,1.32-1.55,2.04-.65.72-1.32,1.34-1.99,1.87l-.55-.81c.45-.36.92-.81,1.41-1.35s.91-1.05,1.26-1.54h-8.61ZM45.08,46.99c.44-.27.81-.56,1.13-.85.31-.3.62-.67.92-1.11.3-.44.52-.98.67-1.61.15-.63.23-1.35.23-2.15v-1.41h1.04v1.38c0,3.04-1.1,5.21-3.29,6.51l-.68-.75Z"/>
      <path class="cls-4" d="M67.58,42.75l1.25.08c-.01.1-.08.17-.28.18v5.57h-.97v-.88h-9.1v.92h-.94v-5.88l1.23.07c-.01.11-.1.18-.29.2v3.77h3.98v-4.97h-4.38v-4.85l1.23.08c-.01.08-.1.15-.29.18v3.66h3.45v-5.23l1.25.08c-.01.1-.1.17-.28.2v4.95h3.59v-3.94l1.25.08c-.01.1-.08.17-.28.2v4.58h-4.55v4.97h4.16v-4.03Z"/>
      <path class="cls-4" d="M73.66,44.36v-7.34h1.03v7.14c0,.82.2,1.45.59,1.87.4.43,1.04.64,1.93.64,1.21,0,2.46-.77,3.75-2.31l.7.67c-1.45,1.73-2.93,2.6-4.44,2.6-1.07,0-1.93-.26-2.58-.77-.65-.52-.98-1.35-.98-2.5Z"/>
    </g>
    <g>
      <path class="cls-4" d="M132.32,30.33v-.96h7.36v-4.77h-7.34v-.96h8.39v7.31h-1.05v-.63h-7.36Z"/>
      <path class="cls-4" d="M146.47,30.28c2.25-.08,4.12-.6,5.62-1.56,1.5-.96,2.68-2.34,3.55-4.14l.88.51c-.97,1.9-2.28,3.38-3.93,4.46s-3.64,1.64-5.96,1.69l-.16-.96ZM146.88,23.11l.66-.75c.88.57,1.78,1.31,2.72,2.21l-.72.72c-.86-.88-1.74-1.6-2.65-2.19Z"/>
      <path class="cls-4" d="M163.82,25.9v3.53c0,.45.1.77.29.96s.52.29.97.29h4.73l-.16.94h-4.84c-1.35,0-2.02-.64-2.02-1.93v-3.6l-3.32.62-.19-.93,3.51-.64v-3.54h1.04v3.35l5.2-.97.77.57c-.72,1.65-1.6,3.02-2.65,4.12l-.82-.57c.88-.96,1.59-1.97,2.11-3.05l-4.59.86Z"/>
      <path class="cls-4" d="M173.67,23.59v-.96h8.52l.6.71c-.09,1.09-.37,2.12-.83,3.08s-1.05,1.78-1.75,2.45c-.7.68-1.46,1.25-2.28,1.72-.82.46-1.66.82-2.54,1.05l-.53-.88c.94-.29,1.79-.65,2.54-1.07.75-.42,1.37-.86,1.86-1.33.49-.46.9-.97,1.25-1.53.35-.56.6-1.1.77-1.62.17-.52.29-1.07.36-1.63h-7.97ZM182.79,22.06c0-.38.13-.71.38-.97.26-.26.58-.4.98-.4s.72.13.98.4c.26.26.39.59.39.97s-.13.7-.39.96c-.26.26-.59.38-.98.38s-.72-.13-.98-.4c-.26-.26-.39-.58-.39-.94ZM183.43,22.06c0,.21.07.38.21.52s.31.21.52.21.37-.07.51-.2c.14-.13.21-.31.21-.53s-.07-.4-.2-.54c-.13-.14-.31-.21-.53-.21s-.38.07-.52.21-.21.32-.21.55Z"/>
      <path class="cls-4" d="M191.43,31.74v-10.31h1.04v3.75c1.78.54,3.46,1.22,5.06,2.05l-.44.88c-1.2-.66-2.74-1.3-4.62-1.93v5.56h-1.04Z"/>
      <path class="cls-4" d="M201.38,27.34c0-1.08.28-2.07.84-2.95.56-.88,1.28-1.55,2.15-2.02.88-.47,1.8-.7,2.78-.7,1.61,0,2.87.42,3.78,1.27.91.85,1.36,1.95,1.36,3.31,0,1.08-.34,2.1-1.03,3.04s-1.69,1.68-3.01,2.22l-.62-.82c.5-.21.96-.45,1.37-.72.41-.27.79-.58,1.13-.94.35-.36.62-.78.81-1.25.2-.47.29-.98.29-1.53,0-1.11-.39-1.99-1.16-2.63-.77-.64-1.73-.97-2.86-.98-.08,2.03-.25,3.54-.51,4.51-.33,1.2-.73,2.08-1.22,2.62-.48.55-1.06.82-1.72.82-.74,0-1.32-.28-1.76-.85-.43-.56-.65-1.37-.65-2.41ZM206.18,22.76c-1.09.23-1.99.78-2.69,1.64-.7.87-1.05,1.85-1.05,2.94,0,.82.14,1.41.41,1.76s.59.53.94.53.71-.23,1.05-.7c.33-.47.63-1.17.89-2.11.26-.95.41-2.3.45-4.06Z"/>
      <path class="cls-4" d="M219.83,22.42v.78h-5.35v-.78h5.35ZM219.34,28.13v4.12h-3.38v.66h-.84v-4.78h4.22ZM215.13,25.09v-.77h4.22v.77h-4.22ZM215.13,27v-.77h4.22v.77h-4.22ZM219.31,20.55v.77h-4.09v-.77h4.09ZM218.5,28.93h-2.54v2.52h2.54v-2.52ZM221.88,21.37v.87c0,1.21-.31,2.7-1.82,3.7-.14-.18-.49-.5-.69-.63,1.39-.9,1.61-2.09,1.61-3.08v-1.72h4.41v3.54c0,.31.04.36.29.36h.78c.27,0,.31-.18.34-1.58.18.15.56.29.8.35-.07,1.65-.31,2.06-1.04,2.06h-1.01c-.83,0-1.06-.25-1.06-1.18v-2.69h-2.62ZM226.2,26.17l.62.25c-.01.07-.07.11-.11.15-.48,1.67-1.33,3.01-2.42,4.05.95.74,2.07,1.29,3.36,1.61-.21.2-.48.57-.62.81-1.33-.39-2.48-.99-3.46-1.81-1.08.84-2.33,1.44-3.64,1.82-.1-.24-.32-.63-.52-.83,1.25-.32,2.44-.85,3.47-1.62-.88-.91-1.58-1.99-2.07-3.25l.84-.27c.43,1.12,1.09,2.1,1.93,2.93.84-.8,1.53-1.78,1.97-2.96h-5.53v-.87h6.01l.17-.03Z"/>
      <path class="cls-4" d="M235.46,28.68v3.05c.74.14,1.55.18,2.44.18.49,0,2.96,0,3.6-.01-.15.24-.32.67-.36.95h-3.28c-3.01,0-5.2-.52-6.5-3.03-.5,1.37-1.22,2.52-2.2,3.29-.15-.18-.49-.46-.71-.62,1.54-1.13,2.35-3.28,2.67-5.9l1.21.2c-.03.1-.11.17-.28.17-.08.56-.2,1.11-.32,1.64.59,1.57,1.54,2.41,2.77,2.86v-6.16h-3.57v-.9h8.24v.9h-3.7v2.48h4.3v.9h-4.3ZM230.06,22.64v2.12h-.92v-3.01h5.35v-1.72l1.27.08c-.01.1-.1.17-.29.2v1.44h5.41v3.01h-.97v-2.12h-9.85Z"/>
    </g>
    <rect class="cls-4" x="758.18" y="93.44" width="7.64" height="7.64" transform="translate(291.96 -510.33) rotate(45)"/>
    <line class="cls-2" x1="762" y1="79.26" x2="762" y2="43.26"/>
    <g>
      <rect class="cls-1" x="696.76" y="13.39" width="130.48" height="14"/>
      <path class="cls-4" d="M701.83,23.42v-7.52h1.04v3.23c2.15-.21,4.24-.66,6.28-1.35l.37.92c-2.28.74-4.49,1.2-6.64,1.39v3.12c0,.78.41,1.18,1.22,1.18h5.55l-.15.94h-5.62c-.65,0-1.15-.17-1.5-.52s-.53-.81-.53-1.38ZM708.17,15.02l.57-.55c.79.67,1.4,1.28,1.82,1.85l-.59.53c-.53-.66-1.13-1.27-1.8-1.83ZM709.39,14.11l.57-.55c.79.67,1.4,1.28,1.82,1.85l-.59.53c-.53-.66-1.13-1.27-1.8-1.83Z"/>
      <path class="cls-4" d="M715.23,19.1l.56-.81c.91.5,1.77,1.07,2.58,1.7l-.64.79c-.87-.69-1.7-1.25-2.5-1.68ZM716.46,24.83c3.84-1.19,6.6-3.21,8.3-6.04l.81.6c-1.66,2.91-4.53,5.02-8.61,6.33l-.49-.89ZM716.8,16.1l.55-.82c1.1.61,1.96,1.18,2.58,1.71l-.64.77c-.58-.49-1.41-1.04-2.49-1.65ZM722.2,15.91l.57-.55c.79.67,1.4,1.28,1.82,1.85l-.59.53c-.53-.66-1.13-1.27-1.8-1.83ZM723.42,15l.57-.55c.79.67,1.4,1.28,1.82,1.85l-.59.53c-.53-.66-1.13-1.27-1.8-1.83Z"/>
      <path class="cls-4" d="M729.25,24.72v-.93h5.67v-3.91h-4.25v-.93h5.26v4.84h2.6v.93h-9.28Z"/>
      <path class="cls-4" d="M742.67,17.2v-.94h9.43l.6.72c-.38.64-.9,1.32-1.55,2.04-.65.72-1.32,1.34-1.99,1.87l-.55-.81c.45-.36.92-.81,1.41-1.35s.91-1.05,1.26-1.54h-8.61ZM744.07,25.26c.44-.27.81-.56,1.13-.85.31-.3.62-.67.92-1.11.3-.44.52-.98.67-1.61.15-.63.22-1.35.22-2.15v-1.41h1.04v1.38c0,3.04-1.1,5.2-3.29,6.51l-.68-.75Z"/>
      <path class="cls-4" d="M756.54,24.68c1.39-1.45,2.09-3.29,2.09-5.52v-2.45h1.04v2.45c0,1.21-.18,2.32-.53,3.32s-.94,1.94-1.76,2.82l-.83-.62ZM761.94,24.87v-8.72h1.04v7.94c1.64-.93,3.08-2.14,4.32-3.64l.64.78c-.66.82-1.46,1.61-2.42,2.37s-1.94,1.37-2.94,1.83l-.64-.56Z"/>
      <path class="cls-4" d="M770.53,20.01v-.94h10.65v.94h-4.29c0,1.24-.17,2.37-.5,3.38-.33,1.01-.96,1.9-1.87,2.65l-.82-.64c.82-.71,1.38-1.49,1.68-2.34.3-.85.45-1.87.45-3.04h-5.3ZM772.44,16.86v-.96h6.81v.96h-6.81ZM779.02,15.08l.57-.55c.79.67,1.4,1.28,1.82,1.85l-.59.53c-.53-.66-1.13-1.27-1.8-1.83ZM780.24,14.16l.57-.55c.79.67,1.4,1.28,1.82,1.85l-.59.53c-.53-.66-1.13-1.27-1.8-1.83Z"/>
      <path class="cls-4" d="M783.9,19.1v-.94h2.87v-2.83h1.04v2.83h3.58v-3.16h1.04v3.16h3.17v.94h-3.17c0,1.59-.3,2.91-.91,3.95-.61,1.04-1.6,1.92-2.97,2.64l-.68-.79c1.37-.74,2.3-1.55,2.79-2.44s.74-2.01.74-3.36h-3.58v2.73h-1.04v-2.73h-2.87ZM793.16,15.24l.57-.55c.79.67,1.4,1.28,1.82,1.85l-.59.53c-.53-.66-1.13-1.27-1.8-1.83ZM794.37,14.33l.57-.55c.79.67,1.4,1.28,1.82,1.85l-.59.53c-.53-.66-1.13-1.27-1.8-1.83Z"/>
      <path class="cls-4" d="M798.72,21.55c1.94-.83,3.53-1.74,4.76-2.74s2.34-2.19,3.32-3.59l.85.59c-.97,1.36-1.93,2.44-2.9,3.25v6.92s-1.04,0-1.04,0v-6.1c-1.18.92-2.66,1.76-4.46,2.52l-.53-.85Z"/>
      <path class="cls-4" d="M813.47,24.12c2.25-.08,4.12-.6,5.62-1.56,1.5-.96,2.68-2.34,3.55-4.14l.88.51c-.97,1.9-2.28,3.38-3.93,4.46s-3.64,1.64-5.96,1.69l-.16-.96ZM813.88,16.95l.66-.75c.88.57,1.78,1.31,2.72,2.21l-.72.72c-.86-.88-1.74-1.6-2.65-2.19Z"/>
    </g>
    <line class="cls-2" x1="474" y1="79.1" x2="474" y2="43.1"/>
    <g>
      <rect class="cls-1" x="408.76" width="130.48" height="35"/>
      <path class="cls-4" d="M447.41,7.87l3.35-3.35c.49-.49.88-.74,1.18-.74.19,0,.37.06.54.18.17.12.43.37.77.73,2.05,2.1,3.8,3.66,5.24,4.7l-.68.74c-.67-.5-1.5-1.21-2.52-2.14s-1.88-1.76-2.61-2.51c-.04-.04-.09-.1-.17-.18-.08-.08-.13-.14-.17-.17-.04-.03-.08-.07-.14-.12s-.1-.08-.14-.1c-.04-.02-.08-.03-.1-.03-.12,0-.35.17-.7.52l-3.14,3.17-.7-.71ZM454.85,2.93c0-.38.13-.71.38-.97.26-.26.58-.4.98-.4s.72.13.98.4c.26.26.39.59.39.97s-.13.7-.39.96c-.26.26-.59.38-.98.38s-.72-.13-.98-.4c-.26-.26-.39-.58-.39-.94ZM455.49,2.93c0,.21.07.38.21.52s.31.21.52.21.37-.07.51-.2c.14-.13.21-.31.21-.53s-.07-.4-.2-.54c-.13-.14-.31-.21-.53-.21s-.38.07-.52.21-.21.32-.21.55Z"/>
      <path class="cls-4" d="M461.54,11.29c1.39-1.45,2.09-3.29,2.09-5.52v-2.45h1.04v2.45c0,1.21-.18,2.32-.53,3.32-.36,1-.94,1.94-1.76,2.82l-.83-.62ZM466.95,11.48V2.75h1.04v7.94c1.64-.93,3.08-2.14,4.32-3.64l.64.78c-.66.82-1.46,1.61-2.42,2.37-.96.76-1.94,1.37-2.94,1.83l-.64-.56Z"/>
      <path class="cls-4" d="M476.67,3.48l.82-.56c.88.99,1.61,2.06,2.17,3.21l-.89.49c-.52-1.11-1.22-2.16-2.11-3.14ZM478.39,11.74c1.91-.86,3.35-1.99,4.31-3.41.96-1.42,1.52-3.2,1.67-5.34l1.04.12c-.08,1.27-.31,2.43-.68,3.48-.37,1.05-.86,1.96-1.46,2.71-.6.76-1.25,1.4-1.96,1.93-.7.53-1.48.98-2.32,1.35l-.6-.85Z"/>
      <path class="cls-4" d="M489.13,5.72v-.96h5.2V1.65h1.04v3.12h4.92v.96h-4.92v.86c-.07,2.79-1.18,4.8-3.34,6.03l-.68-.71c.43-.26.81-.54,1.13-.83.33-.29.64-.65.92-1.07.29-.42.51-.91.67-1.48.16-.57.24-1.2.25-1.89v-.9h-5.2Z"/>
      <path class="cls-4" d="M460.62,27.98c0-1.67.41-2.98,1.22-3.94.81-.96,1.86-1.44,3.16-1.44.8,0,1.48.22,2.04.66s.98.97,1.27,1.58l-.93.33c-.61-1.09-1.41-1.64-2.41-1.64s-1.77.4-2.35,1.21c-.58.81-.88,1.88-.88,3.23s.3,2.45.89,3.23c.59.79,1.37,1.18,2.34,1.18.61,0,1.14-.17,1.6-.51.46-.34.8-.76,1.03-1.26l.98.31c-.31.67-.76,1.23-1.35,1.7-.59.47-1.34.7-2.23.7-1.29,0-2.34-.48-3.15-1.43-.82-.95-1.22-2.26-1.22-3.93Z"/>
      <path class="cls-4" d="M469.13,31.45l.98-.37c.13.41.33.73.62.96s.63.35,1.02.35c1.08,0,1.61-.76,1.61-2.28v-7.26h1.09v7.44c0,1-.23,1.76-.69,2.28-.46.51-1.12.77-1.99.77-1.36,0-2.24-.63-2.65-1.89Z"/>
      <path class="cls-4" d="M477.3,33.09v-10.24h1.42l2.24,5.51c.15.38.34.9.59,1.57.25.66.38,1,.39,1.03h.05c.05-.14.39-1,1-2.6l2.23-5.51h1.45v10.24h-1.09v-5.78c0-.74.04-1.77.14-3.1h-.05l-.52,1.37-2.68,6.75h-.96l-2.68-6.75-.55-1.37h-.05c.11,1.47.16,2.5.16,3.1v5.78h-1.09Z"/>
    </g>
    <g>
      <rect class="cls-1" x="298.51" y="35" width="63.06" height="14"/>
      <path class="cls-4" d="M307.05,43.03c0,3.21-1.65,4.46-3.78,4.46-1.99,0-3.57-1.16-3.57-4.38v-6.44h1.16v6.46c0,2.42,1.06,3.4,2.46,3.4,1.54,0,2.56-1.04,2.56-3.4v-6.46h1.16v6.37Z"/>
      <path class="cls-4" d="M309.43,36.65h1.16v10.67h-1.16v-10.67Z"/>
      <path class="cls-4" d="M320.34,43.03c0,3.21-1.65,4.46-3.78,4.46-1.99,0-3.57-1.16-3.57-4.38v-6.44h1.16v6.46c0,2.42,1.06,3.4,2.47,3.4,1.54,0,2.56-1.04,2.56-3.4v-6.46h1.16v6.37Z"/>
      <path class="cls-4" d="M329.68,47.32h-1.33l-1.4-2.47c-.53-.9-.87-1.47-1.2-2.12h-.03c-.31.64-.62,1.21-1.15,2.12l-1.3,2.47h-1.33l3.17-5.41-3.04-5.27h1.33l1.44,2.61c.38.67.67,1.2.97,1.81h.04c.31-.64.59-1.13.97-1.81l1.47-2.61h1.33l-3.14,5.2,3.21,5.48Z"/>
      <path class="cls-4" d="M346.91,38.89h-7.21c-.06.78-.13,1.61-.24,2.44h5l.21-.03.56.1c-.01.1-.03.21-.06.29-.29,4.22-.57,5.79-1.13,6.34-.38.41-.76.48-1.64.48-.5,0-1.21-.03-1.91-.07-.03-.27-.15-.66-.34-.92,1.04.1,2.04.1,2.4.1s.52-.01.67-.15c.43-.39.71-1.81.97-5.24h-4.89c-.48,2.49-1.58,4.93-4.52,6.33-.14-.24-.42-.57-.67-.76,3.96-1.79,4.4-5.58,4.57-8.91h-4.44v-.91h5.8v-2.52l1.25.08c-.01.1-.1.17-.28.2v2.24h5.91v.91Z"/>
      <path class="cls-4" d="M351.82,39.91v1.74h2.55v.84h-2.55v3.88c.8-.13,1.64-.27,2.45-.41l.04.81c-2.07.39-4.26.77-5.65,1.01,0,.11-.08.18-.18.2l-.32-1.06c.76-.1,1.72-.25,2.77-.41v-4.02h-2.68v-.84h2.68v-1.74h-1.74v-.36c-.21.21-.43.42-.66.63-.14-.21-.45-.53-.66-.67,1.42-1.19,2.47-2.77,3.05-3.99l1.16.18c-.03.1-.1.17-.28.18,1.02.73,2.21,1.72,2.8,2.38l-.59.76c-.55-.66-1.65-1.62-2.63-2.38-.46.77-1.05,1.62-1.78,2.45h3.99v.83h-1.79ZM349.37,45.96c-.08-.73-.36-1.82-.7-2.66l.71-.2c.35.83.66,1.92.73,2.63l-.74.22ZM354.25,43.33c-.04.08-.15.13-.29.13-.22.7-.59,1.72-.9,2.37l-.66-.24c.31-.69.67-1.82.85-2.59l1,.34ZM361.12,40.5v.94h-3.01v7.07h-.97v-7.07h-2.94v-.94h2.94v-4.94l1.25.08c-.01.1-.1.17-.28.2v4.66h3.01Z"/>
    </g>
    <line class="cls-2" x1="617.97" y1="79.03" x2="617.97" y2="55.03"/>
    <g>
      <rect class="cls-1" x="575.95" y="34.86" width="84" height="14.23"/>
      <path class="cls-4" d="M577.62,38.78v-.94h9.43l.6.72c-.38.64-.9,1.32-1.55,2.04-.65.72-1.31,1.34-1.99,1.87l-.55-.81c.45-.36.92-.81,1.41-1.35s.91-1.05,1.26-1.54h-8.61ZM579.03,46.84c.44-.27.81-.56,1.13-.85.31-.3.62-.67.92-1.11.3-.44.52-.98.67-1.61.15-.63.23-1.35.23-2.15v-1.41h1.04v1.38c0,3.04-1.1,5.2-3.29,6.51l-.68-.75Z"/>
      <path class="cls-4" d="M591.67,43.13c1.94-.83,3.53-1.74,4.76-2.74s2.34-2.19,3.32-3.59l.85.59c-.97,1.36-1.93,2.44-2.9,3.25v6.92s-1.04,0-1.04,0v-6.1c-1.18.92-2.66,1.76-4.46,2.52l-.53-.85Z"/>
      <path class="cls-4" d="M605.48,41.59v-.94h10.65v.94h-4.29c0,1.24-.17,2.37-.5,3.38-.33,1.01-.96,1.9-1.87,2.65l-.82-.64c.82-.71,1.38-1.49,1.68-2.34.3-.85.45-1.87.45-3.04h-5.3ZM607.4,38.44v-.96h6.81v.96h-6.81ZM613.97,36.66l.57-.55c.79.67,1.4,1.28,1.82,1.85l-.59.53c-.53-.66-1.13-1.27-1.8-1.83ZM615.19,35.74l.57-.55c.79.67,1.4,1.28,1.82,1.85l-.59.53c-.53-.66-1.13-1.27-1.8-1.83Z"/>
      <path class="cls-4" d="M619.62,38.78v-.94h9.43l.6.72c-.38.64-.9,1.32-1.55,2.04-.65.72-1.31,1.34-1.99,1.87l-.55-.81c.45-.36.92-.81,1.41-1.35s.91-1.05,1.26-1.54h-8.61ZM621.03,46.84c.44-.27.81-.56,1.13-.85.31-.3.62-.67.92-1.11.3-.44.52-.98.67-1.61.15-.63.23-1.35.23-2.15v-1.41h1.04v1.38c0,3.04-1.1,5.2-3.29,6.51l-.68-.75Z"/>
      <path class="cls-4" d="M644.84,44.66h-2.87c.8,1.76,1.97,2.51,3.67,3.08-.22.2-.46.53-.56.81-1.74-.67-2.94-1.53-3.8-3.36-.48,1.3-1.61,2.52-4.12,3.35-.1-.2-.36-.56-.53-.7,2.55-.83,3.54-1.96,3.91-3.18h-2.93v-3.61h3.12v-1.39h-2.24v-.67c-.39.28-.79.53-1.19.74-.04-.08-.11-.2-.17-.31h-1.58v1.15c.41.52,1.5,2.09,1.75,2.46l-.55.76c-.21-.46-.76-1.41-1.21-2.13v6.79h-.9v-6.84c-.49,1.61-1.16,3.19-1.83,4.15-.13-.25-.35-.62-.52-.83.9-1.22,1.82-3.52,2.27-5.52h-1.96v-.88h2.04v-3.08l1.16.08c-.01.08-.08.15-.27.18v2.82h1.58v.28c1.5-.81,2.93-2.12,3.61-3.33.17,0,.32.01,1.19.04-.01.08-.1.14-.2.17.91,1.25,2.54,2.52,3.98,3.18-.18.22-.38.56-.5.81-.41-.21-.84-.48-1.26-.77v.74h-2.35v1.39h3.24v3.61ZM638.45,43.87h2.24c.03-.27.04-.53.04-.8v-1.26h-2.28v2.06ZM643.83,38.83c-1.02-.73-2-1.62-2.63-2.49-.56.84-1.46,1.74-2.48,2.49h5.11ZM643.97,41.81h-2.37v1.29c0,.25-.01.52-.03.77h2.4v-2.06Z"/>
      <path class="cls-4" d="M646.43,38.62v-.79h5.59v.79h-5.59ZM651.46,43.55v4.12h-3.53v.66h-.84v-4.78h4.37ZM647.1,40.51v-.77h4.4v.77h-4.4ZM647.1,42.42v-.77h4.4v.77h-4.4ZM651.5,35.97v.77h-4.33v-.77h4.33ZM650.6,44.35h-2.67v2.52h2.67v-2.52ZM659.5,38.78v.91h-1.77v7.44c0,.71-.17,1-.62,1.16s-1.27.18-2.49.18c-.06-.27-.2-.71-.35-1,.59.01,1.13.03,1.54.03.92,0,1,0,1-.38v-7.44h-4.59v-.91h4.59v-3.31l1.2.07c-.01.11-.08.17-.28.2v3.04h1.77ZM653.75,41.2c.74,1.02,1.53,2.4,1.85,3.32l-.83.43c-.32-.91-1.09-2.33-1.81-3.36l.78-.39Z"/>
    </g>
    <rect class="cls-4" x="614.18" y="93.44" width="7.64" height="7.64" transform="translate(249.78 -408.51) rotate(45)"/>
    <g>
      <rect class="cls-1" x="850" y="35" width="112" height="14"/>
      <path class="cls-4" d="M852.2,39.04v-.96h8.52l.6.71c-.09,1.09-.37,2.12-.83,3.08s-1.05,1.78-1.75,2.45-1.46,1.25-2.28,1.72c-.82.46-1.66.82-2.54,1.05l-.53-.88c.94-.29,1.78-.65,2.54-1.07.75-.42,1.37-.86,1.86-1.33.49-.46.9-.97,1.25-1.53.35-.56.6-1.1.77-1.62.17-.52.29-1.07.36-1.63h-7.97ZM859.48,36.09l.57-.55c.79.67,1.4,1.28,1.82,1.85l-.59.53c-.53-.66-1.13-1.27-1.8-1.83ZM860.69,35.17l.57-.55c.79.67,1.4,1.28,1.82,1.85l-.59.53c-.53-.66-1.13-1.27-1.8-1.83Z"/>
      <path class="cls-4" d="M866.13,41.31v-.94h8.5l.62.67c-.11.79-.3,1.52-.56,2.18s-.63,1.29-1.1,1.89c-.47.6-1.08,1.13-1.84,1.59s-1.64.83-2.65,1.11l-.55-.89c3.14-.9,5-2.77,5.56-5.61h-7.98ZM867.1,38.3v-.94h7.11v.94h-7.11Z"/>
      <path class="cls-4" d="M880.98,40.57l.88-.48c.47.75.88,1.52,1.23,2.31l-.88.46c-.39-.91-.8-1.68-1.23-2.3ZM882.75,46.67c.86-.32,1.61-.68,2.27-1.09s1.23-.93,1.71-1.58c.83-1.12,1.29-2.61,1.38-4.46l1.03.18c-.18,2.04-.7,3.65-1.54,4.83-.49.68-1.09,1.25-1.8,1.7-.71.45-1.55.88-2.54,1.28l-.51-.86ZM883.61,39.79l.89-.44c.35.52.75,1.29,1.2,2.31l-.89.44c-.44-.98-.84-1.75-1.2-2.31Z"/>
      <path class="cls-4" d="M894.23,40.71l.56-.81c.91.5,1.77,1.07,2.58,1.7l-.64.79c-.87-.69-1.7-1.25-2.5-1.68ZM895.46,46.44c3.84-1.19,6.6-3.21,8.3-6.04l.81.6c-1.66,2.91-4.53,5.02-8.61,6.33l-.49-.89ZM895.8,37.71l.55-.82c1.1.61,1.96,1.18,2.58,1.71l-.64.77c-.58-.49-1.41-1.04-2.49-1.65Z"/>
      <path class="cls-4" d="M908.26,46.33v-.93h5.67v-3.91h-4.25v-.93h5.26v4.84h2.6v.93h-9.28Z"/>
      <path class="cls-4" d="M921.67,38.81v-.94h9.43l.6.72c-.38.64-.9,1.32-1.55,2.04-.65.72-1.31,1.34-1.99,1.87l-.55-.81c.45-.36.92-.81,1.41-1.35s.91-1.05,1.26-1.54h-8.61ZM923.08,46.87c.44-.27.81-.56,1.13-.85s.62-.67.92-1.11c.3-.44.52-.98.67-1.61s.23-1.35.23-2.15v-1.41h1.04v1.38c0,3.04-1.1,5.21-3.29,6.51l-.68-.75Z"/>
      <path class="cls-4" d="M936.98,40.57l.88-.48c.47.75.88,1.52,1.23,2.31l-.88.46c-.39-.91-.8-1.68-1.23-2.3ZM938.75,46.67c.86-.32,1.61-.68,2.27-1.09s1.23-.93,1.71-1.58c.83-1.12,1.29-2.61,1.38-4.46l1.03.18c-.18,2.04-.7,3.65-1.54,4.83-.49.68-1.09,1.25-1.8,1.7-.71.45-1.55.88-2.54,1.28l-.51-.86ZM939.61,39.79l.89-.44c.35.52.75,1.29,1.2,2.31l-.89.44c-.44-.98-.84-1.75-1.2-2.31Z"/>
      <path class="cls-4" d="M949.67,39.04v-.96h8.52l.6.71c-.09,1.09-.37,2.12-.83,3.08s-1.05,1.78-1.75,2.45-1.46,1.25-2.28,1.72c-.82.46-1.66.82-2.54,1.05l-.53-.88c.94-.29,1.78-.65,2.54-1.07.75-.42,1.37-.86,1.86-1.33.49-.46.9-.97,1.25-1.53.35-.56.6-1.1.77-1.62.17-.52.29-1.07.36-1.63h-7.97ZM958.79,37.51c0-.38.13-.71.38-.97.25-.26.58-.4.98-.4s.72.13.98.4c.26.26.39.59.39.97s-.13.7-.39.96c-.26.26-.59.38-.98.38s-.72-.13-.98-.4c-.26-.26-.39-.58-.39-.94ZM959.43,37.51c0,.21.07.38.21.52s.31.21.52.21.37-.07.51-.2c.14-.13.21-.31.21-.53s-.07-.4-.2-.54c-.13-.14-.31-.21-.53-.21s-.38.07-.52.21-.21.32-.21.55Z"/>
    </g>
    <rect class="cls-4" x="902.18" y="93.44" width="7.64" height="7.64" transform="translate(334.13 -612.15) rotate(45)"/>
    <line class="cls-2" x1="906" y1="79.26" x2="906" y2="55.26"/>
  </g>
</svg>