<?xml version="1.0" encoding="UTF-8"?>
<svg id="_レイヤー_2" data-name="レイヤー 2" xmlns="http://www.w3.org/2000/svg" viewBox="0 0 80 80">
  <defs>
    <style>
      .cls-1 {
        fill: #fff;
      }
    </style>
  </defs>
  <g id="material">
    <path class="cls-1" d="M40,16.39c1,6.53,2.8,11.14,5.56,14.67l.48.61.71-.32c1.39-.61,2.82-1.42,4.33-2.44-1.03,1.52-1.83,2.95-2.44,4.33l-.32.71.61.48c3.54,2.77,8.14,4.56,14.67,5.56-6.53,1-11.14,2.8-14.67,5.56l-.61.48.32.71c.62,1.39,1.42,2.82,2.44,4.33-1.52-1.02-2.95-1.83-4.33-2.44l-.71-.32-.48.61c-2.77,3.54-4.56,8.14-5.56,14.67-1-6.53-2.8-11.14-5.56-14.67l-.48-.61-.71.32c-1.39.61-2.82,1.42-4.33,2.44,1.03-1.52,1.83-2.95,2.44-4.33l.32-.71-.61-.48c-3.53-2.77-8.14-4.56-14.67-5.56,6.53-1,11.14-2.8,14.67-5.56l.61-.48-.32-.71c-.61-1.38-1.42-2.82-2.44-4.33,1.52,1.02,2.95,1.83,4.33,2.44l.71.32.48-.61c2.77-3.54,4.56-8.14,5.56-14.67M40,0c0,14.74-1.58,24.34-6.35,30.44-4.23-1.88-8.78-5.57-14.3-11.09,5.52,5.52,9.21,10.07,11.09,14.3-6.09,4.77-15.7,6.35-30.44,6.35,14.74,0,24.34,1.58,30.44,6.35-1.88,4.23-5.57,8.78-11.09,14.3,5.52-5.52,10.07-9.21,14.3-11.09,4.77,6.1,6.35,15.7,6.35,30.44,0-14.74,1.58-24.34,6.35-30.44,4.23,1.88,8.78,5.57,14.3,11.09-5.52-5.52-9.21-10.07-11.09-14.3,6.1-4.77,15.7-6.35,30.44-6.35-14.74,0-24.34-1.58-30.44-6.35,1.88-4.23,5.57-8.78,11.09-14.3-5.52,5.52-10.07,9.21-14.3,11.09-4.77-6.1-6.35-15.7-6.35-30.44h0Z"/>
  </g>
</svg>