<svg width="405" height="163" viewBox="0 0 405 163" fill="none" xmlns="http://www.w3.org/2000/svg">
<path d="M2.32031 27V9.11719H13.6875V11.0625H4.59375V16.8047H12.7969V18.7031H4.59375V25.0547H13.8984V27H2.32031ZM23.2434 27V14.0859H25.3997V16.1016H25.4231C25.6262 15.5234 26.0716 14.9766 26.7591 14.4609C27.4622 13.9297 28.3216 13.6641 29.3372 13.6641C30.5716 13.6641 31.5716 14.0469 32.3372 14.8125C33.1184 15.5781 33.5091 16.8594 33.5091 18.6562V27H31.2825V19.0078C31.2825 16.6797 30.47 15.5156 28.845 15.5156C27.9231 15.5156 27.1262 15.8984 26.4544 16.6641C25.7981 17.4141 25.47 18.3203 25.47 19.3828V27H23.2434Z" fill="#494541"/>
<path d="M61.8409 29V15.9091H63.8523V29H61.8409ZM62.8636 13.7273C62.4716 13.7273 62.1335 13.5938 61.8494 13.3267C61.571 13.0597 61.4318 12.7386 61.4318 12.3636C61.4318 11.9886 61.571 11.6676 61.8494 11.4006C62.1335 11.1335 62.4716 11 62.8636 11C63.2557 11 63.5909 11.1335 63.8693 11.4006C64.1534 11.6676 64.2955 11.9886 64.2955 12.3636C64.2955 12.7386 64.1534 13.0597 63.8693 13.3267C63.5909 13.5938 63.2557 13.7273 62.8636 13.7273ZM73.1476 21.125V29H71.1362V15.9091H73.0794V17.9545H73.2499C73.5567 17.2898 74.0226 16.7557 74.6476 16.3523C75.2726 15.9432 76.0794 15.7386 77.068 15.7386C77.9544 15.7386 78.73 15.9205 79.3947 16.2841C80.0595 16.642 80.5766 17.1875 80.9459 17.9205C81.3152 18.6477 81.4999 19.5682 81.4999 20.6818V29H79.4885V20.8182C79.4885 19.7898 79.2214 18.9886 78.6874 18.4148C78.1533 17.8352 77.4203 17.5455 76.4885 17.5455C75.8464 17.5455 75.2726 17.6847 74.7669 17.9631C74.2669 18.2415 73.872 18.6477 73.5822 19.1818C73.2925 19.7159 73.1476 20.3636 73.1476 21.125ZM94.4685 15.9091V17.6136H87.6844V15.9091H94.4685ZM89.6616 12.7727H91.673V25.25C91.673 25.8182 91.7554 26.2443 91.9202 26.5284C92.0906 26.8068 92.3065 26.9943 92.5679 27.0909C92.8349 27.1818 93.1162 27.2273 93.4116 27.2273C93.6332 27.2273 93.8151 27.2159 93.9571 27.1932C94.0991 27.1648 94.2128 27.142 94.298 27.125L94.7071 28.9318C94.5707 28.983 94.3804 29.0341 94.1361 29.0852C93.8918 29.142 93.5821 29.1705 93.2071 29.1705C92.6389 29.1705 92.0821 29.0483 91.5366 28.804C90.9969 28.5597 90.548 28.1875 90.1901 27.6875C89.8378 27.1875 89.6616 26.5568 89.6616 25.7955V12.7727ZM106.442 29.2727C105.181 29.2727 104.093 28.9943 103.178 28.4375C102.269 27.875 101.567 27.0909 101.073 26.0852C100.584 25.0739 100.34 23.8977 100.34 22.5568C100.34 21.2159 100.584 20.0341 101.073 19.0114C101.567 17.983 102.255 17.1818 103.135 16.608C104.022 16.0284 105.056 15.7386 106.237 15.7386C106.919 15.7386 107.593 15.8523 108.257 16.0795C108.922 16.3068 109.527 16.6761 110.073 17.1875C110.618 17.6932 111.053 18.3636 111.377 19.1989C111.701 20.0341 111.862 21.0625 111.862 22.2841V23.1364H101.772V21.3977H109.817C109.817 20.6591 109.669 20 109.374 19.4205C109.084 18.8409 108.669 18.3835 108.13 18.0483C107.595 17.7131 106.965 17.5455 106.237 17.5455C105.436 17.5455 104.743 17.7443 104.158 18.142C103.578 18.5341 103.132 19.0455 102.82 19.6761C102.507 20.3068 102.351 20.983 102.351 21.7045V22.8636C102.351 23.8523 102.522 24.6903 102.862 25.3778C103.209 26.0597 103.689 26.5795 104.303 26.9375C104.916 27.2898 105.63 27.4659 106.442 27.4659C106.97 27.4659 107.448 27.392 107.874 27.2443C108.306 27.0909 108.678 26.8636 108.99 26.5625C109.303 26.2557 109.544 25.875 109.715 25.4205L111.658 25.9659C111.453 26.625 111.11 27.2045 110.627 27.7045C110.144 28.1989 109.547 28.5852 108.837 28.8636C108.127 29.1364 107.328 29.2727 106.442 29.2727ZM118.522 29V15.9091H120.465V17.8864H120.602C120.84 17.2386 121.272 16.7131 121.897 16.3097C122.522 15.9062 123.227 15.7045 124.011 15.7045C124.159 15.7045 124.343 15.7074 124.565 15.7131C124.786 15.7187 124.954 15.7273 125.068 15.7386V17.7841C124.999 17.767 124.843 17.7415 124.599 17.7074C124.36 17.6676 124.107 17.6477 123.84 17.6477C123.204 17.6477 122.636 17.7812 122.136 18.0483C121.641 18.3097 121.249 18.6733 120.96 19.1392C120.676 19.5994 120.534 20.125 120.534 20.7159V29H118.522Z" fill="#494541"/>
<path d="M0.257812 81.9766L2.22656 81.2031C2.42969 81.875 2.77344 82.4219 3.25781 82.8438C3.74219 83.25 4.3125 83.4531 4.96875 83.4531C6.73438 83.4531 7.61719 82.2031 7.61719 79.7031V67.1172H9.91406V80.0312C9.91406 81.7812 9.49219 83.1172 8.64844 84.0391C7.80469 84.9609 6.59375 85.4219 5.01562 85.4219C3.73438 85.4219 2.69531 85.1016 1.89844 84.4609C1.11719 83.8047 0.570312 82.9766 0.257812 81.9766ZM23.0325 78.5312C23.0325 80.0469 23.3294 81.2656 23.9231 82.1875C24.5325 83.1094 25.3762 83.5703 26.4544 83.5703C27.47 83.5703 28.3059 83.125 28.9622 82.2344C29.6341 81.3281 29.97 80.0938 29.97 78.5312C29.97 77.0469 29.6497 75.8438 29.0091 74.9219C28.3841 73.9844 27.5325 73.5156 26.4544 73.5156C25.4231 73.5156 24.595 73.9844 23.97 74.9219C23.345 75.8594 23.0325 77.0625 23.0325 78.5312ZM20.8528 90.5078V72.0859H22.9622V74.1953C23.3216 73.4453 23.8294 72.8359 24.4856 72.3672C25.1575 71.8984 25.9153 71.6641 26.7591 71.6641C28.3372 71.6641 29.6341 72.2891 30.6497 73.5391C31.6809 74.7734 32.1966 76.4375 32.1966 78.5312C32.1966 80.7812 31.6497 82.4922 30.5559 83.6641C29.4778 84.8359 28.2122 85.4219 26.7591 85.4219C25.8372 85.4219 25.0559 85.1953 24.4153 84.7422C23.7747 84.2734 23.3137 83.7031 23.0325 83.0312V90.5078H20.8528Z" fill="#494541"/>
<path d="M60.424 88V70.408H62.68L69.112 81.496L71.008 85.12H71.128C71.048 84.24 70.976 83.32 70.912 82.36C70.848 81.4 70.816 80.464 70.816 79.552V70.408H72.928V88H70.648L64.24 76.888L62.344 73.288H62.248C62.296 74.168 62.352 75.072 62.416 76C62.48 76.912 62.512 77.832 62.512 78.76V88H60.424ZM86.2158 88.312C85.1598 88.312 84.1678 88.048 83.2398 87.52C82.3118 86.976 81.5678 86.2 81.0078 85.192C80.4638 84.168 80.1918 82.936 80.1918 81.496C80.1918 80.04 80.4638 78.808 81.0078 77.8C81.5678 76.776 82.3118 75.992 83.2398 75.448C84.1678 74.904 85.1598 74.632 86.2158 74.632C87.0158 74.632 87.7758 74.784 88.4958 75.088C89.2318 75.392 89.8798 75.84 90.4398 76.432C90.9998 77.024 91.4398 77.744 91.7598 78.592C92.0798 79.44 92.2398 80.408 92.2398 81.496C92.2398 82.936 91.9598 84.168 91.3998 85.192C90.8398 86.2 90.1038 86.976 89.1918 87.52C88.2798 88.048 87.2878 88.312 86.2158 88.312ZM86.2158 86.488C86.9678 86.488 87.6238 86.28 88.1838 85.864C88.7598 85.448 89.2078 84.864 89.5278 84.112C89.8478 83.36 90.0078 82.488 90.0078 81.496C90.0078 80.488 89.8478 79.608 89.5278 78.856C89.2078 78.104 88.7598 77.52 88.1838 77.104C87.6238 76.688 86.9678 76.48 86.2158 76.48C85.4638 76.48 84.7998 76.688 84.2238 77.104C83.6638 77.52 83.2238 78.104 82.9038 78.856C82.5998 79.608 82.4478 80.488 82.4478 81.496C82.4478 82.488 82.5998 83.36 82.9038 84.112C83.2238 84.864 83.6638 85.448 84.2238 85.864C84.7998 86.28 85.4638 86.488 86.2158 86.488ZM102.871 88.312C101.959 88.312 101.231 88.136 100.687 87.784C100.143 87.416 99.7508 86.904 99.5108 86.248C99.2868 85.592 99.1748 84.832 99.1748 83.968V76.744H97.2308V75.088L99.2948 74.968L99.5348 71.296H101.359V74.968H104.911V76.744H101.359V84.04C101.359 84.824 101.503 85.44 101.791 85.888C102.095 86.32 102.623 86.536 103.375 86.536C103.615 86.536 103.871 86.504 104.143 86.44C104.415 86.36 104.655 86.272 104.863 86.176L105.295 87.832C104.927 87.96 104.535 88.072 104.119 88.168C103.703 88.264 103.287 88.312 102.871 88.312ZM116.08 88.312C115.024 88.312 114.032 88.048 113.104 87.52C112.176 86.976 111.432 86.2 110.872 85.192C110.328 84.168 110.056 82.936 110.056 81.496C110.056 80.04 110.328 78.808 110.872 77.8C111.432 76.776 112.176 75.992 113.104 75.448C114.032 74.904 115.024 74.632 116.08 74.632C116.88 74.632 117.64 74.784 118.36 75.088C119.096 75.392 119.744 75.84 120.304 76.432C120.864 77.024 121.304 77.744 121.624 78.592C121.944 79.44 122.104 80.408 122.104 81.496C122.104 82.936 121.824 84.168 121.264 85.192C120.704 86.2 119.968 86.976 119.056 87.52C118.144 88.048 117.152 88.312 116.08 88.312ZM116.08 86.488C116.832 86.488 117.488 86.28 118.048 85.864C118.624 85.448 119.072 84.864 119.392 84.112C119.712 83.36 119.872 82.488 119.872 81.496C119.872 80.488 119.712 79.608 119.392 78.856C119.072 78.104 118.624 77.52 118.048 77.104C117.488 76.688 116.832 76.48 116.08 76.48C115.328 76.48 114.664 76.688 114.088 77.104C113.528 77.52 113.088 78.104 112.768 78.856C112.464 79.608 112.312 80.488 112.312 81.496C112.312 82.488 112.464 83.36 112.768 84.112C113.088 84.864 113.528 85.448 114.088 85.864C114.664 86.28 115.328 86.488 116.08 86.488ZM143.226 88.312C141.978 88.312 140.826 88.08 139.77 87.616C138.73 87.152 137.834 86.52 137.082 85.72L138.402 84.184C139.026 84.84 139.762 85.368 140.61 85.768C141.458 86.168 142.338 86.368 143.25 86.368C144.418 86.368 145.322 86.104 145.962 85.576C146.618 85.048 146.946 84.36 146.946 83.512C146.946 82.888 146.81 82.392 146.538 82.024C146.282 81.656 145.93 81.352 145.482 81.112C145.05 80.856 144.554 80.608 143.994 80.368L141.474 79.264C140.93 79.024 140.378 78.72 139.818 78.352C139.274 77.984 138.818 77.504 138.45 76.912C138.082 76.32 137.898 75.6 137.898 74.752C137.898 73.84 138.138 73.04 138.618 72.352C139.098 71.648 139.754 71.096 140.586 70.696C141.418 70.296 142.37 70.096 143.442 70.096C144.498 70.096 145.466 70.296 146.346 70.696C147.242 71.096 147.994 71.616 148.602 72.256L147.45 73.672C146.906 73.176 146.306 72.784 145.65 72.496C145.01 72.192 144.274 72.04 143.442 72.04C142.45 72.04 141.65 72.272 141.042 72.736C140.45 73.184 140.154 73.8 140.154 74.584C140.154 75.16 140.298 75.632 140.586 76C140.89 76.368 141.266 76.664 141.714 76.888C142.162 77.112 142.618 77.328 143.082 77.536L145.578 78.616C146.25 78.904 146.858 79.248 147.402 79.648C147.962 80.048 148.402 80.544 148.722 81.136C149.042 81.728 149.202 82.456 149.202 83.32C149.202 84.248 148.962 85.096 148.482 85.864C148.002 86.616 147.314 87.216 146.418 87.664C145.522 88.096 144.458 88.312 143.226 88.312ZM159.035 88.312C158.315 88.312 157.667 88.168 157.091 87.88C156.515 87.592 156.059 87.176 155.723 86.632C155.403 86.072 155.243 85.4 155.243 84.616C155.243 83.192 155.875 82.104 157.139 81.352C158.419 80.584 160.451 80.048 163.235 79.744C163.235 79.184 163.155 78.656 162.995 78.16C162.851 77.648 162.587 77.24 162.203 76.936C161.819 76.616 161.267 76.456 160.547 76.456C159.795 76.456 159.083 76.608 158.411 76.912C157.755 77.2 157.163 77.512 156.635 77.848L155.795 76.336C156.195 76.08 156.659 75.824 157.187 75.568C157.715 75.296 158.291 75.072 158.915 74.896C159.539 74.72 160.203 74.632 160.907 74.632C161.963 74.632 162.819 74.856 163.475 75.304C164.147 75.752 164.635 76.376 164.939 77.176C165.259 77.96 165.419 78.896 165.419 79.984V88H163.619L163.427 86.44H163.355C162.747 86.952 162.075 87.392 161.339 87.76C160.619 88.128 159.851 88.312 159.035 88.312ZM159.659 86.536C160.283 86.536 160.875 86.392 161.435 86.104C162.011 85.816 162.611 85.392 163.235 84.832V81.208C161.779 81.368 160.619 81.6 159.755 81.904C158.891 82.192 158.275 82.552 157.907 82.984C157.539 83.4 157.355 83.896 157.355 84.472C157.355 85.224 157.579 85.76 158.027 86.08C158.475 86.384 159.019 86.536 159.659 86.536ZM173.158 88V74.968H174.958L175.174 76.864H175.222C175.846 76.24 176.502 75.712 177.19 75.28C177.894 74.848 178.694 74.632 179.59 74.632C180.966 74.632 181.974 75.072 182.614 75.952C183.254 76.816 183.574 78.08 183.574 79.744V88H181.39V80.032C181.39 78.8 181.19 77.912 180.79 77.368C180.406 76.824 179.782 76.552 178.918 76.552C178.246 76.552 177.646 76.72 177.118 77.056C176.59 77.392 176.006 77.888 175.366 78.544V88H173.158ZM194.814 88.312C193.902 88.312 193.014 88.144 192.15 87.808C191.302 87.456 190.574 87.024 189.966 86.512L191.022 85.048C191.598 85.512 192.19 85.888 192.798 86.176C193.406 86.464 194.102 86.608 194.886 86.608C195.75 86.608 196.39 86.416 196.806 86.032C197.238 85.632 197.454 85.144 197.454 84.568C197.454 84.12 197.302 83.752 196.998 83.464C196.71 83.16 196.334 82.904 195.87 82.696C195.422 82.472 194.958 82.272 194.478 82.096C193.87 81.856 193.27 81.592 192.678 81.304C192.102 81 191.622 80.616 191.238 80.152C190.87 79.672 190.686 79.064 190.686 78.328C190.686 77.624 190.862 77 191.214 76.456C191.566 75.896 192.078 75.456 192.75 75.136C193.422 74.8 194.23 74.632 195.174 74.632C195.974 74.632 196.718 74.776 197.406 75.064C198.11 75.352 198.71 75.704 199.206 76.12L198.15 77.488C197.702 77.168 197.238 76.896 196.758 76.672C196.294 76.448 195.774 76.336 195.198 76.336C194.366 76.336 193.75 76.528 193.35 76.912C192.966 77.28 192.774 77.72 192.774 78.232C192.774 78.632 192.902 78.968 193.158 79.24C193.43 79.512 193.782 79.744 194.214 79.936C194.646 80.112 195.102 80.296 195.582 80.488C196.062 80.664 196.534 80.856 196.998 81.064C197.478 81.272 197.902 81.52 198.27 81.808C198.654 82.096 198.958 82.456 199.182 82.888C199.422 83.304 199.542 83.824 199.542 84.448C199.542 85.152 199.358 85.8 198.99 86.392C198.638 86.984 198.11 87.456 197.406 87.808C196.718 88.144 195.854 88.312 194.814 88.312ZM218.68 88.312C217.56 88.312 216.6 88.08 215.8 87.616C215.016 87.136 214.36 86.44 213.832 85.528L215.416 84.376C215.816 85.096 216.264 85.608 216.76 85.912C217.272 86.216 217.84 86.368 218.464 86.368C219.424 86.368 220.136 86.08 220.6 85.504C221.064 84.912 221.296 83.952 221.296 82.624V70.408H223.528V82.84C223.528 83.848 223.36 84.768 223.024 85.6C222.688 86.432 222.16 87.096 221.44 87.592C220.736 88.072 219.816 88.312 218.68 88.312ZM231.86 88V70.408H236.876C238.188 70.408 239.34 70.576 240.332 70.912C241.324 71.232 242.092 71.768 242.636 72.52C243.18 73.272 243.452 74.288 243.452 75.568C243.452 76.8 243.18 77.816 242.636 78.616C242.092 79.416 241.332 80.016 240.356 80.416C239.38 80.8 238.252 80.992 236.972 80.992H234.068V88H231.86ZM234.068 79.192H236.684C238.22 79.192 239.364 78.904 240.116 78.328C240.868 77.752 241.244 76.832 241.244 75.568C241.244 74.288 240.852 73.408 240.068 72.928C239.3 72.448 238.14 72.208 236.588 72.208H234.068V79.192Z" fill="#494541"/>
<path d="M2.32031 146.5V128.617H4.82812L11.0156 139.492L13.1016 143.195H13.2422C13.0391 141.742 12.9375 140.047 12.9375 138.109V128.617H15.2109V146.5H12.7031L6.51562 135.648L4.42969 131.945H4.33594C4.50781 133.57 4.59375 135.266 4.59375 137.031V146.5H2.32031ZM25.8919 141.906V133.586H28.095V141.531C28.095 143.891 28.9466 145.07 30.6497 145.07C31.6809 145.07 32.4778 144.656 33.0403 143.828C33.6028 143 33.8841 142.023 33.8841 140.898V133.586H36.0637V146.5H33.9544V144.625H33.9309C33.7591 145.141 33.3606 145.656 32.7356 146.172C32.1106 146.672 31.2512 146.922 30.1575 146.922C28.9387 146.922 27.9231 146.516 27.1106 145.703C26.2981 144.875 25.8919 143.609 25.8919 141.906ZM46.3462 146.5V133.586H48.5025V135.367C48.7369 134.836 49.1587 134.336 49.7681 133.867C50.3775 133.398 51.1353 133.164 52.0416 133.164C53.5572 133.164 54.6353 134.055 55.2759 135.836C55.3697 135.617 55.5025 135.391 55.6744 135.156C55.8462 134.906 56.0884 134.617 56.4009 134.289C56.7134 133.961 57.1275 133.695 57.6431 133.492C58.1744 133.273 58.7447 133.164 59.3541 133.164C61.9009 133.164 63.1744 134.828 63.1744 138.156V146.5H60.9712V138.297C60.9712 137.219 60.8228 136.406 60.5259 135.859C60.2291 135.297 59.6744 135.016 58.8619 135.016C58.0025 135.016 57.2837 135.383 56.7056 136.117C56.1275 136.836 55.8384 137.742 55.8384 138.836V146.5H53.6822V138.25C53.6822 136.094 52.9712 135.016 51.5494 135.016C50.6275 135.016 49.9009 135.359 49.3697 136.047C48.8384 136.734 48.5728 137.633 48.5728 138.742V146.5H46.3462ZM73.4569 146.5V127.984H75.6366V135.602C75.9022 134.992 76.3631 134.438 77.0194 133.938C77.6912 133.422 78.4725 133.164 79.3631 133.164C80.9569 133.164 82.2616 133.781 83.2772 135.016C84.2928 136.234 84.8006 137.906 84.8006 140.031C84.8006 141.219 84.6366 142.273 84.3084 143.195C83.9803 144.117 83.5428 144.844 82.9959 145.375C82.4491 145.891 81.8709 146.273 81.2616 146.523C80.6522 146.789 80.0194 146.922 79.3631 146.922C78.5037 146.922 77.7381 146.68 77.0662 146.195C76.3944 145.695 75.91 145.102 75.6131 144.414V146.5H73.4569ZM75.5897 140.031C75.5897 141.578 75.9178 142.805 76.5741 143.711C77.2459 144.617 78.0741 145.07 79.0584 145.07C80.0741 145.07 80.91 144.633 81.5662 143.758C82.2225 142.867 82.5506 141.625 82.5506 140.031C82.5506 138.5 82.2303 137.281 81.5897 136.375C80.9491 135.469 80.1053 135.016 79.0584 135.016C78.0741 135.016 77.2459 135.477 76.5741 136.398C75.9178 137.305 75.5897 138.516 75.5897 140.031ZM93.4425 139.961C93.4425 137.93 93.9972 136.289 95.1066 135.039C96.2159 133.789 97.6378 133.164 99.3722 133.164C101.107 133.164 102.489 133.781 103.521 135.016C104.567 136.25 105.091 137.828 105.091 139.75C105.091 140 105.075 140.344 105.044 140.781H95.6691C95.6691 141.969 96.005 142.992 96.6769 143.852C97.3644 144.695 98.3019 145.117 99.4894 145.117C101.083 145.117 102.247 144.43 102.982 143.055L104.833 143.641C104.427 144.594 103.763 145.383 102.841 146.008C101.935 146.617 100.81 146.922 99.4659 146.922C97.6691 146.922 96.2159 146.289 95.1066 145.023C93.9972 143.742 93.4425 142.055 93.4425 139.961ZM95.7159 139.164H102.864C102.864 137.992 102.552 137 101.927 136.188C101.302 135.375 100.45 134.969 99.3722 134.969C98.2784 134.969 97.4034 135.391 96.7472 136.234C96.0909 137.062 95.7472 138.039 95.7159 139.164ZM114.506 146.5V133.586H116.616V135.297C116.866 134.75 117.28 134.258 117.858 133.82C118.436 133.383 119.155 133.164 120.014 133.164C120.67 133.164 121.264 133.273 121.795 133.492V135.484C121.233 135.266 120.639 135.156 120.014 135.156C118.967 135.156 118.155 135.555 117.577 136.352C117.014 137.148 116.733 138.203 116.733 139.516V146.5H114.506Z" fill="#494541"/>
<path d="M155.504 140.732H150.224V144.74H155.672V147.5H147.08V131.492H155.48V134.252H150.224V137.972H155.504V140.732ZM161.037 137.54H164.013V138.356C164.253 138.148 164.461 137.98 164.637 137.852C164.829 137.708 165.021 137.604 165.213 137.54C165.405 137.46 165.605 137.404 165.813 137.372C166.037 137.34 166.293 137.324 166.581 137.324C166.629 137.324 166.693 137.324 166.773 137.324C166.869 137.324 167.077 137.332 167.397 137.348V139.964H166.893C166.397 139.964 166.005 140.004 165.717 140.084C165.445 140.148 165.173 140.276 164.901 140.468C164.565 140.692 164.333 140.948 164.205 141.236C164.077 141.524 164.013 141.916 164.013 142.412V147.5H161.037V137.54ZM175.442 138.26C175.938 137.924 176.394 137.684 176.81 137.54C177.242 137.396 177.714 137.324 178.226 137.324C178.898 137.324 179.562 137.468 180.218 137.756C180.874 138.028 181.45 138.42 181.946 138.932C182.858 139.844 183.314 141.052 183.314 142.556C183.314 144.268 182.73 145.588 181.562 146.516C180.554 147.332 179.418 147.74 178.154 147.74C177.642 147.74 177.178 147.668 176.762 147.524C176.346 147.396 175.906 147.172 175.442 146.852V147.5H172.466V131.492H175.442V138.26ZM177.818 140.108C177.098 140.108 176.498 140.348 176.018 140.828C175.538 141.308 175.298 141.9 175.298 142.604C175.298 142.94 175.362 143.26 175.49 143.564C175.618 143.868 175.794 144.14 176.018 144.38C176.258 144.604 176.53 144.78 176.834 144.908C177.138 145.036 177.458 145.1 177.794 145.1C178.13 145.1 178.45 145.036 178.754 144.908C179.058 144.78 179.322 144.604 179.546 144.38C179.786 144.156 179.97 143.9 180.098 143.612C180.226 143.308 180.29 142.988 180.29 142.652C180.29 142.3 180.226 141.972 180.098 141.668C179.97 141.348 179.794 141.076 179.57 140.852C179.346 140.628 179.082 140.452 178.778 140.324C178.474 140.18 178.154 140.108 177.818 140.108ZM192.828 142.82C192.284 142.82 191.86 142.94 191.556 143.18C191.268 143.42 191.124 143.748 191.124 144.164C191.124 144.58 191.268 144.908 191.556 145.148C191.844 145.372 192.252 145.484 192.78 145.484C193.996 145.484 194.604 145.036 194.604 144.14C194.604 143.724 194.444 143.404 194.124 143.18C193.82 142.94 193.388 142.82 192.828 142.82ZM189.756 137.876C190.092 137.78 190.396 137.7 190.668 137.636C190.94 137.556 191.196 137.5 191.436 137.468C191.692 137.42 191.94 137.388 192.18 137.372C192.436 137.356 192.716 137.348 193.02 137.348C194.3 137.348 195.308 137.524 196.044 137.876C196.588 138.132 196.964 138.484 197.172 138.932C197.396 139.38 197.508 140.036 197.508 140.9V147.5H194.652V146.924C194.22 147.244 193.844 147.452 193.524 147.548C193.204 147.66 192.796 147.716 192.3 147.716C191.788 147.716 191.284 147.636 190.788 147.476C190.308 147.316 189.884 147.1 189.516 146.828C188.764 146.252 188.388 145.356 188.388 144.14C188.388 143.036 188.74 142.18 189.444 141.572C190.148 140.948 191.132 140.636 192.396 140.636C192.844 140.636 193.236 140.676 193.572 140.756C193.908 140.836 194.268 140.964 194.652 141.14V140.636C194.652 140.508 194.58 140.356 194.436 140.18C194.308 139.988 194.156 139.852 193.98 139.772C193.804 139.676 193.62 139.612 193.428 139.58C193.236 139.532 192.996 139.508 192.708 139.508C192.484 139.508 192.292 139.516 192.132 139.532C191.972 139.532 191.796 139.548 191.604 139.58C191.428 139.612 191.22 139.66 190.98 139.724C190.756 139.788 190.468 139.868 190.116 139.964L189.756 137.876ZM203.079 137.54H206.055V138.356C206.295 138.148 206.503 137.98 206.679 137.852C206.871 137.708 207.063 137.604 207.255 137.54C207.447 137.46 207.647 137.404 207.855 137.372C208.079 137.34 208.335 137.324 208.623 137.324C208.671 137.324 208.735 137.324 208.815 137.324C208.911 137.324 209.119 137.332 209.439 137.348V139.964H208.935C208.439 139.964 208.047 140.004 207.759 140.084C207.487 140.148 207.215 140.276 206.943 140.468C206.607 140.692 206.375 140.948 206.247 141.236C206.119 141.524 206.055 141.916 206.055 142.412V147.5H203.079V137.54ZM233.634 131.492L237.426 141.332L240.858 131.492H244.314L238.17 147.5H236.754L233.37 138.98L230.106 147.5H228.69L222.33 131.492H225.786L229.362 141.332L233.106 131.492H233.634ZM254.268 131.156C255.532 131.156 256.564 131.404 257.364 131.9C258.164 132.38 258.78 133.132 259.212 134.156C259.436 134.7 259.596 135.388 259.692 136.22C259.804 137.036 259.86 138.132 259.86 139.508C259.86 140.292 259.844 140.98 259.812 141.572C259.78 142.164 259.732 142.692 259.668 143.156C259.604 143.604 259.516 144.004 259.404 144.356C259.292 144.708 259.156 145.028 258.996 145.316C258.5 146.228 257.884 146.876 257.148 147.26C256.428 147.644 255.468 147.836 254.268 147.836C252.988 147.836 251.956 147.604 251.172 147.14C250.404 146.66 249.796 145.9 249.348 144.86C249.124 144.316 248.956 143.628 248.844 142.796C248.748 141.964 248.7 140.844 248.7 139.436C248.7 138.684 248.716 138.02 248.748 137.444C248.78 136.852 248.828 136.332 248.892 135.884C248.972 135.42 249.06 135.012 249.156 134.66C249.268 134.308 249.404 133.988 249.564 133.7C250.044 132.82 250.66 132.18 251.412 131.78C252.164 131.364 253.116 131.156 254.268 131.156ZM254.292 133.964C253.86 133.964 253.46 134.124 253.092 134.444C252.74 134.748 252.484 135.14 252.324 135.62C252.244 135.86 252.18 136.1 252.132 136.34C252.084 136.564 252.044 136.828 252.012 137.132C251.98 137.436 251.956 137.788 251.94 138.188C251.94 138.572 251.94 139.044 251.94 139.604C251.94 140.116 251.948 140.556 251.964 140.924C251.98 141.292 251.996 141.628 252.012 141.932C252.044 142.22 252.084 142.484 252.132 142.724C252.18 142.948 252.244 143.172 252.324 143.396C252.468 143.876 252.724 144.276 253.092 144.596C253.476 144.9 253.876 145.052 254.292 145.052C254.708 145.052 255.1 144.9 255.468 144.596C255.836 144.276 256.092 143.876 256.236 143.396C256.316 143.172 256.38 142.94 256.428 142.7C256.476 142.46 256.516 142.196 256.548 141.908C256.58 141.604 256.596 141.26 256.596 140.876C256.612 140.492 256.62 140.036 256.62 139.508C256.62 138.98 256.612 138.524 256.596 138.14C256.58 137.756 256.556 137.42 256.524 137.132C256.508 136.828 256.468 136.556 256.404 136.316C256.356 136.076 256.3 135.844 256.236 135.62C256.076 135.124 255.812 134.724 255.444 134.42C255.092 134.116 254.708 133.964 254.292 133.964ZM267.385 134.564C268.105 133.988 268.673 133.452 269.089 132.956C269.521 132.46 269.849 131.972 270.073 131.492H272.665V147.5H269.521V136.292C269.409 136.388 269.305 136.484 269.209 136.58C269.113 136.66 268.993 136.764 268.849 136.892C268.705 137.004 268.521 137.156 268.297 137.348C268.073 137.54 267.769 137.796 267.385 138.116V134.564ZM289.955 131.492H294.179C295.587 131.492 296.795 131.652 297.803 131.972C298.827 132.292 299.715 132.788 300.467 133.46C301.235 134.18 301.827 135.06 302.243 136.1C302.675 137.124 302.891 138.252 302.891 139.484C302.891 140.668 302.699 141.772 302.315 142.796C301.931 143.82 301.379 144.692 300.659 145.412C299.939 146.132 299.051 146.66 297.995 146.996C296.939 147.332 295.643 147.5 294.107 147.5H289.955V131.492ZM293.099 144.74H294.155C294.651 144.74 295.083 144.724 295.451 144.692C295.835 144.644 296.179 144.58 296.483 144.5C296.787 144.42 297.059 144.308 297.299 144.164C297.539 144.02 297.779 143.844 298.019 143.636C298.531 143.172 298.931 142.58 299.219 141.86C299.507 141.14 299.651 140.356 299.651 139.508C299.651 138.452 299.427 137.508 298.979 136.676C298.547 135.828 297.947 135.22 297.179 134.852C296.843 134.676 296.387 134.532 295.811 134.42C295.235 134.308 294.683 134.252 294.155 134.252H293.099V144.74ZM318.226 146.564C317.682 146.852 317.226 147.076 316.858 147.236C316.506 147.396 316.186 147.516 315.898 147.596C315.61 147.692 315.322 147.748 315.034 147.764C314.746 147.796 314.402 147.812 314.002 147.812C312.178 147.812 310.762 147.34 309.754 146.396C308.762 145.436 308.266 144.1 308.266 142.388C308.266 140.82 308.738 139.588 309.682 138.692C310.626 137.796 311.922 137.348 313.57 137.348C314.626 137.348 315.562 137.564 316.378 137.996C317.21 138.412 317.81 138.98 318.178 139.7C318.402 140.164 318.562 140.652 318.658 141.164C318.754 141.66 318.802 142.316 318.802 143.132V143.684H311.266C311.314 143.876 311.362 144.028 311.41 144.14C311.458 144.236 311.522 144.332 311.602 144.428C311.826 144.732 312.138 144.98 312.538 145.172C312.954 145.348 313.394 145.436 313.858 145.436C314.914 145.436 316.018 145.108 317.17 144.452L318.226 146.564ZM315.778 141.284C315.602 140.724 315.346 140.324 315.01 140.084C314.674 139.844 314.202 139.724 313.594 139.724C313.002 139.724 312.53 139.844 312.178 140.084C311.826 140.324 311.53 140.724 311.29 141.284H315.778ZM324.153 137.54H327.129V138.044C327.465 137.772 327.777 137.588 328.065 137.492C328.353 137.396 328.737 137.348 329.217 137.348C329.873 137.348 330.393 137.444 330.777 137.636C331.161 137.812 331.513 138.132 331.833 138.596C332.265 138.116 332.689 137.788 333.105 137.612C333.537 137.42 334.081 137.324 334.737 137.324C335.937 137.324 336.857 137.644 337.497 138.284C338.153 138.924 338.481 139.82 338.481 140.972V147.5H335.505V141.212C335.505 140.796 335.385 140.476 335.145 140.252C334.905 140.028 334.553 139.916 334.089 139.916C333.673 139.916 333.337 140.068 333.081 140.372C332.841 140.66 332.721 141.052 332.721 141.548V147.5H329.745V141.5C329.745 140.476 329.305 139.964 328.425 139.964C327.961 139.964 327.625 140.092 327.417 140.348C327.225 140.604 327.129 141.012 327.129 141.572V147.5H324.153V137.54ZM344.042 137.54H347.018V147.5H344.042V137.54ZM344.042 135.308V132.716H347.018V135.308H344.042ZM352.683 131.492H356.619C357.691 131.492 358.523 131.556 359.115 131.684C359.723 131.796 360.235 131.988 360.651 132.26C361.179 132.628 361.587 133.124 361.875 133.748C362.179 134.356 362.331 135.044 362.331 135.812C362.331 136.564 362.187 137.196 361.899 137.708C361.627 138.22 361.147 138.708 360.459 139.172C360.827 139.332 361.123 139.476 361.347 139.604C361.571 139.732 361.763 139.876 361.923 140.036C362.243 140.356 362.491 140.78 362.667 141.308C362.859 141.836 362.955 142.396 362.955 142.988C362.955 143.708 362.827 144.372 362.571 144.98C362.331 145.572 361.979 146.052 361.515 146.42C361.259 146.628 361.003 146.804 360.747 146.948C360.491 147.076 360.203 147.188 359.883 147.284C359.563 147.364 359.195 147.42 358.779 147.452C358.379 147.484 357.907 147.5 357.363 147.5H352.683V131.492ZM356.739 137.972C357.475 137.972 358.035 137.812 358.419 137.492C358.819 137.172 359.019 136.708 359.019 136.1C359.019 135.524 358.819 135.076 358.419 134.756C358.019 134.42 357.459 134.252 356.739 134.252H355.827V137.972H356.739ZM357.051 144.74C357.691 144.74 358.195 144.66 358.563 144.5C358.899 144.356 359.163 144.124 359.355 143.804C359.563 143.468 359.667 143.116 359.667 142.748C359.667 142.396 359.571 142.06 359.379 141.74C359.187 141.404 358.939 141.164 358.635 141.02C358.459 140.924 358.235 140.852 357.963 140.804C357.691 140.756 357.395 140.732 357.075 140.732H355.827V144.74H357.051ZM373.842 137.324C374.674 137.324 375.426 137.452 376.098 137.708C376.77 137.948 377.346 138.3 377.826 138.764C378.306 139.212 378.674 139.756 378.93 140.396C379.202 141.02 379.338 141.724 379.338 142.508C379.338 143.308 379.21 144.028 378.954 144.668C378.698 145.308 378.33 145.86 377.85 146.324C377.37 146.772 376.786 147.116 376.098 147.356C375.426 147.596 374.666 147.716 373.818 147.716C372.986 147.716 372.226 147.596 371.538 147.356C370.866 147.1 370.29 146.74 369.81 146.276C369.33 145.812 368.962 145.252 368.706 144.596C368.45 143.94 368.322 143.212 368.322 142.412C368.322 141.66 368.45 140.972 368.706 140.348C368.978 139.724 369.354 139.188 369.834 138.74C370.33 138.292 370.914 137.948 371.586 137.708C372.274 137.452 373.026 137.324 373.842 137.324ZM373.818 140.084C373.466 140.084 373.138 140.148 372.834 140.276C372.53 140.404 372.266 140.588 372.042 140.828C371.818 141.052 371.642 141.316 371.514 141.62C371.386 141.924 371.322 142.244 371.322 142.58C371.322 142.932 371.386 143.26 371.514 143.564C371.642 143.868 371.818 144.14 372.042 144.38C372.282 144.604 372.554 144.78 372.858 144.908C373.162 145.036 373.49 145.1 373.842 145.1C374.178 145.1 374.498 145.036 374.802 144.908C375.106 144.764 375.37 144.58 375.594 144.356C375.818 144.132 375.994 143.868 376.122 143.564C376.25 143.244 376.314 142.908 376.314 142.556C376.314 142.22 376.25 141.908 376.122 141.62C375.994 141.316 375.81 141.052 375.57 140.828C375.346 140.588 375.082 140.404 374.778 140.276C374.474 140.148 374.154 140.084 373.818 140.084ZM384.749 131.492H387.725V147.5H384.749V131.492ZM400.901 131.492H403.925V147.5H400.901V146.972C400.421 147.244 399.981 147.436 399.581 147.548C399.181 147.676 398.741 147.74 398.261 147.74C397.557 147.74 396.869 147.604 396.197 147.332C395.541 147.044 394.957 146.644 394.445 146.132C393.533 145.22 393.077 144.02 393.077 142.532C393.077 140.82 393.669 139.508 394.853 138.596C395.349 138.212 395.893 137.916 396.485 137.708C397.077 137.5 397.693 137.396 398.333 137.396C398.845 137.396 399.293 137.452 399.677 137.564C400.077 137.66 400.485 137.844 400.901 138.116V131.492ZM398.597 140.108C398.245 140.108 397.917 140.172 397.613 140.3C397.309 140.428 397.037 140.604 396.797 140.828C396.573 141.052 396.397 141.316 396.269 141.62C396.141 141.924 396.077 142.252 396.077 142.604C396.077 142.94 396.141 143.26 396.269 143.564C396.397 143.868 396.573 144.14 396.797 144.38C397.037 144.604 397.309 144.78 397.613 144.908C397.917 145.036 398.245 145.1 398.597 145.1C398.933 145.1 399.253 145.036 399.557 144.908C399.861 144.78 400.125 144.604 400.349 144.38C400.573 144.156 400.749 143.9 400.877 143.612C401.021 143.308 401.093 142.988 401.093 142.652C401.093 142.3 401.029 141.972 400.901 141.668C400.773 141.348 400.597 141.076 400.373 140.852C400.149 140.628 399.885 140.452 399.581 140.324C399.277 140.18 398.949 140.108 398.597 140.108Z" fill="#494541"/>
</svg>
