<?xml version="1.0" encoding="UTF-8"?>
<svg id="_レイヤー_2" data-name="レイヤー 2" xmlns="http://www.w3.org/2000/svg" xmlns:xlink="http://www.w3.org/1999/xlink" viewBox="0 0 1380.37 251.56">
  <defs>
    <style>
      .cls-1 {
        fill: #f7f7f7;
      }

      .cls-1, .cls-2, .cls-3, .cls-4 {
        stroke-width: 0px;
      }

      .cls-2 {
        fill: url(#_新規グラデーションスウォッチ_2-2);
      }

      .cls-3 {
        fill: #f1f5dc;
      }

      .cls-4 {
        fill: url(#_新規グラデーションスウォッチ_2);
      }
    </style>
    <linearGradient id="_新規グラデーションスウォッチ_2" data-name="新規グラデーションスウォッチ 2" x1="6084.95" y1="126.56" x2="6238.8" y2="126.56" gradientTransform="translate(-14150.01 16.24) scale(2.33 1.12)" gradientUnits="userSpaceOnUse">
      <stop offset=".15" stop-color="#c94255" stop-opacity="0"/>
      <stop offset=".18" stop-color="#c94255" stop-opacity=".12"/>
      <stop offset=".24" stop-color="#c94255" stop-opacity=".33"/>
      <stop offset=".29" stop-color="#c94255" stop-opacity=".48"/>
      <stop offset=".33" stop-color="#c94255" stop-opacity=".57"/>
      <stop offset=".36" stop-color="#c94255" stop-opacity=".6"/>
      <stop offset=".4" stop-color="#c94255" stop-opacity=".71"/>
      <stop offset=".45" stop-color="#c94255" stop-opacity=".81"/>
      <stop offset=".52" stop-color="#c94255" stop-opacity=".9"/>
      <stop offset=".59" stop-color="#c94255" stop-opacity=".96"/>
      <stop offset=".7" stop-color="#c94255" stop-opacity=".99"/>
      <stop offset="1" stop-color="#c94255"/>
    </linearGradient>
    <linearGradient id="_新規グラデーションスウォッチ_2-2" data-name="新規グラデーションスウォッチ 2" x1="5558.64" y1="68.02" x2="5712.49" y2="68.02" gradientTransform="translate(-18624.21 147.78) scale(3.35 1.12)" xlink:href="#_新規グラデーションスウォッチ_2"/>
  </defs>
  <g id="_レイヤー_14" data-name="レイヤー 14">
    <g id="zokei_logo">
      <g>
        <path class="cls-1" d="m989.44,205.49h-5.8v27.62h-4.68v-27.62h-5.9v-4.21h16.38v4.21Z"/>
        <path class="cls-1" d="m989.63,223c0-5.85,4.68-10.58,10.53-10.58s10.53,4.77,10.53,10.58-4.73,10.58-10.53,10.58-10.53-4.73-10.53-10.58Zm16.57,0c0-3.6-2.57-6.32-6.04-6.32s-6.04,2.67-6.04,6.32,2.53,6.27,6.04,6.27,6.04-2.67,6.04-6.27Z"/>
        <path class="cls-1" d="m1020.34,224.45l-.66.66v8h-4.31v-20.22h4.31v7.3l6.6-7.3h5.57l-8.71,8.75,9.22,11.47h-5.48l-6.55-8.66Z"/>
        <path class="cls-1" d="m1051.09,212.89l-8.47,16.62h5.2l-1.36,3.6h-10.2l3.65-7.54-6.32-12.69h4.87l3.84,8.71h.09l3.89-8.71h4.82Z"/>
        <path class="cls-1" d="m1053.33,223c0-5.85,4.68-10.58,10.53-10.58s10.53,4.77,10.53,10.58-4.73,10.58-10.53,10.58-10.53-4.73-10.53-10.58Zm16.57,0c0-3.6-2.57-6.32-6.04-6.32s-6.04,2.67-6.04,6.32,2.53,6.27,6.04,6.27,6.04-2.67,6.04-6.27Z"/>
        <path class="cls-1" d="m1107.87,228.99l-1.12,4.12h-20.08l14.28-27.71h-12.5l1.17-4.12h18.3l-14.14,27.71h14.09Z"/>
        <path class="cls-1" d="m1108.94,223c0-5.85,4.68-10.58,10.53-10.58s10.53,4.77,10.53,10.58-4.73,10.58-10.53,10.58-10.53-4.73-10.53-10.58Zm16.57,0c0-3.6-2.58-6.32-6.04-6.32s-6.04,2.67-6.04,6.32,2.53,6.27,6.04,6.27,6.04-2.67,6.04-6.27Z"/>
        <path class="cls-1" d="m1139.65,224.45l-.66.66v8h-4.31v-20.22h4.31v7.3l6.6-7.3h5.57l-8.71,8.75,9.22,11.47h-5.48l-6.55-8.66Z"/>
        <path class="cls-1" d="m1166.24,229.22v3.89h-11.61v-20.22h11.38v3.79h-7.07v4.21h7.07v3.6h-7.07v4.73h7.3Z"/>
        <path class="cls-1" d="m1176.25,212.89v20.22h-4.31v-20.22h4.31Z"/>
        <path class="cls-1" d="m1209.62,201.28h4.59v21.72c0,7.3-5.43,10.67-11.19,10.67s-11.28-3.37-11.28-10.67v-21.72h4.59v21.25c0,5.06,3.18,6.79,6.69,6.79s6.6-1.73,6.6-6.79v-21.25Z"/>
        <path class="cls-1" d="m1239.21,212.89v20.22h-4.63l-8.75-14.04h-.14v14.04h-4.21v-20.22h4.77l8.66,13.76h.09v-13.76h4.21Z"/>
        <path class="cls-1" d="m1250.81,212.89v20.22h-4.31v-20.22h4.31Z"/>
        <path class="cls-1" d="m1273.75,212.89l-7.49,20.46h-3.6l-7.54-20.46h4.73l4.54,13.67h.09l4.59-13.67h4.68Z"/>
        <path class="cls-1" d="m1289.66,229.22v3.89h-11.61v-20.22h11.38v3.79h-7.07v4.21h7.07v3.6h-7.07v4.73h7.3Z"/>
        <path class="cls-1" d="m1300.48,225.1h-.8v8h-4.31v-20.22h6.6c4.26,0,7.21,2.11,7.21,6.09,0,3-1.73,5.01-4.45,5.76l6.23,8.38h-5.15l-5.34-8Zm-.8-3.56h1.31c2.2,0,3.89-.42,3.89-2.57s-1.69-2.48-3.89-2.48h-1.31v5.06Z"/>
        <path class="cls-1" d="m1321.82,227.63c0-1.17-.56-1.87-3.28-3.28-3.37-1.73-4.4-3.23-4.4-6.09,0-3.89,3.09-5.85,6.46-5.85,2.2,0,4.12.56,5.29,1.54l-1.5,3.46c-1.08-.8-2.39-1.31-3.84-1.31s-2.2.94-2.2,1.87.42,1.54,2.48,2.67c2.76,1.5,5.2,2.9,5.2,6.79s-2.48,6.13-6.32,6.13c-2.2,0-4.82-.75-6.79-2.2l1.54-3.56c1.83,1.26,3.65,1.92,4.96,1.92,1.54,0,2.39-.84,2.39-2.11Z"/>
        <path class="cls-1" d="m1335.86,212.89v20.22h-4.31v-20.22h4.31Z"/>
        <path class="cls-1" d="m1351.87,216.91h-3.6v16.2h-4.31v-16.2h-3.6v-4.03h11.52v4.03Z"/>
        <path class="cls-1" d="m1371.44,212.89l-8.47,16.62h5.2l-1.36,3.6h-10.2l3.65-7.54-6.32-12.69h4.87l3.84,8.71h.09l3.89-8.71h4.82Z"/>
      </g>
      <g>
        <path class="cls-1" d="m1004.18,186.73c-5.09-1.72-10.3-5.06-13.92-8.61l.11,9.67h-3.81l.11-9.56c-3.48,3.52-8.46,6.78-13.3,8.5-.33-.73-1.58-2.2-2.38-3.11,4.32-1.28,9.86-4.1,12.9-6.96h-7.55v-13.56h10.22v-2.64h-14.4v-3.44h14.4v-3.19h3.81v3.19h14.88v3.44h-14.88v2.64h10.33v13.56h-7.62c3.19,2.79,8.83,5.46,13.19,6.74-.66.99-1.76,2.56-2.09,3.33Zm-24.18-18.36h6.56v-2.2h-6.56v2.2Zm6.56,5.2v-2.27h-6.56v2.27h6.56Zm3.81-7.4v2.2h6.63v-2.2h-6.63Zm6.63,5.13h-6.63v2.27h6.63v-2.27Z"/>
        <path class="cls-1" d="m1008.73,182.37c2.64-1.06,6.6-3.81,8.28-6.59l3.08,1.94c-2.27,3.26-5.57,6.12-8.87,7.77-.44-.66-1.69-2.16-2.49-3.11Zm.62-25.28h14.4v-3.66h4.18v3.66h14.73v3.48h-33.3v-3.48Zm11.1,30.85c-.4-.95-1.36-2.67-1.94-3.88.04,0,1.69.15,3.26.15,1.8,0,2.34-.4,2.34-1.17v-8.76h-9.16v-10.59h22.06v10.59h-8.87v9.75c0,2.45-2.02,3.92-7.69,3.92Zm12.68-16.78v-4.36h-14.29v4.36h14.29Zm10.37,11.36c-.84,1.03-2.05,2.49-2.49,3.15-2.75-1.47-6.59-4.51-9.2-7.62l3.04-2.09c1.8,2.27,5.97,5.39,8.65,6.56Z"/>
        <path class="cls-1" d="m1080.4,182.11c-.33,1.17-.81,3.04-1.03,3.88-2.78.37-8.72.7-12.97.7-5.79,0-10.55-1.1-12.82-4.1-1.54,1.43-4.18,3.33-5.53,4.18-.26-.48-1.17-2.34-1.76-3.63,1.1-.44,3.85-2.16,5.09-3.11v-8.39h-4.51v-3.44h8.17v10.95c.92,2.64,5.2,3.99,11.5,3.99,4.8,0,10.63-.55,13.85-1.03Zm-32.61-25.02l2.67-2.13c1.32,1.32,3.37,3.7,4.98,6.23l-2.93,2.31c-1.32-2.31-3.33-4.87-4.73-6.41Zm11.54,7.51l-3-2.2c1.36-1.5,3.52-5.5,3.88-7.8l3.33.84c-.15.48-.37,1.39-.81,2.49h3.77v-3.85h3.44v3.85h7.99v3.15h-7.99v4.1h9.82v3.3h-23.23v-3.3h9.97v-4.1h-5.09c-.7,1.43-1.43,2.67-2.09,3.52Zm17.44,15.79h-16.85v-9.53h16.85v9.53Zm-3.41-6.3h-10v3.08h10v-3.08Z"/>
        <path class="cls-1" d="m1096.02,186.99v-16.34h-4.07c-.37,7.4-2.42,13.26-5.83,16.82-.66-.84-1.91-2.13-2.71-2.86,2.53-2.6,4.43-7.07,4.76-13.96h-4.1v-3.52h4.18v-7.69h-3.26v-3.52h17.7v3.52h-2.93v7.69h3.19v3.52h-3.19v16.34h-3.74Zm0-27.55h-4.03v7.69h4.03v-7.69Zm6.81,27.62c-.4-.77-1.47-2.38-2.16-3.41,5.24-1.32,11.94-6.08,14.88-10.48l2.38,3.04c-3.26,4.54-9.64,9.05-15.09,10.84Zm-.59-24.22c3.52-1.5,8.72-5.24,11.14-8.43l2.31,2.93c-3.52,3.77-7.58,6.96-11.43,8.9-.44-.88-1.43-2.45-2.02-3.41Zm12.38.66l2.09,3.19c-3.33,3.85-8.02,7.58-12.05,9.49-.55-1.03-1.43-2.56-1.94-3.44,4.95-2.12,9.97-6.63,11.91-9.23Z"/>
        <path class="cls-1" d="m1155.19,183.4c-.77,1.1-1.94,2.86-2.34,3.66-6.52-2.67-11.98-9.34-14.73-16.6-2.23,7.91-7.73,13.48-14.47,16.52-.59-1.03-1.61-2.56-2.38-3.59,8.28-3.37,12.68-9.78,13.96-17h-12.93v-3.81h13.45c.11-1.28.15-3.33.15-4.76l-.07-3.77h4.25c0,3.92-.15,7.14-.26,8.54h14.4v3.81h-13.52c2.12,8.13,8.1,14.4,14.51,17Z"/>
        <path class="cls-1" d="m1177.92,183.73c0,2.38-1.98,3.81-7.55,3.81-.37-.92-1.14-2.56-1.8-3.74.04,0,1.65.07,3.19.07,1.76,0,2.31-.37,2.31-1.14v-4.84h-14.77v-3.52h14.77v-2.71h1.43c.88-.51,2.64-1.65,3.96-2.6h-12.71v-3.15h17.26l1.32,2.16c-1.43,1.36-4.91,3.77-7.4,5.2v1.1h13.78v3.52h-13.78v5.83Zm-17.59-24h19.89c1.43-1.76,3.26-4.84,3.88-6.34l3.59,1.36c-1.03,1.79-2.38,3.81-3.3,4.98h6.3v8.54h-3.7v-5.31h-22.94v5.31h-3.74v-8.54Zm2.6-4.58l3.55-1.25c.84.95,2.49,2.93,3.33,4.4l-3.22,1.39c-1.06-1.61-2.38-3.3-3.66-4.54Zm11.87,3.96c-.7-1.54-2.16-3.59-3.08-4.76l3.44-1.03c.84,1.06,2.27,3.19,2.89,4.58l-3.26,1.21Z"/>
      </g>
      <path class="cls-1" d="m856.31,153.83v79.24h84.58v-79.24h-84.58Zm4.62,10.83l28.83,28.79-28.83,28.8v-57.6Zm75.34,57.61l-27.77-27.76h27.77v27.76Zm0-31.94h-25.71l25.71-25.69v25.69Zm-31.94,0h-6.22,0s0,0,0,0l38.14,38.14h-11.46l-29.01-28.99-3.12,3.11,25.9,25.88h-57.64l31.94-31.91h0s6.18,0,6.18,0l-38.12-38.12h11.48l28.99,28.97,3.12-3.11-25.89-25.86h57.61l-31.91,31.88Z"/>
    </g>
    <g id="info">
      <g id="_時" data-name="時">
        <path class="cls-3" d="m457.39,147.94h-5.13l.75-5.98h12.08l-4.38,35.64h-6.95l3.63-29.66Z"/>
        <path class="cls-3" d="m484.16,165.68c1.66-1.66,5.72-5.88,7-7.43,1.28-1.5,2.89-3.63,2.89-6.36,0-1.66-.64-2.83-1.5-3.58-.8-.7-2.14-1.18-3.58-1.18-1.76,0-3.1.7-3.9,1.5-1.02,1.02-1.76,2.89-1.92,4.44h-7.16c.32-3.47,1.82-6.2,3.37-7.91,2.88-3.21,6.57-4.01,10.1-4.01,2.99,0,6.31.59,8.87,3.21,1.92,1.98,2.72,4.27,2.72,6.89,0,2.83-.8,5.13-2.35,7.37-.8,1.12-2.19,2.89-5.77,6.31l-6.95,6.68h12.88l-.75,5.98h-25.76l11.81-11.92Z"/>
        <path class="cls-3" d="m511,167.12c.86-.85,2.03-1.39,3.37-1.39,1.18,0,2.08.48,2.67,1.07.86.85,1.02,1.92,1.02,2.67,0,1.39-.48,2.51-1.34,3.31-.96.96-2.08,1.28-3.31,1.28-1.07,0-1.98-.27-2.78-1.07-.75-.75-1.01-1.66-1.01-2.51,0-1.23.53-2.51,1.39-3.37Zm1.92-16.3c.85-.85,2.03-1.39,3.37-1.39,1.18,0,2.08.48,2.67,1.07.85.86,1.02,1.92,1.02,2.67,0,1.39-.48,2.51-1.34,3.31-.96.96-2.08,1.28-3.31,1.28-1.07,0-1.98-.27-2.78-1.07-.75-.75-1.02-1.66-1.02-2.51,0-1.23.53-2.51,1.39-3.37Z"/>
        <path class="cls-3" d="m531.18,175.4c-3.74-3.69-4.17-8.98-4.17-12.18,0-7.05,2.51-14.11,6.79-18.17,2.83-2.67,6.25-3.9,9.4-3.9s5.98,1.23,7.91,3.15c3.53,3.47,4.01,8.6,4.01,11.65,0,6.52-1.82,13.95-6.47,18.7-2.94,2.99-5.56,3.74-9.35,3.74-3.31,0-5.77-.64-8.12-2.99Zm7.27-26.34c-2.94,2.99-4.38,9.51-4.38,14.16,0,2.41.43,6.04,2.3,7.85.8.8,1.92,1.34,3.37,1.34,1.66,0,2.99-.69,4.11-1.82,2.51-2.62,4.22-9.08,4.22-14,0-2.89-.48-6.73-2.19-8.39-.96-.96-1.92-1.07-2.94-1.07-1.98,0-3.31.75-4.49,1.92Z"/>
        <path class="cls-3" d="m564.2,175.4c-3.74-3.69-4.17-8.98-4.17-12.18,0-7.05,2.51-14.11,6.79-18.17,2.83-2.67,6.25-3.9,9.4-3.9s5.98,1.23,7.91,3.15c3.53,3.47,4.01,8.6,4.01,11.65,0,6.52-1.82,13.95-6.47,18.7-2.94,2.99-5.56,3.74-9.35,3.74-3.31,0-5.77-.64-8.12-2.99Zm7.27-26.34c-2.94,2.99-4.38,9.51-4.38,14.16,0,2.41.43,6.04,2.3,7.85.8.8,1.92,1.34,3.37,1.34,1.66,0,2.99-.69,4.11-1.82,2.51-2.62,4.22-9.08,4.22-14,0-2.89-.48-6.73-2.19-8.39-.96-.96-1.92-1.07-2.94-1.07-1.98,0-3.31.75-4.49,1.92Z"/>
        <path class="cls-3" d="m636.06,147.94h-5.13l.75-5.98h12.08l-4.38,35.64h-6.95l3.63-29.66Z"/>
        <path class="cls-3" d="m675.55,161.56c1.18,1.55,1.6,3.15,1.6,5.02,0,3.53-1.28,6.47-3.15,8.34-2.89,2.94-6.89,3.47-9.83,3.47s-6.63-.48-9.35-3.26c-1.39-1.44-2.56-3.53-2.56-6.47s1.18-5.61,2.83-7.21c1.28-1.23,2.99-2.08,4.7-2.46-1.12-.64-2.3-1.66-3.05-2.78-.96-1.39-1.23-2.89-1.23-4.33,0-3.53,1.39-6.04,2.99-7.59,1.6-1.55,4.33-3.15,8.92-3.15,2.24,0,5.18.37,7.59,2.41,2.08,1.71,3.05,4.01,3.05,6.79,0,2.41-.75,4.22-1.76,5.56-.96,1.28-2.46,2.46-4.44,3.1,1.07.32,2.51,1.02,3.69,2.57Zm-7.05,9.89c1.07-1.07,1.76-2.83,1.76-4.65,0-1.55-.53-2.89-1.71-3.79-.91-.7-2.19-1.18-3.53-1.18-1.82,0-3.26.75-4.17,1.76-.96,1.02-1.6,2.57-1.6,4.38s.69,2.94,1.34,3.58c1.12,1.18,2.46,1.39,3.69,1.39,1.07,0,2.83-.11,4.22-1.5Zm1.66-16.62c1.07-1.01,1.6-2.78,1.6-4.22,0-1.92-.91-2.94-1.5-3.42-1.02-.85-2.35-1.01-3.21-1.01-1.44,0-2.62.37-3.69,1.44-.75.75-1.6,2.08-1.6,4.11,0,1.23.37,2.35,1.28,3.21.96.91,2.03,1.18,3.26,1.18,1.55,0,2.94-.48,3.85-1.28Z"/>
        <path class="cls-3" d="m688.06,167.12c.86-.85,2.03-1.39,3.37-1.39,1.18,0,2.08.48,2.67,1.07.86.85,1.02,1.92,1.02,2.67,0,1.39-.48,2.51-1.34,3.31-.96.96-2.08,1.28-3.31,1.28-1.07,0-1.98-.27-2.78-1.07-.75-.75-1.01-1.66-1.01-2.51,0-1.23.53-2.51,1.39-3.37Zm1.92-16.3c.85-.85,2.03-1.39,3.37-1.39,1.18,0,2.08.48,2.67,1.07.85.86,1.02,1.92,1.02,2.67,0,1.39-.48,2.51-1.34,3.31-.96.96-2.08,1.28-3.31,1.28-1.07,0-1.98-.27-2.78-1.07-.75-.75-1.02-1.66-1.02-2.51,0-1.23.53-2.51,1.39-3.37Z"/>
        <path class="cls-3" d="m708.25,175.4c-3.74-3.69-4.17-8.98-4.17-12.18,0-7.05,2.51-14.11,6.79-18.17,2.83-2.67,6.25-3.9,9.4-3.9s5.98,1.23,7.91,3.15c3.53,3.47,4.01,8.6,4.01,11.65,0,6.52-1.82,13.95-6.46,18.7-2.94,2.99-5.56,3.74-9.35,3.74-3.31,0-5.77-.64-8.12-2.99Zm7.27-26.34c-2.94,2.99-4.38,9.51-4.38,14.16,0,2.41.43,6.04,2.3,7.85.8.8,1.92,1.34,3.37,1.34,1.66,0,2.99-.69,4.11-1.82,2.51-2.62,4.22-9.08,4.22-14,0-2.89-.48-6.73-2.19-8.39-.96-.96-1.92-1.07-2.94-1.07-1.98,0-3.31.75-4.49,1.92Z"/>
        <path class="cls-3" d="m741.27,175.4c-3.74-3.69-4.17-8.98-4.17-12.18,0-7.05,2.51-14.11,6.79-18.17,2.83-2.67,6.25-3.9,9.4-3.9s5.98,1.23,7.91,3.15c3.53,3.47,4.01,8.6,4.01,11.65,0,6.52-1.82,13.95-6.46,18.7-2.94,2.99-5.56,3.74-9.35,3.74-3.31,0-5.77-.64-8.12-2.99Zm7.27-26.34c-2.94,2.99-4.38,9.51-4.38,14.16,0,2.41.43,6.04,2.3,7.85.8.8,1.92,1.34,3.37,1.34,1.66,0,2.99-.69,4.11-1.82,2.51-2.62,4.22-9.08,4.22-14,0-2.89-.48-6.73-2.19-8.39-.96-.96-1.92-1.07-2.94-1.07-1.98,0-3.31.75-4.49,1.92Z"/>
        <path class="cls-3" d="m602.56,158.25h14.08l-.76,6.07h-14.08l.76-6.07Z"/>
      </g>
      <g id="_時-2" data-name="時">
        <path class="cls-3" d="m457.39,216h-5.13l.75-5.98h12.08l-4.38,35.64h-6.95l3.63-29.66Z"/>
        <path class="cls-3" d="m478.66,243.46c-3.74-3.69-4.17-8.98-4.17-12.18,0-7.05,2.51-14.11,6.79-18.17,2.83-2.67,6.25-3.9,9.4-3.9s5.98,1.23,7.91,3.15c3.53,3.47,4.01,8.6,4.01,11.65,0,6.52-1.82,13.95-6.47,18.7-2.94,2.99-5.56,3.74-9.35,3.74-3.31,0-5.77-.64-8.12-2.99Zm7.27-26.34c-2.94,2.99-4.38,9.51-4.38,14.16,0,2.4.43,6.04,2.3,7.85.8.8,1.92,1.34,3.37,1.34,1.66,0,2.99-.69,4.11-1.82,2.51-2.62,4.22-9.08,4.22-14,0-2.89-.48-6.73-2.19-8.39-.96-.96-1.92-1.07-2.94-1.07-1.98,0-3.31.75-4.49,1.92Z"/>
        <path class="cls-3" d="m511.05,235.18c.86-.85,2.03-1.39,3.37-1.39,1.18,0,2.08.48,2.67,1.07.86.85,1.02,1.92,1.02,2.67,0,1.39-.48,2.51-1.34,3.31-.96.96-2.08,1.28-3.31,1.28-1.07,0-1.98-.27-2.78-1.07-.75-.75-1.01-1.66-1.01-2.51,0-1.23.53-2.51,1.39-3.37Zm1.92-16.3c.85-.85,2.03-1.39,3.37-1.39,1.18,0,2.08.48,2.67,1.07.85.86,1.02,1.92,1.02,2.67,0,1.39-.48,2.51-1.34,3.31-.96.96-2.08,1.28-3.31,1.28-1.07,0-1.98-.27-2.78-1.07-.75-.75-1.02-1.66-1.02-2.51,0-1.23.53-2.51,1.39-3.37Z"/>
        <path class="cls-3" d="m531.23,243.46c-3.74-3.69-4.17-8.98-4.17-12.18,0-7.05,2.51-14.11,6.79-18.17,2.83-2.67,6.25-3.9,9.4-3.9s5.98,1.23,7.91,3.15c3.53,3.47,4.01,8.6,4.01,11.65,0,6.52-1.82,13.95-6.47,18.7-2.94,2.99-5.56,3.74-9.35,3.74-3.31,0-5.77-.64-8.12-2.99Zm7.27-26.34c-2.94,2.99-4.38,9.51-4.38,14.16,0,2.4.43,6.04,2.3,7.85.8.8,1.92,1.34,3.37,1.34,1.66,0,2.99-.69,4.11-1.82,2.51-2.62,4.22-9.08,4.22-14,0-2.89-.48-6.73-2.19-8.39-.96-.96-1.92-1.07-2.94-1.07-1.98,0-3.31.75-4.49,1.92Z"/>
        <path class="cls-3" d="m564.25,243.46c-3.74-3.69-4.17-8.98-4.17-12.18,0-7.05,2.51-14.11,6.79-18.17,2.83-2.67,6.25-3.9,9.4-3.9s5.98,1.23,7.91,3.15c3.53,3.47,4.01,8.6,4.01,11.65,0,6.52-1.82,13.95-6.47,18.7-2.94,2.99-5.56,3.74-9.35,3.74-3.31,0-5.77-.64-8.12-2.99Zm7.27-26.34c-2.94,2.99-4.38,9.51-4.38,14.16,0,2.4.43,6.04,2.3,7.85.8.8,1.92,1.34,3.37,1.34,1.66,0,2.99-.69,4.11-1.82,2.51-2.62,4.22-9.08,4.22-14,0-2.89-.48-6.73-2.19-8.39-.96-.96-1.92-1.07-2.94-1.07-1.98,0-3.31.75-4.49,1.92Z"/>
        <path class="cls-3" d="m636.12,216h-5.13l.75-5.98h12.08l-4.38,35.64h-6.95l3.63-29.66Z"/>
        <path class="cls-3" d="m675.6,229.62c1.18,1.55,1.6,3.15,1.6,5.02,0,3.53-1.28,6.47-3.15,8.34-2.89,2.94-6.89,3.47-9.83,3.47s-6.63-.48-9.35-3.26c-1.39-1.44-2.56-3.53-2.56-6.47s1.18-5.61,2.83-7.21c1.28-1.23,2.99-2.08,4.7-2.46-1.12-.64-2.3-1.66-3.05-2.78-.96-1.39-1.23-2.89-1.23-4.33,0-3.53,1.39-6.04,2.99-7.59,1.6-1.55,4.33-3.15,8.92-3.15,2.24,0,5.18.37,7.59,2.41,2.08,1.71,3.05,4.01,3.05,6.79,0,2.41-.75,4.22-1.76,5.56-.96,1.28-2.46,2.46-4.44,3.1,1.07.32,2.51,1.02,3.69,2.57Zm-7.05,9.89c1.07-1.07,1.76-2.83,1.76-4.65,0-1.55-.53-2.89-1.71-3.79-.91-.7-2.19-1.18-3.53-1.18-1.82,0-3.26.75-4.17,1.76-.96,1.02-1.6,2.57-1.6,4.38s.69,2.94,1.34,3.58c1.12,1.18,2.46,1.39,3.69,1.39,1.07,0,2.83-.11,4.22-1.5Zm1.66-16.62c1.07-1.01,1.6-2.78,1.6-4.22,0-1.92-.91-2.94-1.5-3.42-1.02-.85-2.35-1.01-3.21-1.01-1.44,0-2.62.37-3.69,1.44-.75.75-1.6,2.08-1.6,4.11,0,1.23.37,2.35,1.28,3.21.96.91,2.03,1.18,3.26,1.18,1.55,0,2.94-.48,3.85-1.28Z"/>
        <path class="cls-3" d="m688.12,235.18c.86-.85,2.03-1.39,3.37-1.39,1.18,0,2.08.48,2.67,1.07.86.85,1.02,1.92,1.02,2.67,0,1.39-.48,2.51-1.34,3.31-.96.96-2.08,1.28-3.31,1.28-1.07,0-1.98-.27-2.78-1.07-.75-.75-1.01-1.66-1.01-2.51,0-1.23.53-2.51,1.39-3.37Zm1.92-16.3c.85-.85,2.03-1.39,3.37-1.39,1.18,0,2.08.48,2.67,1.07.85.86,1.02,1.92,1.02,2.67,0,1.39-.48,2.51-1.34,3.31-.96.96-2.08,1.28-3.31,1.28-1.07,0-1.98-.27-2.78-1.07-.75-.75-1.02-1.66-1.02-2.51,0-1.23.53-2.51,1.39-3.37Z"/>
        <path class="cls-3" d="m708.3,243.46c-3.74-3.69-4.17-8.98-4.17-12.18,0-7.05,2.51-14.11,6.79-18.17,2.83-2.67,6.25-3.9,9.4-3.9s5.98,1.23,7.91,3.15c3.53,3.47,4.01,8.6,4.01,11.65,0,6.52-1.82,13.95-6.46,18.7-2.94,2.99-5.56,3.74-9.35,3.74-3.31,0-5.77-.64-8.12-2.99Zm7.27-26.34c-2.94,2.99-4.38,9.51-4.38,14.16,0,2.4.43,6.04,2.3,7.85.8.8,1.92,1.34,3.37,1.34,1.66,0,2.99-.69,4.11-1.82,2.51-2.62,4.22-9.08,4.22-14,0-2.89-.48-6.73-2.19-8.39-.96-.96-1.92-1.07-2.94-1.07-1.98,0-3.31.75-4.49,1.92Z"/>
        <path class="cls-3" d="m741.32,243.46c-3.74-3.69-4.17-8.98-4.17-12.18,0-7.05,2.51-14.11,6.79-18.17,2.83-2.67,6.25-3.9,9.4-3.9s5.98,1.23,7.91,3.15c3.53,3.47,4.01,8.6,4.01,11.65,0,6.52-1.82,13.95-6.46,18.7-2.94,2.99-5.56,3.74-9.35,3.74-3.31,0-5.77-.64-8.12-2.99Zm7.27-26.34c-2.94,2.99-4.38,9.51-4.38,14.16,0,2.4.43,6.04,2.3,7.85.8.8,1.92,1.34,3.37,1.34,1.66,0,2.99-.69,4.11-1.82,2.51-2.62,4.22-9.08,4.22-14,0-2.89-.48-6.73-2.19-8.39-.96-.96-1.92-1.07-2.94-1.07-1.98,0-3.31.75-4.49,1.92Z"/>
        <path class="cls-3" d="m602.56,225.89h14.08l-.76,6.07h-14.08l.76-6.07Z"/>
      </g>
      <rect class="cls-4" x="10.25" y="131.74" width="358.02" height="52.59" rx="25.74" ry="25.74" transform="translate(377.65 317.11) rotate(-179.68)"/>
      <rect class="cls-2" x="1.24" y="197.7" width="515.51" height="52.59" rx="25.96" ry="25.96" transform="translate(516.74 449.41) rotate(-179.68)"/>
      <g id="_日" data-name="日">
        <path class="cls-3" d="m51.65,148.98l-3.65-.02.56-4.25,8.59.05-3.26,25.33-4.94-.03,2.7-21.07Z"/>
        <path class="cls-3" d="m67.39,168.6c-2.65-2.64-2.93-6.4-2.92-8.68.03-5.01,1.84-10.02,4.9-12.89,2.02-1.89,4.46-2.75,6.7-2.74,2.28.01,4.25.9,5.61,2.27,2.49,2.48,2.82,6.13,2.8,8.3-.03,4.64-1.35,9.91-4.67,13.27-2.1,2.12-3.97,2.64-6.66,2.62-2.36-.01-4.1-.48-5.76-2.16Zm5.27-18.7c-2.1,2.12-3.15,6.75-3.17,10.05,0,1.71.28,4.3,1.6,5.59.57.57,1.36.96,2.39.96,1.18,0,2.13-.48,2.93-1.28,1.8-1.85,3.04-6.44,3.06-9.94.01-2.05-.32-4.79-1.52-5.97-.68-.69-1.36-.77-2.09-.77-1.41,0-2.36.52-3.2,1.35Z"/>
        <path class="cls-3" d="m87.35,165.82c.61-.6,1.45-.98,2.4-.97.84,0,1.48.35,1.9.77.6.61.71,1.37.71,1.9,0,.99-.35,1.78-.96,2.35-.69.68-1.49.9-2.36.9-.76,0-1.4-.2-1.97-.77-.53-.54-.71-1.18-.71-1.79,0-.87.39-1.78,1-2.39Z"/>
        <path class="cls-3" d="m105.8,149.28l-3.65-.02.56-4.25,8.59.05-3.25,25.33-4.94-.03,2.7-21.07Z"/>
        <path class="cls-3" d="m135.72,159.13c.83,1.11,1.13,2.25,1.12,3.58-.01,2.51-.94,4.59-2.27,5.92-2.06,2.08-4.91,2.44-7,2.43-2.17-.01-4.71-.37-6.64-2.36-.98-1.03-1.81-2.52-1.8-4.61.01-2.09.86-3.99,2.04-5.12.92-.87,2.14-1.47,3.35-1.73-.79-.46-1.63-1.19-2.15-1.99-.68-.99-.86-2.06-.86-3.08.01-2.51,1.01-4.29,2.16-5.38,1.15-1.1,3.09-2.22,6.36-2.21,1.6,0,3.68.29,5.39,1.74,1.47,1.22,2.15,2.86,2.14,4.84,0,1.71-.55,3-1.28,3.94-.69.91-1.76,1.74-3.17,2.19.76.23,1.78.73,2.61,1.84Zm-5.05,7c.76-.76,1.26-2.01,1.27-3.3,0-1.1-.37-2.05-1.2-2.7-.64-.5-1.55-.84-2.5-.85-1.29,0-2.32.52-2.97,1.24-.69.72-1.15,1.82-1.16,3.11,0,1.29.48,2.09.94,2.55.79.84,1.74,1,2.62,1,.76,0,2.01-.06,3.01-1.05Zm1.24-11.81c.76-.72,1.15-1.97,1.16-3,0-1.37-.63-2.09-1.05-2.44-.72-.61-1.67-.73-2.28-.73-1.03,0-1.86.26-2.63,1.01-.54.53-1.15,1.47-1.16,2.92,0,.87.26,1.67.9,2.29.68.65,1.44.84,2.31.85,1.1,0,2.09-.33,2.74-.9Z"/>
        <path class="cls-3" d="m168.15,149.62l-8.51-.05-.72,5.66,7.98.04-.56,4.25-7.98-.04-1.43,11.16-4.94-.03,3.25-25.32,13.45.07-.56,4.25Z"/>
        <path class="cls-3" d="m182.88,145.45c1.94.01,4.44.29,6.29,2.24.87.92,1.77,2.44,1.76,4.87-.01,2.39-.9,4.29-2.12,5.46-1.15,1.1-3.01,1.92-4.69,2.18l6.4,10.64-5.93-.03-5.45-10.21h-.61s-1.31,10.17-1.31,10.17l-4.94-.03,3.25-25.33,7.33.04Zm-3.9,11.64h1.75c1.33.02,3-.35,3.96-1.3.46-.45,1.11-1.36,1.12-2.88,0-.72-.14-1.71-1.01-2.48-.6-.53-1.63-.96-3.26-.97h-1.56s-.99,7.62-.99,7.62Z"/>
        <path class="cls-3" d="m205.04,145.57l-3.26,25.33-4.94-.03,3.25-25.33,4.94.03Z"/>
      </g>
      <g id="_日-2" data-name="日">
        <path class="cls-3" d="m51.65,214.76l-3.65-.02.56-4.25,8.59.05-3.26,25.33-4.94-.03,2.7-21.07Z"/>
        <path class="cls-3" d="m67.39,234.38c-2.65-2.64-2.93-6.4-2.92-8.68.03-5.01,1.84-10.02,4.9-12.89,2.02-1.89,4.46-2.75,6.7-2.74,2.28.01,4.25.9,5.61,2.27,2.49,2.48,2.82,6.13,2.8,8.3-.03,4.64-1.35,9.91-4.67,13.27-2.1,2.12-3.97,2.64-6.66,2.62-2.36-.01-4.1-.48-5.76-2.16Zm5.27-18.7c-2.1,2.12-3.15,6.75-3.17,10.05,0,1.71.28,4.3,1.6,5.59.57.57,1.36.96,2.39.96,1.18,0,2.13-.48,2.93-1.28,1.8-1.85,3.04-6.44,3.06-9.94.01-2.05-.32-4.79-1.52-5.97-.68-.69-1.36-.77-2.09-.77-1.41,0-2.36.52-3.2,1.35Z"/>
        <path class="cls-3" d="m87.36,231.6c.61-.6,1.45-.98,2.4-.97.84,0,1.48.35,1.9.77.6.61.71,1.37.71,1.9,0,.99-.35,1.78-.96,2.35-.69.68-1.49.9-2.36.9-.76,0-1.4-.2-1.97-.77-.53-.54-.71-1.18-.71-1.79,0-.87.39-1.78,1-2.39Z"/>
        <path class="cls-3" d="m105.8,215.06l-3.65-.02.56-4.25,8.59.05-3.26,25.33-4.94-.03,2.7-21.07Z"/>
        <path class="cls-3" d="m122.26,234.79l6.5-7.3c-.42.07-.84.11-1.25.11-2.05-.01-4.17-.86-5.65-2.31-1.06-1.03-2.23-2.79-2.21-5.52.01-2.39.94-4.9,2.77-6.67,2.1-2.08,4.8-2.75,7.46-2.73,3.61.02,5.77,1.32,7.02,2.58,1.13,1.15,2.15,2.94,2.14,5.48-.01,2.01-.63,3.61-1.47,5.08-1,1.7-2.3,3.18-3.64,4.69l-7.88,8.73-3.79-2.15Zm3.94-19.13c-1.26,1.25-1.53,2.69-1.54,3.83,0,1.37.52,2.32,1.16,2.97.72.69,1.86,1.19,3.3,1.2,1.37,0,2.62-.52,3.54-1.39.69-.68,1.42-1.82,1.43-3.64,0-.99-.18-2.09-1.16-3.05-.91-.84-2.2-1.27-3.41-1.27-1.29,0-2.4.44-3.31,1.35Z"/>
        <path class="cls-3" d="m167.92,216.92c-.68-1.03-1.96-2.18-4.05-2.19-1.37,0-2.21.41-2.7.86-.61.53-.99,1.25-1,2.12,0,.84.33,1.45,1.05,1.94.49.35,1.14.61,2.39,1.15l1.71.73c.99.42,2.16,1.08,3.14,2.15,1.13,1.22,1.54,2.4,1.54,4.07-.02,2.77-1.09,5.35-2.74,6.9-2.1,2-4.84,2.37-6.93,2.36-1.94-.01-3.57-.4-5.2-1.47-1.29-.84-2.42-2.14-3.21-3.36l3.63-3.06c.38.72,1.09,1.75,1.77,2.33.98.84,2.05,1.08,3.19,1.08.99,0,2.32-.14,3.31-1.24.54-.57.96-1.4.96-2.62,0-.91-.29-1.63-1.13-2.32-.83-.69-1.59-.84-2.58-1.27l-1.44-.62c-1.59-.69-2.5-1.31-3.07-1.88-1.32-1.3-1.54-2.86-1.53-4.19.01-1.98.59-3.87,2.2-5.46,2.06-2.04,4.65-2.41,6.89-2.39,1.63,0,4.44.29,6.82,3l-3.02,3.37Z"/>
        <path class="cls-3" d="m190.94,231.3l-10.22-.06-2.92,5.3-5.47-.03,14.31-25.26,3.72.02,7.35,25.38-5.21-.03-1.57-5.33Zm-.93-4.03l-2.38-9.13-4.84,9.09,7.22.04Z"/>
        <path class="cls-3" d="m213.26,215.65l-2.7,21.07-4.94-.03,2.7-21.07-5.7-.03.56-4.25,16.34.09-.56,4.25-5.7-.03Z"/>
        <path class="cls-3" d="m239.94,211.54l2.32,1.08-17.1,24.73-2.35-1.08,17.13-24.73Z"/>
        <path class="cls-3" d="m255.18,228.5c1.18-1.17,4.09-4.16,5.01-5.25.92-1.06,2.07-2.57,2.08-4.51,0-1.18-.44-2.02-1.05-2.55-.57-.5-1.52-.84-2.54-.85-1.25,0-2.21.48-2.78,1.05-.73.72-1.27,2.04-1.38,3.15l-5.09-.03c.24-2.47,1.32-4.4,2.42-5.61,2.06-2.27,4.69-2.82,7.2-2.81,2.13.01,4.48.44,6.29,2.31,1.36,1.41,1.92,3.05,1.91,4.91-.01,2.01-.59,3.64-1.7,5.23-.57.79-1.57,2.04-4.13,4.46l-4.97,4.72,9.16.05-.56,4.25-18.31-.1,8.44-8.43Z"/>
        <path class="cls-3" d="m274.67,235.52c-2.65-2.64-2.93-6.4-2.92-8.68.03-5.01,1.84-10.02,4.9-12.89,2.02-1.89,4.46-2.75,6.7-2.74,2.28.01,4.25.9,5.61,2.27,2.49,2.48,2.82,6.13,2.8,8.3-.03,4.64-1.35,9.91-4.67,13.27-2.1,2.12-3.97,2.64-6.66,2.62-2.36-.01-4.1-.48-5.76-2.16Zm5.27-18.7c-2.1,2.12-3.15,6.75-3.17,10.05,0,1.71.28,4.3,1.6,5.59.57.57,1.36.96,2.39.96,1.18,0,2.13-.48,2.93-1.28,1.8-1.85,3.04-6.44,3.06-9.94.01-2.05-.32-4.79-1.52-5.97-.68-.69-1.36-.77-2.09-.77-1.41,0-2.36.52-3.2,1.35Z"/>
        <path class="cls-3" d="m322.57,217.77c-.68-1.03-1.96-2.18-4.05-2.19-1.37,0-2.21.41-2.7.86-.61.53-.99,1.25-1,2.12,0,.84.33,1.45,1.05,1.94.49.35,1.14.61,2.39,1.15l1.71.73c.99.42,2.16,1.08,3.14,2.15,1.13,1.22,1.54,2.4,1.54,4.07-.02,2.77-1.09,5.35-2.74,6.9-2.1,2-4.84,2.37-6.93,2.36-1.94,0-3.57-.4-5.2-1.47-1.29-.84-2.42-2.14-3.21-3.36l3.63-3.06c.38.72,1.09,1.75,1.77,2.33.98.84,2.05,1.08,3.19,1.08.99,0,2.32-.14,3.31-1.24.54-.57.96-1.4.96-2.62,0-.91-.29-1.63-1.13-2.32-.83-.69-1.59-.84-2.58-1.27l-1.44-.62c-1.59-.69-2.5-1.31-3.07-1.88-1.32-1.3-1.54-2.86-1.53-4.19.01-1.98.59-3.87,2.2-5.46,2.06-2.04,4.65-2.41,6.89-2.39,1.63,0,4.44.29,6.82,3l-3.02,3.36Z"/>
        <path class="cls-3" d="m337.92,212.08l-1.79,14.01c-.08.76-.28,2.32-.28,2.81,0,1.48.55,2.74,1.27,3.43.87.8,2.23,1.19,3.45,1.2,1.44,0,2.7-.4,3.58-1.04,1.83-1.36,2.07-3.56,2.39-6.03l1.86-14.31,4.94.03-1.91,14.84c-.4,2.96-.79,6.11-3.05,8.38-2.41,2.42-5.71,2.63-7.88,2.62-2.36-.01-5.39-.41-7.51-2.59-1.66-1.72-2.07-3.81-2.06-5.86,0-1.03.25-3.46.37-4.29l1.67-13.21,4.94.03Z"/>
        <path class="cls-3" d="m357.77,237.53l3.25-25.32,3.5.02,13.17,16.98,2.18-16.9,4.94.03-3.26,25.32-3.5-.02-13.17-17.06-2.18,16.97-4.94-.03Z"/>
      </g>
      <g>
        <path class="cls-3" d="m53.87,78.96c-3.02,1.57-8.96,4.37-18.48,4.37-13.55,0-21.5-5.38-25.42-9.18C2.58,67.09,0,58.02,0,49.06c0-14.11,5.15-25.42,11.98-32.37,9.74-9.74,21.84-11.42,30.69-11.42,4.82,0,11.65.45,19.71,4.59l-2.02,16.8c-6.27-7.28-14.34-8.18-19.04-8.18-9.41,0-15.12,3.92-18.7,7.73-4.93,5.26-7.5,13.22-7.5,20.72,0,8.18,3.14,13.44,6.27,16.8,4.26,4.48,9.74,6.5,16.13,6.5,11.31,0,16.58-5.71,18.48-8.29l-2.13,17.02Z"/>
        <path class="cls-3" d="m71.46,33.15h13.66l-.9,6.94c1.34-2.35,3.47-4.82,6.05-6.38,2.91-1.79,5.6-2.13,8.51-2.13,2.46,0,4.26.34,6.38,1.12l-4.03,12.21c-1.57-.78-3.25-1.23-5.26-1.23-3.58,0-6.5,1.34-8.51,3.36-3.02,3.02-5.04,9.07-5.6,14l-2.58,20.61h-13.66l5.94-48.5Z"/>
        <path class="cls-3" d="m155.68,68.66c-2.46,5.04-6.38,9.07-10.3,11.31-4.82,2.69-10.19,3.25-14.56,3.25-6.5,0-12.88-1.23-18.03-6.72-2.69-2.8-5.82-7.73-5.82-15.68,0-8.4,3.02-16.8,8.4-22.06,6.16-6.16,13.44-7.17,19.38-7.17s11.87,1.12,16.58,5.6c5.26,5.04,6.27,11.65,6.27,17.58,0,2.02,0,3.47-.22,4.93h-36.29c-.56,4.48.78,7.73,2.8,9.74,2.46,2.58,5.49,3.02,7.95,3.02,1.68,0,4.82-.11,7.39-1.57,2.02-1.23,3.7-3.25,4.7-5.04l11.76,2.8Zm-10.08-17.7c-.11-2.8-1.34-5.49-3.02-7.06-1.9-1.79-4.82-2.69-7.62-2.69-3.7,0-6.38,1.46-8.29,3.14-1.68,1.57-3.25,3.92-4.03,6.61h22.96Z"/>
        <path class="cls-3" d="m208.65,33.15h13.66l-5.94,48.5h-13.66l.78-6.27c-2.46,3.25-5.26,4.93-6.16,5.49-2.91,1.68-5.71,2.35-9.07,2.35-5.82,0-11.31-1.57-15.9-6.16-4.7-4.7-6.5-10.64-6.5-17.14,0-8.74,2.91-15.9,7.5-20.72,3.92-4.03,10.19-7.62,19.15-7.62,3.47,0,6.5.67,9.63,2.35,2.69,1.46,4.37,3.25,5.71,5.49l.78-6.27Zm-23.74,14c-3.14,2.91-4.82,7.17-4.82,11.2,0,4.26,1.57,7.62,3.7,9.63,2.02,1.9,4.93,3.14,8.96,3.14,2.69,0,6.38-.56,9.63-3.47s4.82-7.5,4.82-11.65c0-3.47-1.34-6.5-3.36-8.62-1.57-1.68-4.48-3.7-9.41-3.7-3.47,0-6.72,1.01-9.52,3.47Z"/>
        <path class="cls-3" d="m248.08,44.8l-4.48,36.85h-13.66l4.48-36.85h-5.38l1.46-11.65h5.38l2.02-16.58h13.66l-2.02,16.58h9.41l-1.46,11.65h-9.41Z"/>
        <path class="cls-3" d="m280.33,33.15l-5.94,48.5h-13.66l5.94-48.5h13.66Zm-9.86-25.87c2.24-2.35,4.7-2.8,6.5-2.8,2.13,0,3.92.78,5.15,2.02,1.34,1.34,2.13,3.25,2.13,5.26,0,1.68-.56,4.14-2.69,6.27-2.02,2.02-4.37,2.8-6.5,2.8s-3.81-.78-5.15-2.02c-1.34-1.34-2.13-2.91-2.13-5.15s.78-4.48,2.69-6.38Z"/>
        <path class="cls-3" d="m302.39,33.15l9.41,27.33,16.13-27.33h15.68l-30.69,48.5h-6.5l-18.82-48.5h14.78Z"/>
        <path class="cls-3" d="m394.23,68.66c-2.46,5.04-6.38,9.07-10.3,11.31-4.82,2.69-10.19,3.25-14.56,3.25-6.5,0-12.88-1.23-18.03-6.72-2.69-2.8-5.82-7.73-5.82-15.68,0-8.4,3.02-16.8,8.4-22.06,6.16-6.16,13.44-7.17,19.38-7.17s11.87,1.12,16.58,5.6c5.26,5.04,6.27,11.65,6.27,17.58,0,2.02,0,3.47-.22,4.93h-36.29c-.56,4.48.78,7.73,2.8,9.74,2.46,2.58,5.49,3.02,7.95,3.02,1.68,0,4.82-.11,7.39-1.57,2.02-1.23,3.7-3.25,4.7-5.04l11.76,2.8Zm-10.08-17.7c-.11-2.8-1.34-5.49-3.02-7.06-1.9-1.79-4.82-2.69-7.62-2.69-3.7,0-6.38,1.46-8.29,3.14-1.68,1.57-3.25,3.92-4.03,6.61h22.96Z"/>
        <path class="cls-3" d="m476.33,23.97c-2.02-3.02-5.82-6.38-11.98-6.38-4.03,0-6.5,1.23-7.95,2.58-1.79,1.57-2.91,3.7-2.91,6.27s1.01,4.26,3.14,5.71c1.46,1.01,3.36,1.79,7.06,3.36l5.04,2.13c2.91,1.23,6.38,3.14,9.3,6.27,3.36,3.58,4.59,7.06,4.59,11.98,0,8.18-3.14,15.79-7.95,20.38-6.16,5.94-14.22,7.06-20.38,7.06-5.71,0-10.53-1.12-15.34-4.26-3.81-2.46-7.17-6.27-9.52-9.86l10.64-9.07c1.12,2.13,3.25,5.15,5.26,6.83,2.91,2.46,6.05,3.14,9.41,3.14,2.91,0,6.83-.45,9.74-3.7,1.57-1.68,2.8-4.14,2.8-7.73,0-2.69-.9-4.82-3.36-6.83-2.46-2.02-4.7-2.46-7.62-3.7l-4.26-1.79c-4.7-2.02-7.39-3.81-9.07-5.49-3.92-3.81-4.59-8.4-4.59-12.32,0-5.82,1.68-11.42,6.38-16.13,6.05-6.05,13.66-7.17,20.27-7.17,4.82,0,13.1.78,20.16,8.74l-8.85,9.97Z"/>
        <path class="cls-3" d="m501.41,107.29h-13.66l9.07-74.14h13.66l-.78,6.27c2.13-2.58,4.48-4.37,7.17-5.71,3.14-1.57,5.6-2.13,8.96-2.13,4.93,0,10.64,1.01,15.23,5.38,5.26,5.04,6.38,11.76,6.38,17.14,0,11.31-4.37,18.26-8.29,22.18-5.38,5.38-11.42,6.94-17.58,6.94-2.02,0-7.28-.22-11.31-2.8-2.02-1.23-3.7-3.14-4.93-5.04l-3.92,31.92Zm9.3-59.58c-3.14,3.02-4.59,7.06-4.59,10.86,0,3.58,1.23,6.72,3.02,8.74,2.8,3.25,6.61,3.81,9.63,3.81,3.92,0,7.17-1.12,9.97-3.92,2.91-2.91,4.48-7.28,4.48-11.54,0-3.92-1.57-6.94-3.58-8.85-2.02-1.9-5.49-3.14-8.74-3.14-3.58,0-7.17,1.01-10.19,4.03Z"/>
        <path class="cls-3" d="m574.55,33.15l-5.94,48.5h-13.66l5.94-48.5h13.66Zm-9.86-25.87c2.24-2.35,4.7-2.8,6.5-2.8,2.13,0,3.92.78,5.15,2.02,1.34,1.34,2.13,3.25,2.13,5.26,0,1.68-.56,4.14-2.69,6.27-2.02,2.02-4.37,2.8-6.5,2.8s-3.81-.78-5.15-2.02c-1.34-1.34-2.13-2.91-2.13-5.15s.78-4.48,2.69-6.38Z"/>
        <path class="cls-3" d="m588.1,33.15h13.66l-.9,6.94c1.34-2.35,3.47-4.82,6.05-6.38,2.91-1.79,5.6-2.13,8.51-2.13,2.46,0,4.26.34,6.38,1.12l-4.03,12.21c-1.57-.78-3.25-1.23-5.26-1.23-3.58,0-6.5,1.34-8.51,3.36-3.02,3.02-5.04,9.07-5.6,14l-2.58,20.61h-13.66l5.94-48.5Z"/>
        <path class="cls-3" d="m666.39,33.15h13.66l-5.94,48.5h-13.66l.78-6.27c-2.46,3.25-5.26,4.93-6.16,5.49-2.91,1.68-5.71,2.35-9.07,2.35-5.82,0-11.31-1.57-15.9-6.16-4.7-4.7-6.5-10.64-6.5-17.14,0-8.74,2.91-15.9,7.5-20.72,3.92-4.03,10.19-7.62,19.15-7.62,3.47,0,6.5.67,9.63,2.35,2.69,1.46,4.37,3.25,5.71,5.49l.78-6.27Zm-23.74,14c-3.14,2.91-4.82,7.17-4.82,11.2,0,4.26,1.57,7.62,3.7,9.63,2.02,1.9,4.93,3.14,8.96,3.14,2.69,0,6.38-.56,9.63-3.47s4.82-7.5,4.82-11.65c0-3.47-1.34-6.5-3.36-8.62-1.57-1.68-4.48-3.7-9.41-3.7-3.47,0-6.72,1.01-9.52,3.47Z"/>
        <path class="cls-3" d="m711.41,0l-10.08,81.65h-13.66L697.75,0h13.66Z"/>
        <path class="cls-3" d="m790.59,19.49h-25.09l-2.02,16.69h23.52l-1.57,12.54h-23.52l-4.03,32.93h-14.56l9.18-74.7h39.65l-1.57,12.54Z"/>
        <path class="cls-3" d="m843.34,68.66c-2.46,5.04-6.38,9.07-10.3,11.31-4.82,2.69-10.19,3.25-14.56,3.25-6.5,0-12.88-1.23-18.03-6.72-2.69-2.8-5.82-7.73-5.82-15.68,0-8.4,3.02-16.8,8.4-22.06,6.16-6.16,13.44-7.17,19.38-7.17s11.87,1.12,16.58,5.6c5.26,5.04,6.27,11.65,6.27,17.58,0,2.02,0,3.47-.22,4.93h-36.29c-.56,4.48.78,7.73,2.8,9.74,2.46,2.58,5.49,3.02,7.95,3.02,1.68,0,4.82-.11,7.39-1.57,2.02-1.23,3.7-3.25,4.7-5.04l11.76,2.8Zm-10.08-17.7c-.11-2.8-1.34-5.49-3.02-7.06-1.9-1.79-4.82-2.69-7.62-2.69-3.7,0-6.38,1.46-8.29,3.14-1.68,1.57-3.25,3.92-4.03,6.61h22.96Z"/>
        <path class="cls-3" d="m884.11,44.91c-1.01-1.01-2.02-1.79-3.47-2.46-1.46-.67-2.69-1.01-4.59-1.01-.56,0-3.25.11-4.59,1.57-.45.56-1.01,1.46-1.01,2.91,0,1.01.22,1.79,1.01,2.46s1.79,1.12,3.92,1.79l4.14,1.34c2.69.9,5.71,2.58,7.5,4.37,2.8,2.91,3.36,6.61,3.36,9.18,0,5.6-2.24,9.63-5.04,12.43-5.04,5.04-11.42,5.71-15.9,5.71-4.93,0-8.62-1.01-11.42-2.35-2.46-1.23-5.38-3.58-7.39-5.71l8.18-8.29c1.12,1.57,2.69,3.02,4.48,4.03,1.68.9,3.7,1.57,5.6,1.57,1.79,0,4.03-.45,5.26-1.46,1.12-.9,1.9-2.46,1.9-4.26,0-.9-.22-2.02-1.23-3.02-1.01-.9-2.69-1.57-4.82-2.35l-3.36-1.34c-2.02-.78-4.37-1.9-6.38-3.92-2.24-2.24-3.25-4.59-3.25-8.29,0-4.82,2.02-8.85,4.82-11.54,2.8-2.69,7.28-4.7,13.78-4.7,3.14,0,6.72.45,9.52,1.57,2.13.78,4.48,2.24,6.05,3.36l-7.06,8.4Z"/>
        <path class="cls-3" d="m915.91,44.8l-4.48,36.85h-13.66l4.48-36.85h-5.38l1.46-11.65h5.38l2.02-16.58h13.66l-2.02,16.58h9.41l-1.46,11.65h-9.41Z"/>
        <path class="cls-3" d="m947.61,33.15l-5.94,48.5h-13.66l5.94-48.5h13.66Zm-9.86-25.87c2.24-2.35,4.7-2.8,6.5-2.8,2.13,0,3.92.78,5.15,2.02,1.34,1.34,2.13,3.25,2.13,5.26,0,1.68-.56,4.14-2.69,6.27-2.02,2.02-4.37,2.8-6.5,2.8s-3.81-.78-5.15-2.02c-1.34-1.34-2.13-2.91-2.13-5.15s.78-4.48,2.69-6.38Z"/>
        <path class="cls-3" d="m969.67,33.15l9.41,27.33,16.13-27.33h15.68l-30.69,48.5h-6.5l-18.82-48.5h14.78Z"/>
        <path class="cls-3" d="m1055.02,33.15h13.66l-5.94,48.5h-13.66l.78-6.27c-2.46,3.25-5.26,4.93-6.16,5.49-2.91,1.68-5.71,2.35-9.07,2.35-5.82,0-11.31-1.57-15.9-6.16s-6.5-10.64-6.5-17.14c0-8.74,2.91-15.9,7.5-20.72,3.92-4.03,10.19-7.62,19.15-7.62,3.47,0,6.5.67,9.63,2.35,2.69,1.46,4.37,3.25,5.71,5.49l.78-6.27Zm-23.74,14c-3.14,2.91-4.82,7.17-4.82,11.2,0,4.26,1.57,7.62,3.7,9.63,2.02,1.9,4.93,3.14,8.96,3.14,2.69,0,6.38-.56,9.63-3.47,3.25-2.91,4.82-7.5,4.82-11.65,0-3.47-1.34-6.5-3.36-8.62-1.57-1.68-4.48-3.7-9.41-3.7-3.47,0-6.72,1.01-9.52,3.47Z"/>
        <path class="cls-3" d="m1100.04,0l-10.08,81.65h-13.66l10.08-81.65h13.66Z"/>
        <path class="cls-3" d="m1150.21,56.67c3.47-3.47,11.98-12.32,14.67-15.57,2.69-3.14,6.05-7.62,6.05-13.33,0-3.47-1.34-5.94-3.14-7.5-1.68-1.46-4.48-2.46-7.5-2.46-3.7,0-6.5,1.46-8.18,3.14-2.13,2.13-3.7,6.05-4.03,9.3h-15.01c.67-7.28,3.81-12.99,7.06-16.58,6.05-6.72,13.78-8.4,21.17-8.4,6.27,0,13.22,1.23,18.59,6.72,4.03,4.14,5.71,8.96,5.71,14.45,0,5.94-1.68,10.75-4.93,15.46-1.68,2.35-4.59,6.05-12.1,13.22l-14.56,14h26.99l-1.57,12.54h-53.98l24.75-24.98Z"/>
        <path class="cls-3" d="m1202.74,77.06c-7.84-7.73-8.74-18.82-8.74-25.54,0-14.78,5.26-29.57,14.22-38.08,5.94-5.6,13.1-8.18,19.71-8.18s12.54,2.58,16.58,6.61c7.39,7.28,8.4,18.03,8.4,24.42,0,13.66-3.81,29.23-13.55,39.2-6.16,6.27-11.65,7.84-19.6,7.84-6.94,0-12.1-1.34-17.02-6.27Zm15.23-55.22c-6.16,6.27-9.18,19.94-9.18,29.68,0,5.04.9,12.66,4.82,16.46,1.68,1.68,4.03,2.8,7.06,2.8,3.47,0,6.27-1.46,8.62-3.81,5.26-5.49,8.85-19.04,8.85-29.34,0-6.05-1.01-14.11-4.59-17.58-2.02-2.02-4.03-2.24-6.16-2.24-4.14,0-6.94,1.57-9.41,4.03Z"/>
        <path class="cls-3" d="m1278.56,56.67c3.47-3.47,11.98-12.32,14.67-15.57,2.69-3.14,6.05-7.62,6.05-13.33,0-3.47-1.34-5.94-3.14-7.5-1.68-1.46-4.48-2.46-7.5-2.46-3.7,0-6.5,1.46-8.18,3.14-2.13,2.13-3.7,6.05-4.03,9.3h-15.01c.67-7.28,3.81-12.99,7.06-16.58,6.05-6.72,13.78-8.4,21.17-8.4,6.27,0,13.22,1.23,18.59,6.72,4.03,4.14,5.71,8.96,5.71,14.45,0,5.94-1.68,10.75-4.93,15.46-1.68,2.35-4.59,6.05-12.1,13.22l-14.56,14h26.99l-1.57,12.54h-53.98l24.75-24.98Z"/>
        <path class="cls-3" d="m1371.63,55.89h8.74l-1.46,11.65h-8.74l-1.68,14.11h-13.66l1.68-14.11h-36.51l.9-6.5,43.68-54.1h13.1l-6.05,48.94Zm-13.66,0l3.47-28.9-22.74,28.9h19.26Z"/>
      </g>
    </g>
  </g>
</svg>