<?xml version="1.0" encoding="UTF-8"?>
<svg id="_レイヤー_2" data-name="レイヤー 2" xmlns="http://www.w3.org/2000/svg" xmlns:xlink="http://www.w3.org/1999/xlink" viewBox="0 0 1443.66 392.22">
  <defs>
    <style>
      .cls-1 {
        fill: url(#_新規グラデーションスウォッチ_2-4);
      }

      .cls-1, .cls-2, .cls-3, .cls-4, .cls-5, .cls-6 {
        stroke-width: 0px;
      }

      .cls-2 {
        fill: #ba4053;
      }

      .cls-3 {
        fill: url(#_新規グラデーションスウォッチ_2-2);
      }

      .cls-7, .cls-8 {
        fill: none;
        stroke: #ba4053;
        stroke-linecap: round;
        stroke-miterlimit: 10;
      }

      .cls-4 {
        fill: url(#_新規グラデーションスウォッチ_2-3);
      }

      .cls-5 {
        fill: #f1f4db;
      }

      .cls-6 {
        fill: url(#_新規グラデーションスウォッチ_2);
      }

      .cls-8 {
        stroke-width: 5px;
      }
    </style>
    <linearGradient id="_新規グラデーションスウォッチ_2" data-name="新規グラデーションスウォッチ 2" x1="373.53" y1="253.32" x2="505.17" y2="253.32" gradientUnits="userSpaceOnUse">
      <stop offset=".15" stop-color="#c74056" stop-opacity="0"/>
      <stop offset=".18" stop-color="#c74056" stop-opacity=".12"/>
      <stop offset=".24" stop-color="#c74056" stop-opacity=".33"/>
      <stop offset=".29" stop-color="#c74056" stop-opacity=".48"/>
      <stop offset=".33" stop-color="#c74056" stop-opacity=".57"/>
      <stop offset=".36" stop-color="#c74056" stop-opacity=".6"/>
      <stop offset=".4" stop-color="#c74056" stop-opacity=".7"/>
      <stop offset=".45" stop-color="#c74056" stop-opacity=".81"/>
      <stop offset=".52" stop-color="#c74056" stop-opacity=".9"/>
      <stop offset=".59" stop-color="#c74056" stop-opacity=".96"/>
      <stop offset=".7" stop-color="#c74056" stop-opacity=".99"/>
      <stop offset="1" stop-color="#c74056"/>
    </linearGradient>
    <linearGradient id="_新規グラデーションスウォッチ_2-2" data-name="新規グラデーションスウォッチ 2" x1="3081.37" y1="857.75" x2="3228.5" y2="857.75" gradientTransform="translate(4444.68 977.42) rotate(-180)" xlink:href="#_新規グラデーションスウォッチ_2"/>
    <linearGradient id="_新規グラデーションスウォッチ_2-3" data-name="新規グラデーションスウォッチ 2" x1="25.43" y1="161.88" x2="168.89" y2="161.88" xlink:href="#_新規グラデーションスウォッチ_2"/>
    <linearGradient id="_新規グラデーションスウォッチ_2-4" data-name="新規グラデーションスウォッチ 2" x1="4685" y1="4129.22" x2="4994.05" y2="4129.22" gradientTransform="translate(-6737.92 -4085.41) scale(1.52 1)" xlink:href="#_新規グラデーションスウォッチ_2"/>
  </defs>
  <g id="_レイヤー_1-2" data-name="レイヤー 1">
    <g id="logo">
      <circle class="cls-8" cx="238.43" cy="157.79" r="97.36"/>
      <circle class="cls-8" cx="439.35" cy="253.32" r="53.34"/>
      <line class="cls-8" x1="108.63" y1="161.09" x2="271.8" y2="145"/>
      <line class="cls-8" x1="166.65" y1="288.44" x2="327.54" y2="272.57"/>
      <line class="cls-8" x1="2.5" y1="389.72" x2="379.27" y2="352.56"/>
      <path class="cls-2" d="m329.89,313.44c-67.26,8.76-68.96,10.65-65.18,72.51-8.38-61.41-10.42-62.93-78.09-58.38,67.26-8.76,68.96-10.65,65.18-72.51,8.38,61.41,10.42,62.93,78.09,58.38Z"/>
      <path class="cls-6" d="m470.9,319.14c-32.37-51.7-39.76-54.3-97.38-34.27,51.7-32.37,54.3-39.76,34.27-97.38,32.37,51.7,39.76,54.3,97.38,34.27-51.7,32.37-54.3,39.76-34.27,97.38Z"/>
      <path class="cls-8" d="m477.01,191.78c25.45-.15,49.87,11.83,63.93,34.08,9.12,14.43,12.46,30.94,10.66,47.02"/>
      <circle class="cls-8" cx="642.84" cy="202.73" r="53.34"/>
      <path class="cls-8" d="m597.79,134.22c9.62-11.88,24.26-19.56,40.74-19.78,25.78-.35,47.53,17.64,52.83,41.88"/>
      <path class="cls-8" d="m878.2,219.94c10.24-11.55,25.19-18.82,41.84-18.82,30.88,0,55.92,25.04,55.92,55.92,0,30.88-25.04,55.92-55.92,55.92-12.72,0-24.45-4.25-33.85-11.4"/>
      <path class="cls-8" d="m1325.71,265.37c-9.06,12.5-23.22,21.2-39.79,22.84-30.73,3.03-58.11-19.43-61.14-50.16-3.03-30.73,19.43-58.11,50.16-61.14,12.66-1.25,24.75,1.83,34.8,8.03"/>
      <path class="cls-8" d="m1098.07,137.97c9.74,10.75,15.32,25.25,14.39,40.88-1.84,30.83-28.31,54.33-59.14,52.5-30.83-1.84-54.33-28.31-52.5-59.14.52-8.71,3-16.83,6.99-23.96"/>
      <line class="cls-8" x1="1216.52" y1="158.07" x2="1441.16" y2="135.91"/>
      <line class="cls-8" x1="1099.26" y1="138.23" x2="1264.82" y2="121.9"/>
      <line class="cls-8" x1="693.41" y1="178.26" x2="1007.83" y2="147.25"/>
      <path class="cls-2" d="m824.85,165.29c-66.17,7.71-66.86,8.73-59.89,89.27-8.9-80.35-9.77-81.22-76.17-75.85,66.17-7.71,66.86-8.73,59.89-89.27,8.9,80.35,9.77,81.22,76.17,75.85Z"/>
      <path class="cls-2" d="m1204.7,127.96c-35.5,4.99-36.36,6.29-33.31,49.66-5.48-43.13-6.59-44.23-42.37-42.19,35.5-4.99,36.36-6.29,33.31-49.66,5.48,43.13,6.59,44.23,42.37,42.19Z"/>
      <path class="cls-7" d="m1171.79,95.72c-33.81,4.75-34.63,5.99-31.73,47.3-5.22-41.08-6.27-42.13-40.36-40.19,33.81-4.75,34.63-5.99,31.73-47.3,5.22,41.08,6.27,42.13,40.36,40.19Z"/>
      <path class="cls-3" d="m1216.18,126.92c71.57-8.18,72.32-9.16,65.86-85.36,8.55,76,9.48,76.82,81.27,70.85-71.57,8.18-72.32,9.16-65.86,85.36-8.55-76-9.48-76.82-81.27-70.85Z"/>
      <path class="cls-2" d="m956.23,152.46c-66.82,7.8-67.52,8.84-60.38,91.15-9.08-82.12-9.97-83.01-77.03-77.6,66.82-7.8,67.52-8.84,60.38-91.15,9.08,82.12,9.97,83.01,77.03,77.6Z"/>
      <path class="cls-4" d="m168.89,154.81c-67.35,8.77-69.05,10.66-65.27,72.6-8.39-61.49-10.43-63.01-78.19-58.46,67.35-8.77,69.05-10.66,65.27-72.6,8.39,61.49,10.43,63.01,78.19,58.46Z"/>
      <rect class="cls-1" x="379.09" y="20.97" width="469.48" height="45.69" rx="22.84" ry="22.84" transform="translate(1229 26.67) rotate(174.32)"/>
      <g>
        <path class="cls-5" d="m443.32,57.64c-.04-.35.21-.65.56-.68.35-.03.65.21.68.56.04.35-.21.65-.56.68-.35.03-.65-.21-.68-.56Zm.21,2.06c-.04-.35.21-.65.56-.68.35-.03.65.21.68.56.04.35-.21.65-.56.68-.35.03-.65-.21-.68-.56Zm.21,2.09c-.03-.35.21-.65.56-.68.35-.03.65.21.68.56.03.32-.21.65-.56.68-.35.03-.65-.24-.68-.56Zm.21,2.06c-.03-.35.21-.65.56-.68.35-.03.65.21.68.56.03.35-.21.65-.56.68-.35.03-.65-.21-.68-.56Zm.21,2.06c-.03-.35.21-.65.56-.68s.65.21.68.56c.03.35-.21.65-.56.68-.35.03-.65-.21-.68-.56Zm.21,2.09c-.04-.35.21-.65.56-.68.35-.03.65.21.68.56.03.32-.21.65-.56.68-.35.03-.65-.24-.68-.56Zm.64-14.73c-.04-.35.21-.65.56-.68.32-.03.65.21.68.56.03.35-.24.65-.56.68-.35.04-.65-.21-.68-.56Zm.08,2.1c-.04-.42.25-.78.67-.82.4-.04.75.25.79.67.04.4-.25.75-.65.79-.42.04-.78-.25-.82-.65Zm1.57,14.49c-.03-.35.21-.65.56-.68.32-.03.65.21.68.56.04.35-.24.65-.56.68-.35.03-.65-.21-.68-.56Zm1.76-2.26c-.04-.42.25-.78.65-.82.4-.04.75.25.8.67.04.4-.25.75-.65.79-.4.04-.75-.25-.79-.65Zm.83-12.64c-.04-.42.25-.78.65-.82.4-.04.75.25.79.67.04.4-.25.75-.65.79-.4.04-.75-.25-.79-.65Zm.21,4.15c-.05-.5.33-.96.83-1.01.52-.05.99.33,1.04.83.05.52-.33.99-.85,1.04-.5.05-.96-.33-1.02-.85Zm.72,6.21c-.04-.45.29-.86.74-.9.47-.05.88.29.93.74.05.47-.29.88-.76.93-.45.04-.86-.29-.9-.76Zm.61,4.13c-.03-.35.21-.65.56-.68.35-.04.65.21.68.56.03.35-.21.65-.56.68-.35.04-.65-.21-.68-.56Zm.52-14.7c-.04-.42.25-.78.67-.82.4-.04.75.25.79.67.04.4-.25.75-.65.79-.42.04-.78-.25-.82-.65Zm.21,4.15c-.05-.5.33-.96.85-1.01.5-.05.96.33,1.01.83.05.52-.33.99-.83,1.04-.52.05-.99-.33-1.04-.85Zm.72,6.21c-.04-.45.29-.86.76-.91.45-.04.86.29.9.74.05.47-.29.88-.74.93-.47.05-.88-.29-.93-.76Zm.64,4.13c-.04-.35.21-.65.56-.68.32-.03.65.21.68.56.03.35-.24.65-.56.68-.35.03-.65-.21-.68-.56Zm.52-14.7c-.04-.42.25-.78.65-.82.4-.04.75.25.79.67.04.4-.25.75-.65.79-.4.04-.75-.25-.79-.65Zm.19,4.15c-.05-.5.33-.96.85-1.01.5-.05.96.33,1.01.83.05.52-.33.99-.83,1.04-.52.05-.99-.33-1.04-.85Zm.74,6.21c-.04-.45.29-.86.74-.9.45-.04.86.29.9.74.05.47-.29.88-.74.93-.45.04-.86-.29-.91-.76Zm.61,4.13c-.04-.35.21-.65.56-.68.35-.03.65.21.68.56.04.35-.21.65-.56.68-.35.04-.65-.21-.68-.56Zm.52-14.7c-.04-.42.25-.78.65-.82.4-.04.75.25.79.67.04.4-.25.75-.65.79-.4.04-.75-.25-.79-.65Zm.11,2.07c-.04-.45.29-.86.74-.9.47-.05.88.29.93.74.04.45-.29.86-.76.9-.45.04-.86-.29-.9-.74Zm.21,2.06c-.04-.45.29-.86.74-.9.47-.05.88.29.93.74.05.47-.29.88-.76.93-.45.04-.86-.29-.9-.76Zm.21,2.09c-.05-.47.29-.88.74-.93.47-.05.88.29.93.76.04.45-.29.86-.76.9-.45.04-.86-.29-.9-.74Zm.21,2.06c-.04-.45.29-.86.74-.9.47-.05.88.29.93.74.04.45-.29.86-.76.9-.45.04-.86-.29-.9-.74Zm.21,2.06c-.04-.45.29-.86.74-.9.47-.05.88.29.93.74.05.47-.29.88-.76.93-.45.04-.86-.29-.91-.76Zm.31,2.08c-.04-.42.25-.78.65-.82.4-.04.75.25.79.67.04.4-.25.75-.65.79-.4.04-.75-.25-.79-.65Zm.83-12.64c-.04-.42.25-.78.67-.82.4-.04.75.25.79.67.04.4-.25.75-.65.79-.42.04-.78-.25-.82-.65Zm.41,4.13c-.04-.4.25-.75.67-.8.4-.04.75.25.79.65.04.4-.25.75-.65.79-.42.04-.78-.25-.82-.65Zm.83,8.31c-.04-.42.25-.78.67-.82.4-.04.75.25.79.67.04.4-.25.75-.65.79-.42.04-.78-.25-.82-.65Zm.95-12.65c-.03-.35.21-.65.56-.68.35-.03.65.21.68.56.03.32-.21.65-.56.68-.35.04-.65-.24-.68-.56Zm.41,4.13c-.03-.35.21-.65.56-.68.35-.04.65.21.68.56.04.35-.21.65-.56.68-.35.04-.65-.21-.68-.56Zm1.03,10.37c-.03-.35.21-.65.56-.68.35-.04.65.21.68.56.04.35-.21.65-.56.68-.35.04-.65-.21-.68-.56Z"/>
        <path class="cls-5" d="m484.75,55.6c-.04-.4.25-.75.65-.79.42-.04.78.25.82.65.04.4-.25.75-.67.8-.4.04-.75-.25-.79-.65Zm.21,2.06c-.04-.4.25-.75.65-.79.42-.04.78.25.82.65.04.42-.25.78-.67.82-.4.04-.75-.25-.8-.67Zm.21,2.09c-.04-.4.25-.75.65-.79.42-.04.78.25.82.65.04.4-.25.75-.67.79-.4.04-.75-.25-.79-.65Zm.21,2.06c-.04-.4.25-.75.65-.79.42-.04.78.25.82.65.04.4-.25.75-.67.8-.4.04-.75-.25-.79-.65Zm.95-12.65c-.04-.35.21-.65.56-.68.35-.04.65.21.68.56.03.35-.21.65-.56.68-.35.03-.65-.21-.68-.56Zm.11,2.07c-.04-.4.25-.75.65-.79.4-.04.75.25.79.65.04.42-.25.78-.65.82-.4.04-.75-.25-.8-.67Zm.08,2.1c-.05-.47.29-.88.76-.93.45-.04.86.29.9.76.04.45-.29.86-.74.9-.47.05-.88-.29-.93-.74Zm1.15,10.33c-.04-.4.25-.75.65-.79.4-.04.75.25.79.65.04.42-.25.78-.65.82-.4.04-.75-.25-.8-.67Zm2.37,1.87c-.03-.35.21-.65.56-.68.35-.04.65.21.68.56.04.35-.21.65-.56.68-.35.04-.65-.21-.68-.56Zm2.06-.21c-.03-.35.24-.65.56-.68.35-.03.65.21.68.56.04.35-.21.65-.56.68-.32.03-.65-.21-.68-.56Zm2.09-.21c-.03-.35.21-.65.56-.68.35-.04.65.21.68.56.03.35-.21.65-.56.68-.35.04-.65-.21-.68-.56Zm1.76-2.29c-.04-.4.25-.75.65-.79.4-.04.75.25.79.65.04.42-.25.78-.65.82s-.75-.25-.79-.67Zm1.45-6.42c-.04-.4.25-.75.65-.79.42-.04.78.25.82.65.04.42-.25.78-.67.82-.4.04-.75-.25-.8-.67Zm.21,2.09c-.04-.4.25-.75.65-.79.42-.04.78.25.82.65.04.4-.25.75-.67.8-.4.04-.75-.25-.79-.65Zm.21,2.06c-.04-.4.25-.75.65-.79.42-.04.78.25.82.65.04.4-.25.75-.67.8-.4.04-.75-.25-.79-.65Z"/>
        <path class="cls-5" d="m522.24,53.96c-.03-.32.21-.65.56-.68s.65.24.68.56c.04.35-.21.65-.56.68-.35.03-.65-.21-.68-.56Zm.21,2.09c-.03-.35.21-.65.56-.68.35-.04.65.21.68.56.04.35-.21.65-.56.68-.35.03-.65-.21-.68-.56Zm.21,2.06c-.03-.35.21-.65.56-.68.35-.04.65.21.68.56s-.21.65-.56.68c-.35.03-.65-.21-.68-.56Zm1.35-6.41c-.04-.4.25-.75.67-.79.4-.04.75.25.79.65.04.4-.25.75-.65.79-.42.04-.78-.25-.82-.65Zm.82,8.28c-.04-.4.25-.75.67-.8.4-.04.75.25.79.65.04.42-.25.78-.65.82-.42.04-.78-.25-.82-.67Zm.96-10.54c-.05-.47.29-.88.74-.93s.86.29.9.76c.04.45-.29.86-.74.9-.45.04-.86-.29-.9-.74Zm1.13,10.34c-.04-.4.25-.75.65-.79.4-.04.75.25.79.65.04.42-.25.78-.65.82-.4.04-.75-.25-.8-.67Zm.83-12.64c-.04-.4.25-.75.65-.79.4-.04.75.25.79.65.04.42-.25.78-.65.82-.4.04-.75-.25-.79-.67Zm.63,8.33c-.05-.52.33-.99.83-1.04.52-.05.99.33,1.04.85.05.5-.33.96-.85,1.01-.5.05-.96-.33-1.01-.83Zm.31,2.05c-.04-.45.29-.86.74-.9.47-.05.88.29.93.74.04.45-.29.86-.76.9-.45.04-.86-.29-.9-.74Zm1.13-10.59c-.04-.4.25-.75.67-.79.4-.04.75.25.79.65.04.42-.25.78-.65.82-.42.04-.78-.25-.82-.67Zm.11,2.1c-.05-.47.29-.88.76-.93.45-.04.86.29.91.76.04.45-.29.86-.74.9-.47.05-.88-.29-.93-.74Zm.11,2.07c-.05-.5.33-.96.85-1.01.5-.05.96.33,1.01.83.05.52-.33.99-.83,1.04-.52.05-.99-.33-1.04-.85Zm.11,2.08c-.05-.55.37-1.07.94-1.12.55-.05,1.07.37,1.12.92.06.57-.37,1.09-.92,1.15-.57.06-1.09-.37-1.15-.94Zm1.77-6.46c-.04-.4.25-.75.65-.79.4-.04.75.25.79.65.04.42-.25.78-.65.82-.4.04-.75-.25-.79-.67Zm1.54,14.52c-.03-.35.21-.65.56-.68.35-.03.65.21.68.56.03.35-.21.65-.56.68-.35.03-.65-.21-.68-.56Zm.52-14.72c-.04-.4.25-.75.65-.79.4-.04.75.25.79.65.04.42-.25.78-.65.82-.4.04-.75-.25-.79-.67Zm1.54,14.52c-.03-.35.21-.65.56-.68.35-.03.65.21.68.56.03.35-.21.65-.56.68-.35.03-.65-.21-.68-.56Zm.73-12.63c-.04-.4.25-.75.67-.8.4-.04.75.25.79.65.04.4-.25.75-.65.79-.42.04-.78-.25-.82-.65Zm1.03,10.35c-.04-.4.25-.75.67-.8.4-.04.75.25.79.65.04.42-.25.78-.65.82-.42.04-.78-.25-.82-.67Zm1.37-8.5c-.04-.35.21-.65.56-.68.35-.03.65.21.68.56.04.35-.21.65-.56.68-.35.03-.65-.21-.68-.56Zm.21,2.06c-.03-.32.21-.65.56-.68.35-.04.65.24.68.56.03.35-.21.65-.56.68-.35.03-.65-.21-.68-.56Zm.21,2.09c-.03-.35.21-.65.56-.68.35-.03.65.21.68.56.03.35-.21.65-.56.68-.35.03-.65-.21-.68-.56Zm.21,2.06c-.03-.35.21-.65.56-.68.35-.03.65.21.68.56.03.35-.21.65-.56.68-.35.03-.65-.21-.68-.56Z"/>
        <path class="cls-5" d="m561.71,52.15c-.04-.35.21-.65.56-.68.35-.03.65.21.68.56.03.35-.21.65-.56.68-.35.03-.65-.21-.68-.56Zm.21,2.06c-.03-.35.21-.65.56-.68.35-.03.65.21.68.56.03.35-.21.65-.56.68-.35.03-.65-.21-.68-.56Zm.85-12.64c-.03-.35.21-.65.54-.68.35-.03.65.21.68.56.03.35-.21.65-.56.68-.32.03-.62-.21-.66-.56Zm.7,8.32c-.04-.42.25-.78.65-.82.42-.04.78.25.82.67.04.4-.25.75-.67.8-.4.04-.75-.25-.79-.65Zm.62,6.22c-.04-.42.25-.78.65-.82.42-.04.78.25.82.67.04.4-.25.75-.67.8-.4.04-.75-.25-.79-.65Zm.75-14.74c-.03-.35.21-.65.56-.68.35-.03.65.21.68.56.04.35-.21.65-.56.68-.35.04-.65-.21-.68-.56Zm.39,6.24c-.04-.45.29-.86.76-.91.45-.04.86.29.9.74.05.47-.29.88-.74.93-.47.05-.88-.29-.93-.76Zm.62,6.22c-.04-.45.29-.86.76-.91.45-.04.86.29.9.74.05.47-.29.88-.74.93-.47.05-.88-.29-.93-.76Zm1.05-12.66c-.03-.35.21-.65.56-.68.35-.03.65.21.68.56.04.35-.21.65-.56.68-.35.04-.65-.21-.68-.56Zm.32,6.25c-.05-.5.33-.96.83-1.01.52-.05.99.33,1.04.83.05.52-.33.99-.85,1.04-.5.05-.96-.33-1.01-.85Zm.21,2.09c-.05-.52.33-.99.83-1.04.52-.05.99.33,1.04.85.05.5-.33.96-.85,1.01-.5.05-.96-.33-1.01-.83Zm.21,2.06c-.05-.52.33-.99.83-1.04.52-.05.99.33,1.04.85.05.5-.33.96-.85,1.01-.5.05-.96-.33-1.01-.83Zm1.36-10.61c-.04-.35.21-.65.56-.68.32-.03.65.21.68.56.03.35-.24.65-.56.68-.35.04-.65-.21-.68-.56Zm.08,2.1c-.04-.42.25-.78.67-.82.4-.04.75.25.8.67.04.4-.25.75-.65.79-.42.04-.78-.25-.82-.65Zm.11,2.07c-.04-.45.29-.86.76-.9.45-.04.86.29.9.74.04.45-.29.86-.74.9-.47.05-.88-.29-.93-.74Zm.11,2.07c-.05-.5.33-.96.85-1.01.5-.05.96.33,1.01.83.05.52-.33.99-.83,1.04-.52.05-.99-.33-1.04-.85Zm1.35,10.34c-.03-.35.21-.65.56-.68.32-.03.65.21.68.56.04.35-.24.65-.56.68-.35.03-.65-.21-.68-.56Zm.71-10.54c-.05-.5.33-.96.85-1.01.5-.05.96.33,1.01.83.05.52-.33.99-.83,1.04-.52.05-.99-.33-1.04-.85Zm1.05,8.29c-.04-.42.25-.78.65-.82.4-.04.75.25.79.67.04.4-.25.75-.65.79-.4.04-.75-.25-.79-.65Zm1.35-6.41c-.05-.47.29-.88.74-.93s.86.29.9.76c.04.45-.29.86-.74.9s-.86-.29-.9-.74Zm.41,4.13c-.04-.45.29-.86.74-.9.45-.04.86.29.9.74.05.47-.29.88-.74.93-.45.04-.86-.29-.91-.76Zm1.34-8.5c-.04-.4.25-.75.65-.79.42-.04.78.25.82.65.04.4-.25.75-.67.79-.4.04-.75-.25-.79-.65Zm.21,2.06c-.04-.4.25-.75.65-.79.42-.04.78.25.82.65.04.4-.25.75-.67.8-.4.04-.75-.25-.79-.65Zm.21,2.09c-.04-.42.25-.78.65-.82.42-.04.78.25.82.67.04.4-.25.75-.67.79-.4.04-.75-.25-.79-.65Zm.21,2.06c-.04-.4.25-.75.65-.79.42-.04.78.25.82.65.04.4-.25.75-.67.79-.4.04-.75-.25-.79-.65Zm2.39,1.85c-.03-.35.21-.65.56-.68.35-.03.65.21.68.56.04.35-.21.65-.56.68-.35.03-.65-.21-.68-.56Z"/>
        <path class="cls-5" d="m600.14,39.94c-.03-.32.21-.65.56-.68.35-.04.65.24.68.56.03.35-.21.65-.56.68-.35.03-.65-.21-.68-.56Zm1.96-.2c-.04-.4.25-.75.65-.79.42-.04.78.25.82.65.04.42-.25.78-.67.82-.4.04-.75-.25-.79-.67Zm.83,8.31c-.04-.4.25-.75.65-.79.42-.04.78.25.82.65.04.4-.25.75-.67.79-.4.04-.75-.25-.79-.65Zm1.26-8.51c-.04-.4.25-.75.65-.79.4-.04.75.25.79.65.04.42-.25.78-.65.82-.4.04-.75-.25-.8-.67Zm.08,2.1c-.05-.47.29-.88.76-.93.45-.04.86.29.9.76.04.45-.29.86-.74.9-.47.05-.88-.29-.93-.74Zm.21,2.06c-.04-.45.29-.86.77-.91.45-.04.86.29.9.74.04.45-.29.86-.74.9-.47.05-.88-.29-.93-.74Zm.21,2.06c-.04-.45.29-.86.76-.91.45-.04.86.29.9.74.05.47-.29.88-.74.93-.47.05-.88-.29-.93-.76Zm1.05,8.28c-.03-.35.21-.65.56-.68.35-.03.65.21.68.56.03.35-.21.65-.56.68-.35.03-.65-.21-.68-.56Zm.42-16.79c-.03-.35.21-.65.56-.68.35-.04.65.21.68.56.04.35-.21.65-.56.68-.35.03-.65-.21-.68-.56Zm.11,2.07c-.04-.4.25-.75.65-.79.4-.04.75.25.79.65.04.42-.25.78-.65.82-.4.04-.75-.25-.8-.67Zm.21,4.17c-.05-.5.33-.96.83-1.01.52-.05.99.33,1.04.83.05.52-.33.99-.85,1.04-.5.05-.96-.33-1.01-.85Zm1.33,10.34c-.03-.35.21-.65.56-.68.35-.04.65.21.68.56.03.35-.21.65-.56.68-.35.04-.65-.21-.68-.56Zm.52-14.72c-.04-.4.25-.75.65-.79.42-.04.78.25.82.65.04.42-.25.78-.67.82-.4.04-.75-.25-.8-.67Zm.21,4.17c-.05-.5.33-.96.83-1.01.52-.05.99.33,1.04.83.05.52-.33.99-.85,1.04-.5.05-.96-.33-1.01-.85Zm1.33,10.34c-.04-.35.24-.65.56-.68.35-.04.65.21.68.56.03.35-.21.65-.56.68-.32.03-.65-.21-.68-.56Zm.54-14.72c-.04-.4.25-.75.65-.79.4-.04.75.25.79.65.04.42-.25.78-.65.82-.4.04-.75-.25-.8-.67Zm.19,4.18c-.05-.5.33-.96.85-1.01.5-.05.96.33,1.01.83.05.52-.33.99-.83,1.04-.52.05-.99-.33-1.04-.85Zm1.35,10.34c-.03-.35.21-.65.56-.68.35-.04.65.21.68.56.04.35-.21.65-.56.68-.35.04-.65-.21-.68-.56Zm.52-14.72c-.04-.4.25-.75.65-.79.4-.04.75.25.79.65.04.42-.25.78-.65.82-.4.04-.75-.25-.79-.67Zm.52,6.23c-.04-.45.29-.86.74-.9.45-.04.86.29.9.74.05.47-.29.88-.74.93-.45.04-.86-.29-.9-.76Zm.72,6.21c-.04-.4.25-.75.65-.79.4-.04.75.25.79.65.04.42-.25.78-.65.82-.4.04-.75-.25-.8-.67Zm1.65-4.33c-.04-.4.25-.75.65-.79.42-.04.78.25.82.65.04.4-.25.75-.67.79-.4.04-.75-.25-.79-.65Zm.21,2.06c-.04-.4.25-.75.65-.79.42-.04.78.25.82.65.04.4-.25.75-.67.8-.4.04-.75-.25-.79-.65Z"/>
        <path class="cls-5" d="m639.4,36.06c-.03-.35.21-.65.56-.68.35-.03.65.21.68.56.03.32-.21.65-.56.68-.35.04-.65-.24-.68-.56Zm.62,6.22c-.03-.35.21-.65.56-.68.35-.04.65.21.68.56.03.32-.21.65-.56.68-.35.04-.65-.24-.68-.56Zm.21,2.06c-.03-.35.21-.65.56-.68.35-.04.65.21.68.56.04.35-.21.65-.56.68-.35.04-.65-.21-.68-.56Zm.21,2.06c-.03-.35.21-.65.56-.68.35-.04.65.21.68.56.04.35-.21.65-.56.68-.35.04-.65-.21-.68-.56Zm.93-10.54c-.04-.42.25-.78.67-.82.4-.04.75.25.8.67.04.4-.25.75-.65.79-.42.04-.78-.25-.82-.65Zm.41,4.13c-.04-.4.25-.75.67-.79.4-.04.75.25.79.65.04.4-.25.75-.65.79-.42.04-.78-.25-.82-.65Zm.83,8.31c-.04-.42.25-.78.67-.82.4-.04.75.25.79.68.04.4-.25.75-.65.79-.42.04-.78-.25-.82-.65Zm.85-12.64c-.04-.42.25-.78.65-.82.4-.04.75.25.8.67.04.4-.25.75-.65.79-.4.04-.75-.25-.79-.65Zm.08,2.08c-.04-.45.29-.86.76-.91.45-.04.86.29.9.74.04.45-.29.86-.74.9-.47.05-.88-.29-.93-.74Zm1.46,12.41c-.03-.35.21-.65.56-.68.35-.04.65.21.68.56.04.35-.21.65-.56.68-.35.04-.65-.21-.68-.56Zm.42-16.79c-.04-.35.21-.65.56-.68.35-.04.65.21.68.56.03.35-.21.65-.56.68-.35.03-.65-.21-.68-.56Zm1.65,16.59c-.03-.35.21-.65.56-.68.35-.04.65.21.68.56.04.35-.21.65-.56.68-.35.04-.65-.21-.68-.56Zm2.06-.21c-.03-.35.24-.65.56-.68.35-.03.65.21.68.56.03.35-.21.65-.56.68-.32.03-.65-.21-.68-.56Zm1.79-2.26c-.04-.42.25-.78.65-.82.4-.04.75.25.8.67.04.4-.25.75-.65.79-.4.04-.75-.25-.79-.65Zm.83-12.64c-.04-.42.25-.78.65-.82.4-.04.75.25.79.67.04.4-.25.75-.65.79-.4.04-.75-.25-.79-.65Zm.11,2.07c-.04-.45.29-.86.74-.9.45-.04.86.29.9.74.04.45-.29.86-.74.9-.45.04-.86-.29-.9-.74Zm.21,2.06c-.04-.45.29-.86.74-.9.45-.04.86.29.9.74.05.47-.29.88-.74.93-.45.04-.86-.29-.9-.76Zm.21,2.09c-.05-.47.29-.88.74-.93.45-.04.86.29.91.76.04.45-.29.86-.74.9-.45.04-.86-.29-.9-.74Zm.21,2.06c-.04-.45.29-.86.74-.9s.86.29.9.74c.04.45-.29.86-.74.9-.45.04-.86-.29-.9-.74Zm.21,2.06c-.04-.45.29-.86.74-.9.45-.04.86.29.9.74.05.47-.29.88-.74.93s-.86-.29-.91-.76Zm.95-14.74c-.03-.3.17-.54.45-.57.3-.03.54.17.57.47.03.27-.17.54-.47.57-.27.03-.52-.2-.55-.47Zm.08,2.08c-.03-.35.24-.65.56-.68.35-.03.65.21.68.56.03.35-.21.65-.56.68-.32.03-.65-.21-.68-.56Zm.52,6.23c-.04-.4.25-.75.65-.79.42-.04.78.25.82.65.04.4-.25.75-.67.8-.4.04-.75-.25-.79-.65Zm.21,2.09c-.04-.42.25-.78.65-.82.42-.04.78.25.82.67.04.4-.25.75-.67.8-.4.04-.75-.25-.79-.65Zm2.39,1.85c-.04-.35.21-.65.56-.68.35-.04.65.21.68.56.03.35-.21.65-.56.68s-.65-.21-.68-.56Zm.93-12.65c-.03-.3.2-.55.47-.58.3-.03.54.17.58.47.03.27-.17.54-.47.57-.27.03-.55-.2-.57-.47Zm.21,2.06c-.03-.27.2-.55.47-.58.3-.03.55.2.57.47.03.3-.17.54-.47.57-.27.03-.54-.17-.57-.47Z"/>
        <path class="cls-5" d="m679.06,36.28c-.03-.35.21-.65.56-.68.35-.03.65.21.68.56.03.35-.21.65-.56.68-.35.03-.65-.21-.68-.56Zm.62,6.22c-.04-.35.21-.65.56-.68.35-.03.65.21.68.56s-.21.65-.56.68c-.35.03-.65-.21-.68-.56Zm.21,2.06c-.03-.32.21-.65.56-.68.35-.04.65.24.68.56.03.35-.21.65-.56.68-.35.03-.65-.21-.68-.56Zm.73-12.63c-.04-.4.25-.75.67-.79.4-.04.75.25.79.65.04.42-.25.78-.65.82-.42.04-.78-.25-.82-.67Zm.41,4.15c-.04-.4.25-.75.67-.79.4-.04.75.25.79.65.04.4-.25.75-.65.79-.42.04-.78-.25-.82-.65Zm.41,4.15c-.04-.4.25-.75.67-.8.4-.04.75.25.79.65.04.4-.25.75-.65.79-.42.04-.78-.25-.82-.65Zm.74,6.21c-.03-.35.21-.65.56-.68.32-.03.65.21.68.56.03.35-.24.65-.56.68-.35.04-.65-.21-.68-.56Zm.52-14.72c-.04-.4.25-.75.65-.79.4-.04.75.25.79.65.04.42-.25.78-.65.82s-.75-.25-.8-.67Zm.31,4.16c-.04-.45.29-.86.74-.9.45-.04.86.29.9.74.04.45-.29.86-.74.9-.45.04-.86-.29-.9-.74Zm.41,4.15c-.05-.47.29-.88.74-.93s.86.29.91.76c.04.45-.29.86-.74.9-.45.04-.86-.29-.9-.74Zm.82,6.2c-.04-.35.21-.65.56-.68.35-.03.65.21.68.56.04.35-.21.65-.56.68-.35.03-.65-.21-.68-.56Zm.41-16.79c-.03-.35.21-.65.56-.68.35-.03.65.21.68.56.03.35-.21.65-.56.68-.35.04-.65-.21-.68-.56Zm.11,2.07c-.04-.4.25-.75.65-.79.4-.04.75.25.79.65.04.42-.25.78-.65.82-.4.04-.75-.25-.79-.67Zm.21,4.17c-.05-.5.33-.96.83-1.01.52-.05.99.33,1.04.83.05.52-.33.99-.85,1.04-.5.05-.96-.33-1.01-.85Zm.41,4.15c-.05-.52.33-.99.83-1.04.52-.05.99.33,1.04.85.05.5-.33.96-.85,1.01-.5.05-.96-.33-1.01-.83Zm.92,6.19c-.04-.35.21-.65.56-.68.35-.03.65.21.68.56.04.35-.21.65-.56.68-.35.03-.65-.21-.68-.56Zm.52-14.72c-.04-.4.25-.75.67-.79.4-.04.75.25.79.65.04.42-.25.78-.65.82-.42.04-.78-.25-.82-.67Zm.11,2.1c-.05-.47.29-.88.76-.93.45-.04.86.29.91.76.04.45-.29.86-.74.9-.47.05-.88-.29-.93-.74Zm.11,2.07c-.05-.5.33-.96.85-1.01.5-.05.96.33,1.01.83.05.52-.33.99-.83,1.04-.52.05-.99-.33-1.04-.85Zm.41,4.15c-.05-.52.33-.99.85-1.04.5-.05.96.33,1.01.85.05.5-.33.96-.83,1.01-.52.05-.99-.33-1.04-.83Zm.94,6.19c-.03-.35.21-.65.56-.68.32-.03.65.21.68.56.04.35-.24.65-.56.68-.35.04-.65-.21-.68-.56Zm.52-14.72c-.04-.4.25-.75.65-.79.4-.04.75.25.79.65.04.42-.25.78-.65.82-.4.04-.75-.25-.79-.67Zm.19,4.18c-.05-.5.33-.96.85-1.01.5-.05.96.33,1.01.83.05.52-.33.99-.83,1.04-.52.05-.99-.33-1.04-.85Zm.21,2.06c-.05-.5.33-.96.85-1.01.5-.05.96.33,1.01.83.05.52-.33.99-.83,1.04-.52.05-.99-.33-1.04-.85Zm.21,2.09c-.05-.52.33-.99.85-1.04.5-.05.96.33,1.01.85.05.5-.33.96-.83,1.01-.52.05-.99-.33-1.04-.83Zm.94,6.19c-.03-.35.21-.65.56-.68.35-.03.65.21.68.56.03.35-.21.65-.56.68-.35.03-.65-.21-.68-.56Zm.42-16.79c-.03-.35.21-.65.56-.68.35-.03.65.21.68.56.04.35-.21.65-.56.68-.35.04-.65-.21-.68-.56Zm.42,6.24c-.04-.45.29-.86.74-.9.47-.05.88.29.93.74.04.45-.29.86-.76.91-.45.04-.86-.29-.9-.74Zm.41,4.15c-.05-.47.29-.88.74-.93.47-.05.88.29.93.76.04.45-.29.86-.76.91-.45.04-.86-.29-.9-.74Zm.82,6.2c-.03-.35.21-.65.56-.68.35-.03.65.21.68.56.03.35-.21.65-.56.68-.35.03-.65-.21-.68-.56Zm.93-10.57c-.04-.4.25-.75.67-.8.4-.04.75.25.79.65.04.4-.25.75-.65.79-.42.04-.78-.25-.82-.65Zm.62,6.22c-.04-.4.25-.75.67-.8.4-.04.75.25.79.65.04.4-.25.75-.65.79-.42.04-.78-.25-.82-.65Zm1.37-8.5c-.04-.35.21-.65.56-.68.35-.03.65.21.68.56.04.35-.21.65-.56.68-.35.03-.65-.21-.68-.56Z"/>
      </g>
    </g>
  </g>
</svg>