<?xml version="1.0" encoding="UTF-8"?>
<svg id="_レイヤー_2" data-name="レイヤー 2" xmlns="http://www.w3.org/2000/svg" viewBox="0 0 2419.86 2419.86">
  <defs>
    <style>
      .cls-1 {
        stroke-width: 1.01px;
      }

      .cls-1, .cls-2, .cls-3 {
        fill: none;
        stroke-miterlimit: 10;
      }

      .cls-1, .cls-3 {
        stroke: #e1ecd2;
      }

      .cls-2 {
        stroke: #f1f5dc;
      }

      .cls-3 {
        stroke-width: .76px;
      }

      .cls-4 {
        fill: #27378d;
      }

      .cls-4, .cls-5 {
        stroke-width: 0px;
      }

      .cls-5 {
        fill: #e1ecd2;
      }
    </style>
  </defs>
  <g id="_レイヤー_14" data-name="レイヤー 14">
    <g id="star">
      <g id="_円" data-name="円">
        <circle class="cls-2" cx="1209.93" cy="1201.66" r="351.28"/>
        <circle class="cls-2" cx="1209.93" cy="1201.66" r="476.94"/>
        <circle class="cls-2" cx="1209.93" cy="1201.66" r="643.01"/>
        <circle class="cls-2" cx="1209.93" cy="1201.66" r="866.36"/>
        <circle class="cls-2" cx="1209.93" cy="1209.93" r="1209.43"/>
      </g>
      <g id="_星座" data-name="星座">
        <path class="cls-5" d="m677.53,1735.73c-19.96.35-20.24.64-20.6,20.6-.35-19.96-.64-20.24-20.6-20.6,19.96-.35,20.24-.64,20.6-20.6.35,19.96.64,20.24,20.6,20.6Z"/>
        <path class="cls-5" d="m631.4,1445.5c-19.96.35-20.24.64-20.6,20.6-.35-19.96-.64-20.24-20.6-20.6,19.96-.35,20.24-.64,20.6-20.6.35,19.96.64,20.24,20.6,20.6Z"/>
        <path class="cls-5" d="m729.15,1254.95c-19.96.35-20.24.64-20.6,20.6-.35-19.96-.64-20.24-20.6-20.6,19.96-.35,20.24-.64,20.6-20.6.35,19.96.64,20.24,20.6,20.6Z"/>
        <path class="cls-5" d="m763.19,1035.24c-19.96.35-20.24.64-20.6,20.6-.35-19.96-.64-20.24-20.6-20.6,19.96-.35,20.24-.64,20.6-20.6.35,19.96.64,20.24,20.6,20.6Z"/>
        <path class="cls-5" d="m604.24,951.68c-19.96.35-20.24.64-20.6,20.6-.35-19.96-.64-20.24-20.6-20.6,19.96-.35,20.24-.64,20.6-20.6.35,19.96.64,20.24,20.6,20.6Z"/>
        <path class="cls-5" d="m752.57,902.48c-19.96.35-20.24.64-20.6,20.6-.35-19.96-.64-20.24-20.6-20.6,19.96-.35,20.24-.64,20.6-20.6.35,19.96.64,20.24,20.6,20.6Z"/>
        <path class="cls-5" d="m958.86,819.23c-19.96.35-20.24.64-20.6,20.6-.35-19.96-.64-20.24-20.6-20.6,19.96-.35,20.24-.64,20.6-20.6.35,19.96.64,20.24,20.6,20.6Z"/>
        <path class="cls-5" d="m1010.78,704.3c-19.96.35-20.24.64-20.6,20.6-.35-19.96-.64-20.24-20.6-20.6,19.96-.35,20.24-.64,20.6-20.6.35,19.96.64,20.24,20.6,20.6Z"/>
        <path class="cls-5" d="m1590.52,751.87c-19.96.35-20.24.64-20.6,20.6-.35-19.96-.64-20.24-20.6-20.6,19.96-.35,20.24-.64,20.6-20.6.35,19.96.64,20.24,20.6,20.6Z"/>
        <path class="cls-5" d="m1802.52,1075.65c-19.96.35-20.24.64-20.6,20.6-.35-19.96-.64-20.24-20.6-20.6,19.96-.35,20.24-.64,20.6-20.6.35,19.96.64,20.24,20.6,20.6Z"/>
        <path class="cls-5" d="m1765.38,1251.14c-19.96.35-20.24.64-20.6,20.6-.35-19.96-.64-20.24-20.6-20.6,19.96-.35,20.24-.64,20.6-20.6.35,19.96.64,20.24,20.6,20.6Z"/>
        <path class="cls-5" d="m1701.49,1428.48c-19.96.35-20.24.64-20.6,20.6-.35-19.96-.64-20.24-20.6-20.6,19.96-.35,20.24-.64,20.6-20.6.35,19.96.64,20.24,20.6,20.6Z"/>
        <path class="cls-5" d="m1578.86,1504.97c-19.96.35-20.24.64-20.6,20.6-.35-19.96-.64-20.24-20.6-20.6,19.96-.35,20.24-.64,20.6-20.6.35,19.96.64,20.24,20.6,20.6Z"/>
        <path class="cls-5" d="m1634.91,1667.52c-19.96.35-20.24.64-20.6,20.6-.35-19.96-.64-20.24-20.6-20.6,19.96-.35,20.24-.64,20.6-20.6.35,19.96.64,20.24,20.6,20.6Z"/>
        <path class="cls-5" d="m1443.84,1789.26c-19.96.35-20.24.64-20.6,20.6-.35-19.96-.64-20.24-20.6-20.6,19.96-.35,20.24-.64,20.6-20.6.35,19.96.64,20.24,20.6,20.6Z"/>
        <path class="cls-5" d="m1787.91,1646.29c-19.96.35-20.24.64-20.6,20.6-.35-19.96-.64-20.24-20.6-20.6,19.96-.35,20.24-.64,20.6-20.6.35,19.96.64,20.24,20.6,20.6Z"/>
        <path class="cls-5" d="m1695.52,621.41c-19.96.35-20.24.64-20.6,20.6-.35-19.96-.64-20.24-20.6-20.6,19.96-.35,20.24-.64,20.6-20.6.35,19.96.64,20.24,20.6,20.6Z"/>
        <path class="cls-5" d="m1538.92,665.54c-19.96.35-20.24.64-20.6,20.6-.35-19.96-.64-20.24-20.6-20.6,19.96-.35,20.24-.64,20.6-20.6.35,19.96.64,20.24,20.6,20.6Z"/>
        <path class="cls-5" d="m1680.81,821.58c-19.96.35-20.24.64-20.6,20.6-.35-19.96-.64-20.24-20.6-20.6,19.96-.35,20.24-.64,20.6-20.6.35,19.96.64,20.24,20.6,20.6Z"/>
        <path class="cls-5" d="m1848.04,933.32c-19.96.35-20.24.64-20.6,20.6-.35-19.96-.64-20.24-20.6-20.6,19.96-.35,20.24-.64,20.6-20.6.35,19.96.64,20.24,20.6,20.6Z"/>
        <path class="cls-5" d="m1142.67,642.41c-19.96.35-20.24.64-20.6,20.6-.35-19.96-.64-20.24-20.6-20.6,19.96-.35,20.24-.64,20.6-20.6.35,19.96.64,20.24,20.6,20.6Z"/>
        <path class="cls-5" d="m1294.45,671.96c-19.96.35-20.24.64-20.6,20.6-.35-19.96-.64-20.24-20.6-20.6,19.96-.35,20.24-.64,20.6-20.6.35,19.96.64,20.24,20.6,20.6Z"/>
        <path class="cls-5" d="m1378.15,582.71c-19.96.35-20.24.64-20.6,20.6-.35-19.96-.64-20.24-20.6-20.6,19.96-.35,20.24-.64,20.6-20.6.35,19.96.64,20.24,20.6,20.6Z"/>
        <path class="cls-5" d="m741.96,793.77c-19.96.35-20.24.64-20.6,20.6-.35-19.96-.64-20.24-20.6-20.6,19.96-.35,20.24-.64,20.6-20.6.35,19.96.64,20.24,20.6,20.6Z"/>
        <path class="cls-5" d="m648.09,669.85c-19.96.35-20.24.64-20.6,20.6-.35-19.96-.64-20.24-20.6-20.6,19.96-.35,20.24-.64,20.6-20.6.35,19.96.64,20.24,20.6,20.6Z"/>
        <path class="cls-5" d="m916.59,1699.54c-19.96.35-20.24.64-20.6,20.6-.35-19.96-.64-20.24-20.6-20.6,19.96-.35,20.24-.64,20.6-20.6.35,19.96.64,20.24,20.6,20.6Z"/>
        <path class="cls-5" d="m993.03,1625.18c-19.96.35-20.24.64-20.6,20.6-.35-19.96-.64-20.24-20.6-20.6,19.96-.35,20.24-.64,20.6-20.6.35,19.96.64,20.24,20.6,20.6Z"/>
        <path class="cls-5" d="m1113.68,1704.27c-19.96.35-20.24.64-20.6,20.6-.35-19.96-.64-20.24-20.6-20.6,19.96-.35,20.24-.64,20.6-20.6.35,19.96.64,20.24,20.6,20.6Z"/>
        <path class="cls-3" d="m771.73,1625.18c-19.96.35-20.24.64-20.6,20.6-.35-19.96-.64-20.24-20.6-20.6,19.96-.35,20.24-.64,20.6-20.6.35,19.96.64,20.24,20.6,20.6Z"/>
        <path class="cls-3" d="m1011.48,1777.32c-18.18.32-18.44.58-18.76,18.76-.32-18.18-.58-18.44-18.76-18.76,18.18-.32,18.44-.58,18.76-18.76.32,18.18.58,18.44,18.76,18.76Z"/>
        <path class="cls-3" d="m697.68,1108.63c-19.96.35-20.24.64-20.6,20.6-.35-19.96-.64-20.24-20.6-20.6,19.96-.35,20.24-.64,20.6-20.6.35,19.96.64,20.24,20.6,20.6Z"/>
        <path class="cls-3" d="m836.78,750.21c-19.96.35-20.24.64-20.6,20.6-.35-19.96-.64-20.24-20.6-20.6,19.96-.35,20.24-.64,20.6-20.6.35,19.96.64,20.24,20.6,20.6Z"/>
        <path class="cls-3" d="m1123.44,783.15c-19.96.35-20.24.64-20.6,20.6-.35-19.96-.64-20.24-20.6-20.6,19.96-.35,20.24-.64,20.6-20.6.35,19.96.64,20.24,20.6,20.6Z"/>
        <path class="cls-3" d="m1778.76,700.56c-19.96.35-20.24.64-20.6,20.6-.35-19.96-.64-20.24-20.6-20.6,19.96-.35,20.24-.64,20.6-20.6.35,19.96.64,20.24,20.6,20.6Z"/>
        <g>
          <path class="cls-4" d="m1473.38,800.35c-19.96.35-20.24.64-20.6,20.6-.35-19.96-.64-20.24-20.6-20.6,19.96-.35,20.24-.64,20.6-20.6.35,19.96.64,20.24,20.6,20.6Z"/>
          <path class="cls-3" d="m1473.38,800.35c-19.96.35-20.24.64-20.6,20.6-.35-19.96-.64-20.24-20.6-20.6,19.96-.35,20.24-.64,20.6-20.6.35,19.96.64,20.24,20.6,20.6Z"/>
        </g>
        <path class="cls-3" d="m1846.84,1338.8c-19.96.35-20.24.64-20.6,20.6-.35-19.96-.64-20.24-20.6-20.6,19.96-.35,20.24-.64,20.6-20.6.35,19.96.64,20.24,20.6,20.6Z"/>
        <path class="cls-3" d="m1765.38,1485.58c-19.96.35-20.24.64-20.6,20.6-.35-19.96-.64-20.24-20.6-20.6,19.96-.35,20.24-.64,20.6-20.6.35,19.96.64,20.24,20.6,20.6Z"/>
        <path class="cls-3" d="m1501.07,1646.29c-16.11.28-16.34.51-16.62,16.62-.28-16.11-.51-16.34-16.62-16.62,16.11-.28,16.34-.51,16.62-16.62.28,16.11.51,16.34,16.62,16.62Z"/>
        <path class="cls-3" d="m1712.21,968.29c-19.96.35-20.24.64-20.6,20.6-.35-19.96-.64-20.24-20.6-20.6,19.96-.35,20.24-.64,20.6-20.6.35,19.96.64,20.24,20.6,20.6Z"/>
        <path class="cls-3" d="m1691.43,519.18c-19.96.35-20.24.64-20.6,20.6-.35-19.96-.64-20.24-20.6-20.6,19.96-.35,20.24-.64,20.6-20.6.35,19.96.64,20.24,20.6,20.6Z"/>
        <line class="cls-3" x1="902.55" y1="1691.2" x2="964.54" y2="1632.26"/>
        <line class="cls-3" x1="980.36" y1="1632.25" x2="1084.54" y2="1697.98"/>
        <line class="cls-3" x1="904.24" y1="1706.21" x2="985.88" y2="1770.48"/>
        <line class="cls-3" x1="760.29" y1="1630.53" x2="888" y2="1692.57"/>
        <line class="cls-3" x1="663.87" y1="1727.7" x2="743.63" y2="1632.69"/>
        <line class="cls-3" x1="744.64" y1="1616.8" x2="618.71" y2="1452.58"/>
        <line class="cls-3" x1="701.37" y1="1262.75" x2="618.31" y2="1438"/>
        <line class="cls-3" x1="683.76" y1="1119.51" x2="702.35" y2="1246.34"/>
        <line class="cls-1" x1="734.2" y1="1041.73" x2="685.81" y2="1102.59"/>
        <line class="cls-3" x1="592.04" y1="945.2" x2="723.08" y2="908.27"/>
        <line class="cls-3" x1="590.09" y1="960.1" x2="671.5" y2="1099.61"/>
        <line class="cls-3" x1="733.79" y1="925.14" x2="740.52" y2="1009.27"/>
        <line class="cls-3" x1="724.88" y1="812.16" x2="729.9" y2="876.09"/>
        <line class="cls-3" x1="635.13" y1="677.22" x2="713.42" y2="786.74"/>
        <line class="cls-3" x1="730.16" y1="787.82" x2="807.23" y2="755.91"/>
        <line class="cls-3" x1="824.66" y1="756.6" x2="930.23" y2="812.31"/>
        <line class="cls-3" x1="983.19" y1="712.27" x2="943.52" y2="810.01"/>
        <line class="cls-3" x1="1093.46" y1="788.11" x2="959.6" y2="816.34"/>
        <line class="cls-3" x1="999.52" y1="699.24" x2="1113.68" y2="648.91"/>
        <line class="cls-3" x1="1108.28" y1="774.04" x2="1120.77" y2="665.42"/>
        <line class="cls-3" x1="1131.67" y1="646.93" x2="1264.24" y2="667.47"/>
        <line class="cls-3" x1="1281.15" y1="664.26" x2="1350.87" y2="590.94"/>
        <line class="cls-3" x1="1362.89" y1="591.88" x2="1447.45" y2="791.18"/>
        <line class="cls-3" x1="1527.05" y1="659.5" x2="1666.52" y2="627.88"/>
        <line class="cls-3" x1="1524.4" y1="674.24" x2="1564.38" y2="742.82"/>
        <line class="cls-3" x1="1674.92" y1="596.22" x2="1671.46" y2="545.24"/>
        <line class="cls-3" x1="1681.45" y1="627.62" x2="1750.47" y2="693.25"/>
        <line class="cls-3" x1="1471.1" y1="803.8" x2="1635.25" y2="821.58"/>
        <line class="cls-3" x1="1751.49" y1="708.82" x2="1666.63" y2="813.66"/>
        <line class="cls-3" x1="1776.49" y1="1084.78" x2="1753.85" y2="1240.86"/>
        <line class="cls-3" x1="1818.92" y1="1331.13" x2="1752.6" y2="1258.3"/>
        <line class="cls-3" x1="1688.8" y1="1435.54" x2="1736.87" y2="1478.51"/>
        <line class="cls-3" x1="1818.74" y1="1346.31" x2="1688.97" y2="1421.8"/>
        <line class="cls-3" x1="1567.26" y1="1499.35" x2="1672.62" y2="1435.13"/>
        <line class="cls-3" x1="1639.91" y1="1666.95" x2="1758.46" y2="1652.14"/>
        <line class="cls-3" x1="1491.4" y1="1651.29" x2="1604.99" y2="1662.44"/>
        <line class="cls-3" x1="1564.61" y1="1513.46" x2="1608.95" y2="1658.37"/>
        <line class="cls-3" x1="1822.66" y1="1348.79" x2="1751.83" y2="1477.66"/>
        <line class="cls-3" x1="1700.27" y1="973.93" x2="1774.29" y2="1068.28"/>
        <line class="cls-3" x1="1667.02" y1="829.73" x2="1819.66" y2="926.12"/>
        <line class="cls-3" x1="1822.11" y1="942.49" x2="1785.98" y2="1065.84"/>
        <line class="cls-3" x1="1478.99" y1="1652.89" x2="1429.42" y2="1780.63"/>
      </g>
    </g>
  </g>
</svg>