<?xml version="1.0" encoding="UTF-8"?>
<svg id="_レイヤー_2" data-name="レイヤー_2" xmlns="http://www.w3.org/2000/svg" viewBox="0 0 399.2 175.61">
  <defs>
    <style>
      .cls-1 {
        fill: #95c7bc;
      }
    </style>
  </defs>
  <g id="_レイヤー_1-2" data-name="レイヤー_1">
    <g>
      <g>
        <polygon class="cls-1" points="172.87 175.57 172.82 0 163.17 0 163.25 175.57 172.87 175.57"/>
        <rect class="cls-1" x="180.92" y="74.39" width="57.82" height="25.79"/>
        <polygon class="cls-1" points="238.77 175.58 238.76 149.8 180.95 149.79 180.95 175.58 238.77 175.58"/>
        <rect class="cls-1" x=".03" y="0" width="9.62" height="175.57"/>
        <path class="cls-1" d="M19.05,79.83c14.75.01,26.69-11.93,26.69-26.69,0-14.75-12.08-26.72-26.85-26.72V.09c29.3,0,52.92,23.76,52.94,53.05,0,16.31-7.38,30.89-18.93,40.63l33.91,81.81h-28.66L19.05,79.83Z"/>
        <polygon class="cls-1" points="316.33 .02 326.2 .02 343.96 55.91 338.99 71.77 316.33 .02"/>
        <polygon class="cls-1" points="369.97 .04 397.07 .04 371.05 87.13 399.2 175.61 372.11 175.58 343.96 86.97 369.97 .04"/>
        <polygon class="cls-1" points="339.65 101.32 344.49 116.57 326.77 175.57 317.4 175.57 339.65 101.32"/>
      </g>
      <g>
        <polygon class="cls-1" points="172.87 175.57 172.82 0 163.17 0 163.25 175.57 172.87 175.57"/>
        <rect class="cls-1" x="180.91" y=".01" width="57.81" height="25.78"/>
        <rect class="cls-1" x="180.92" y="74.39" width="57.82" height="25.79"/>
        <polygon class="cls-1" points="238.77 175.58 238.76 149.8 180.95 149.79 180.95 175.58 238.77 175.58"/>
        <rect class="cls-1" x=".03" y="0" width="9.62" height="175.57"/>
        <path class="cls-1" d="M19.05,79.83c14.75.01,26.69-11.93,26.69-26.69,0-14.75-12.08-26.72-26.85-26.72V.09c29.3,0,52.92,23.76,52.94,53.05,0,16.31-7.38,30.89-18.93,40.63l33.91,81.81h-28.66L19.05,79.83Z"/>
        <polygon class="cls-1" points="316.33 .02 326.2 .02 343.96 55.91 338.99 71.77 316.33 .02"/>
        <polygon class="cls-1" points="369.97 .04 397.07 .04 371.05 87.13 399.2 175.61 372.11 175.58 343.96 86.97 369.97 .04"/>
        <polygon class="cls-1" points="339.65 101.32 344.49 116.57 326.77 175.57 317.4 175.57 339.65 101.32"/>
      </g>
    </g>
  </g>
</svg>