<?xml version="1.0" encoding="UTF-8"?>
<svg id="_レイヤー_2" data-name="レイヤー 2" xmlns="http://www.w3.org/2000/svg" xmlns:xlink="http://www.w3.org/1999/xlink" viewBox="0 0 363.37 284.34">
  <defs>
    <style>
      .cls-1 {
        stroke: url(#_名称未設定グラデーション_9-3);
        stroke-miterlimit: 10;
      }

      .cls-1, .cls-2, .cls-3, .cls-4 {
        fill: none;
      }

      .cls-1, .cls-3, .cls-4 {
        stroke-width: 8px;
      }

      .cls-5 {
        fill: #fff;
      }

      .cls-5, .cls-2 {
        stroke: #333;
        stroke-linecap: square;
        stroke-linejoin: bevel;
        stroke-width: 4px;
      }

      .cls-3 {
        stroke: url(#_名称未設定グラデーション_9-2);
      }

      .cls-3, .cls-4 {
        stroke-linecap: round;
        stroke-linejoin: round;
      }

      .cls-6 {
        fill: url(#_名称未設定グラデーション_9-4);
      }

      .cls-4 {
        stroke: url(#_名称未設定グラデーション_9);
      }
    </style>
    <linearGradient id="_名称未設定グラデーション_9" data-name="名称未設定グラデーション 9" x1="91.46" y1="140.36" x2="220.98" y2="140.36" gradientUnits="userSpaceOnUse">
      <stop offset="0" stop-color="#e94b01"/>
      <stop offset=".23" stop-color="#e64b02"/>
      <stop offset=".37" stop-color="#dd4e07"/>
      <stop offset=".48" stop-color="#cf530f"/>
      <stop offset=".59" stop-color="#ba5a1a"/>
      <stop offset=".68" stop-color="#a06329"/>
      <stop offset=".77" stop-color="#7f6e3c"/>
      <stop offset=".85" stop-color="#587b52"/>
      <stop offset=".93" stop-color="#2c8a6a"/>
      <stop offset="1" stop-color="#009984"/>
    </linearGradient>
    <linearGradient id="_名称未設定グラデーション_9-2" data-name="名称未設定グラデーション 9" x1="91.7" y1="142.17" x2="221.42" y2="142.17" xlink:href="#_名称未設定グラデーション_9"/>
    <linearGradient id="_名称未設定グラデーション_9-3" data-name="名称未設定グラデーション 9" x1="0" y1="168.72" x2="363.37" y2="168.72" xlink:href="#_名称未設定グラデーション_9"/>
    <linearGradient id="_名称未設定グラデーション_9-4" data-name="名称未設定グラデーション 9" x1="90.65" y1="47.34" x2="230.46" y2="47.34" xlink:href="#_名称未設定グラデーション_9"/>
  </defs>
  <g id="material">
    <g id="gift">
      <g>
        <g>
          <polygon class="cls-5" points="156.41 142.17 156.41 142.17 34.89 72.01 34.89 212.39 156.51 282.6 156.56 282.58 156.41 282.49 156.41 142.17"/>
          <polygon class="cls-5" points="156.41 142.17 156.41 142.06 277.99 71.87 156.51 1.73 34.89 71.95 34.89 72.01 156.41 142.17 156.41 142.17"/>
          <polygon class="cls-5" points="278.02 71.91 277.92 71.85 277.92 71.91 156.3 142.13 156.3 282.45 156.44 282.54 278.02 212.35 278.02 71.91"/>
          <polyline class="cls-4" points="95.46 35.12 216.98 105.28 216.98 245.61"/>
          <polyline class="cls-3" points="217.42 36.88 217.32 36.82 217.32 36.88 95.7 107.1 95.7 247.43 95.84 247.51"/>
          <polyline class="cls-2" points="35.01 109.21 156.53 179.37 156.53 179.37 156.53 179.26 278.11 109.06"/>
        </g>
        <path class="cls-1" d="M.71,243.57s65.71,11.9,70.81-66.84c5.1-78.74,88.36-110.73,88.36-110.73,0,0,101.3,39.41,129.12,148.15,27.81,108.73,70.86,30.07,70.86,30.07"/>
        <path class="cls-6" d="M228.86,38.21c-2.9-5.93-9.3-9.52-18.01-10.11-7.91-.53-16.99,1.49-25.57,5.69-9.85,4.83-17.34,11.63-21.4,18.69-2.6-8.98-9.05-18.49-18.68-26.35-8.52-6.95-18.25-11.48-27.39-12.74-9.83-1.35-17.91,1.17-22.76,7.11-9.69,11.88-2.85,32.97,15.57,48,10.59,8.64,22.37,13.13,32.32,13.13,7.36,0,13.71-2.46,17.83-7.51.63-.78,1.19-1.6,1.69-2.45,3.07,5.48,9.27,8.79,17.6,9.35.83.06,1.67.08,2.53.08,7.28,0,15.36-2.01,23.04-5.77,8.58-4.2,15.74-10.13,20.17-16.71,4.88-7.24,5.97-14.5,3.06-20.43ZM154.83,69.28c-6.74,8.26-24.77,5.19-39.36-6.72-14.59-11.91-21.22-28.95-14.48-37.21,3.09-3.79,8.69-5.34,15.77-4.36,7.77,1.07,16.14,5.01,23.59,11.08,14.59,11.91,21.22,28.95,14.48,37.21ZM219.11,54.13c-3.65,5.42-9.7,10.38-17.03,13.97-7.33,3.59-14.96,5.33-21.48,4.89-5.63-.38-9.76-2.42-11.32-5.61-3.91-7.98,7.16-20.29,19.54-26.35,6.59-3.23,13.41-4.95,19.46-4.95.68,0,1.36.02,2.02.07,5.63.38,9.75,2.42,11.32,5.61h0c1.56,3.19.65,7.7-2.51,12.38Z"/>
      </g>
    </g>
  </g>
</svg>