<?xml version="1.0" encoding="UTF-8"?>
<svg id="_レイヤー_2" data-name="レイヤー 2" xmlns="http://www.w3.org/2000/svg" xmlns:xlink="http://www.w3.org/1999/xlink" viewBox="0 0 733.03 308.67">
  <defs>
    <style>
      .cls-1 {
        fill: url(#_名称未設定グラデーション_36);
      }
    </style>
    <linearGradient id="_名称未設定グラデーション_36" data-name="名称未設定グラデーション 36" x1="0" y1="154.33" x2="733.03" y2="154.33" gradientUnits="userSpaceOnUse">
      <stop offset="0" stop-color="#e94b01"/>
      <stop offset="1" stop-color="#009984"/>
    </linearGradient>
  </defs>
  <g id="Next">
    <path class="cls-1" d="M727.59,308.67c-.11-.14-11.85-14.23-38.22-27.47-24.37-12.24-66.59-26.21-129.29-23.34-3.76.17-7.49.26-11.16.26-58.86,0-104.79-22.06-124.09-60.12-4.36-8.6-7.14-17.62-8.37-26.81-17.63,2.92-38.28,5.22-62.49,6.63-51.47,3-102.11-4.27-150.53-21.63-38.7-13.87-76.07-34.17-111.05-60.34C32.85,51.31.32,4.44,0,3.97L5.78,0c.32.46,32.32,46.52,91.01,90.38,34.41,25.71,71.14,45.65,109.16,59.26,47.48,16.99,97.14,24.12,147.61,21.18,23.05-1.34,43.84-3.57,62.26-6.67-1.05-22.15,6.71-44.93,22.82-64.94,17.67-21.96,42.65-23.91,59.56-16.11,14.64,6.76,22.45,19.84,19.89,33.34-2.39,12.64-17.01,39.31-94.7,53.53,1.1,8.53,3.65,16.89,7.69,24.85,19.23,37.9,67.33,58.83,128.67,56.03,64.48-2.96,108.03,11.58,133.2,24.3,27.53,13.91,39.57,28.48,40.07,29.09l-5.44,4.43ZM478.99,85.83c-14.08,0-26.87,7.83-34.87,17.78-14.76,18.34-22,39.11-21.29,59.3,20.47-3.81,37.81-8.76,51.86-14.83,21.26-9.17,34.23-20.87,36.52-32.94,1.94-10.23-4.32-20.31-15.94-25.67-5.48-2.53-10.97-3.64-16.28-3.64Z"/>
  </g>
</svg>